<svg width="540" height="348" viewBox="0 0 540 348" fill="none" xmlns="http://www.w3.org/2000/svg">
<g clip-path="url(#clip0_244_3164)">
<mask id="mask0_244_3164" style="mask-type:luminance" maskUnits="userSpaceOnUse" x="0" y="0" width="540" height="348">
<path d="M540 0H0V347.683H540V0Z" fill="white"/>
</mask>
<g mask="url(#mask0_244_3164)">
<path d="M478.992 290.277H66.5547V347.684H478.992V290.277Z" fill="#E7EBF0"/>
<path d="M169.038 323.166H163.754L162.907 325.462H159.297L164.42 312.462H168.413L173.536 325.462H169.885L169.038 323.166ZM168.151 320.721L166.396 315.962L164.662 320.721H168.151ZM178.543 311.758V325.462H175.095V311.758H178.543ZM184.491 316.592C184.828 316.111 185.291 315.721 185.883 315.425C186.474 315.129 187.167 314.98 187.96 314.98C188.888 314.98 189.728 315.197 190.481 315.629C191.234 316.061 191.826 316.678 192.256 317.481C192.7 318.283 192.922 319.215 192.922 320.276C192.922 321.339 192.7 322.277 192.256 323.092C191.826 323.894 191.234 324.518 190.481 324.962C189.728 325.394 188.888 325.61 187.96 325.61C187.18 325.61 186.488 325.462 185.883 325.166C185.291 324.869 184.828 324.486 184.491 324.017V330.388H181.043V315.129H184.491V316.592ZM189.412 320.276C189.412 319.487 189.17 318.87 188.686 318.425C188.216 317.968 187.631 317.739 186.932 317.739C186.246 317.739 185.661 317.968 185.177 318.425C184.707 318.882 184.471 319.505 184.471 320.296C184.471 321.085 184.707 321.709 185.177 322.166C185.661 322.623 186.246 322.851 186.932 322.851C187.617 322.851 188.202 322.623 188.686 322.166C189.17 321.697 189.412 321.067 189.412 320.276ZM201.648 315.018C202.939 315.018 203.975 315.413 204.754 316.202C205.534 316.98 205.924 318.054 205.924 319.425V325.462H202.495V319.851C202.495 319.16 202.301 318.623 201.91 318.24C201.521 317.857 200.996 317.666 200.337 317.666C199.679 317.666 199.155 317.857 198.764 318.24C198.375 318.623 198.179 319.16 198.179 319.851V325.462H194.731V311.758H198.179V316.517C198.529 316.061 199.006 315.696 199.611 315.425C200.216 315.153 200.896 315.018 201.648 315.018ZM207.635 320.276C207.635 319.215 207.85 318.283 208.281 317.481C208.724 316.678 209.322 316.061 210.076 315.629C210.828 315.197 211.669 314.98 212.597 314.98C213.39 314.98 214.082 315.129 214.674 315.425C215.279 315.721 215.743 316.111 216.065 316.592V315.129H219.514V325.462H216.065V323.999C215.729 324.481 215.259 324.869 214.654 325.166C214.062 325.462 213.369 325.61 212.576 325.61C211.662 325.61 210.828 325.394 210.076 324.962C209.322 324.518 208.724 323.894 208.281 323.092C207.85 322.277 207.635 321.339 207.635 320.276ZM216.065 320.296C216.065 319.505 215.823 318.882 215.339 318.425C214.868 317.968 214.291 317.739 213.605 317.739C212.919 317.739 212.334 317.968 211.85 318.425C211.379 318.87 211.144 319.487 211.144 320.276C211.144 321.067 211.379 321.697 211.85 322.166C212.334 322.623 212.919 322.851 213.605 322.851C214.291 322.851 214.868 322.623 215.339 322.166C215.823 321.709 216.065 321.085 216.065 320.296ZM225.458 316.592C225.78 316.111 226.244 315.721 226.849 315.425C227.454 315.129 228.147 314.98 228.927 314.98C229.854 314.98 230.695 315.197 231.448 315.629C232.2 316.061 232.792 316.678 233.222 317.481C233.666 318.283 233.888 319.215 233.888 320.276C233.888 321.339 233.666 322.277 233.222 323.092C232.792 323.894 232.2 324.518 231.448 324.962C230.695 325.394 229.854 325.61 228.927 325.61C228.134 325.61 227.441 325.468 226.849 325.184C226.258 324.888 225.794 324.499 225.458 324.017V325.462H222.009V311.758H225.458V316.592ZM230.379 320.276C230.379 319.487 230.137 318.87 229.653 318.425C229.182 317.968 228.597 317.739 227.898 317.739C227.212 317.739 226.627 317.968 226.143 318.425C225.673 318.882 225.438 319.505 225.438 320.296C225.438 321.085 225.673 321.709 226.143 322.166C226.627 322.623 227.212 322.851 227.898 322.851C228.584 322.851 229.169 322.623 229.653 322.166C230.137 321.697 230.379 321.067 230.379 320.276ZM246.305 320.129C246.305 320.425 246.285 320.734 246.245 321.054H238.44C238.494 321.697 238.716 322.19 239.105 322.536C239.509 322.869 240 323.036 240.578 323.036C241.438 323.036 242.037 322.702 242.373 322.036H246.043C245.855 322.715 245.512 323.327 245.015 323.869C244.531 324.412 243.919 324.838 243.179 325.148C242.44 325.456 241.613 325.61 240.699 325.61C239.597 325.61 238.615 325.394 237.754 324.962C236.894 324.53 236.221 323.913 235.737 323.11C235.253 322.308 235.011 321.369 235.011 320.296C235.011 319.221 235.247 318.283 235.717 317.481C236.201 316.678 236.874 316.061 237.734 315.629C238.595 315.197 239.583 314.98 240.699 314.98C241.788 314.98 242.756 315.191 243.603 315.61C244.45 316.03 245.109 316.628 245.579 317.406C246.063 318.184 246.305 319.092 246.305 320.129ZM242.776 319.295C242.776 318.752 242.574 318.32 242.171 317.999C241.768 317.678 241.263 317.517 240.658 317.517C240.081 317.517 239.589 317.672 239.186 317.981C238.796 318.289 238.554 318.727 238.46 319.295H242.776ZM254.397 322.777V325.462H252.643C251.392 325.462 250.417 325.184 249.718 324.629C249.019 324.06 248.67 323.141 248.67 321.87V317.759H247.298V315.129H248.67V312.61H252.118V315.129H254.377V317.759H252.118V321.906C252.118 322.215 252.199 322.437 252.36 322.573C252.522 322.709 252.79 322.777 253.167 322.777H254.397ZM258.053 314.055C257.448 314.055 256.95 313.894 256.56 313.574C256.184 313.24 255.996 312.833 255.996 312.351C255.996 311.857 256.184 311.45 256.56 311.128C256.95 310.795 257.448 310.629 258.053 310.629C258.644 310.629 259.128 310.795 259.505 311.128C259.895 311.45 260.09 311.857 260.09 312.351C260.09 312.833 259.895 313.24 259.505 313.574C259.128 313.894 258.644 314.055 258.053 314.055ZM259.767 315.129V325.462H256.318V315.129H259.767ZM261.581 320.296C261.581 319.221 261.816 318.283 262.287 317.481C262.771 316.678 263.436 316.061 264.283 315.629C265.143 315.197 266.125 314.98 267.228 314.98C268.64 314.98 269.816 315.32 270.757 315.999C271.712 316.678 272.337 317.635 272.633 318.87H268.962C268.653 318.079 268.055 317.684 267.167 317.684C266.535 317.684 266.031 317.912 265.655 318.369C265.278 318.814 265.09 319.456 265.09 320.296C265.09 321.135 265.278 321.783 265.655 322.24C266.031 322.684 266.535 322.906 267.167 322.906C268.055 322.906 268.653 322.511 268.962 321.721H272.633C272.337 322.931 271.712 323.882 270.757 324.573C269.802 325.264 268.626 325.61 267.228 325.61C266.125 325.61 265.143 325.394 264.283 324.962C263.436 324.53 262.771 323.913 262.287 323.11C261.816 322.308 261.581 321.369 261.581 320.296ZM273.792 320.276C273.792 319.215 274.007 318.283 274.437 317.481C274.881 316.678 275.479 316.061 276.232 315.629C276.985 315.197 277.825 314.98 278.753 314.98C279.546 314.98 280.239 315.129 280.83 315.425C281.435 315.721 281.899 316.111 282.222 316.592V315.129H285.67V325.462H282.222V323.999C281.886 324.481 281.415 324.869 280.81 325.166C280.219 325.462 279.526 325.61 278.733 325.61C277.819 325.61 276.985 325.394 276.232 324.962C275.479 324.518 274.881 323.894 274.437 323.092C274.007 322.277 273.792 321.339 273.792 320.276ZM282.222 320.296C282.222 319.505 281.98 318.882 281.496 318.425C281.025 317.968 280.447 317.739 279.761 317.739C279.076 317.739 278.491 317.968 278.007 318.425C277.536 318.87 277.301 319.487 277.301 320.276C277.301 321.067 277.536 321.697 278.007 322.166C278.491 322.623 279.076 322.851 279.761 322.851C280.447 322.851 281.025 322.623 281.496 322.166C281.98 321.709 282.222 321.085 282.222 320.296ZM291.615 311.758V325.462H288.166V311.758H291.615ZM303.51 325.61C302.408 325.61 301.413 325.394 300.525 324.962C299.651 324.53 298.959 323.913 298.448 323.11C297.951 322.308 297.702 321.369 297.702 320.296C297.702 319.233 297.957 318.301 298.468 317.499C298.979 316.684 299.678 316.061 300.566 315.629C301.453 315.197 302.448 314.98 303.55 314.98C304.653 314.98 305.648 315.197 306.535 315.629C307.423 316.061 308.122 316.684 308.633 317.499C309.144 318.301 309.399 319.233 309.399 320.296C309.399 321.357 309.137 322.296 308.613 323.11C308.102 323.913 307.396 324.53 306.495 324.962C305.608 325.394 304.613 325.61 303.51 325.61ZM303.51 322.87C304.169 322.87 304.727 322.647 305.184 322.203C305.655 321.758 305.89 321.123 305.89 320.296C305.89 319.468 305.662 318.832 305.204 318.388C304.761 317.943 304.209 317.721 303.55 317.721C302.878 317.721 302.32 317.943 301.877 318.388C301.433 318.82 301.211 319.456 301.211 320.296C301.211 321.123 301.426 321.758 301.856 322.203C302.3 322.647 302.852 322.87 303.51 322.87ZM314.678 316.851C315.081 316.283 315.585 315.839 316.19 315.517C316.795 315.184 317.467 315.018 318.207 315.018V318.369H317.259C316.399 318.369 315.753 318.542 315.323 318.888C314.893 319.221 314.678 319.814 314.678 320.666V325.462H311.229V315.129H314.678V316.851ZM319.17 320.276C319.17 319.215 319.385 318.283 319.815 317.481C320.259 316.678 320.857 316.061 321.61 315.629C322.363 315.197 323.203 314.98 324.131 314.98C324.871 314.98 325.543 315.123 326.148 315.406C326.766 315.69 327.25 316.073 327.6 316.555V311.758H331.049V325.462H327.6V323.981C327.277 324.475 326.813 324.869 326.208 325.166C325.617 325.462 324.925 325.61 324.131 325.61C323.203 325.61 322.363 325.394 321.61 324.962C320.857 324.518 320.259 323.894 319.815 323.092C319.385 322.277 319.17 321.339 319.17 320.276ZM327.6 320.296C327.6 319.505 327.358 318.882 326.874 318.425C326.403 317.968 325.825 317.739 325.139 317.739C324.454 317.739 323.869 317.968 323.385 318.425C322.914 318.87 322.679 319.487 322.679 320.276C322.679 321.067 322.914 321.697 323.385 322.166C323.869 322.623 324.454 322.851 325.139 322.851C325.825 322.851 326.403 322.623 326.874 322.166C327.358 321.709 327.6 321.085 327.6 320.296ZM344.152 320.129C344.152 320.425 344.132 320.734 344.092 321.054H336.287C336.341 321.697 336.563 322.19 336.952 322.536C337.356 322.869 337.846 323.036 338.425 323.036C339.285 323.036 339.883 322.702 340.22 322.036H343.89C343.702 322.715 343.359 323.327 342.862 323.869C342.378 324.412 341.766 324.838 341.026 325.148C340.287 325.456 339.46 325.61 338.546 325.61C337.443 325.61 336.462 325.394 335.601 324.962C334.74 324.53 334.068 323.913 333.584 323.11C333.1 322.308 332.858 321.369 332.858 320.296C332.858 319.221 333.094 318.283 333.564 317.481C334.048 316.678 334.72 316.061 335.581 315.629C336.442 315.197 337.43 314.98 338.546 314.98C339.635 314.98 340.603 315.191 341.45 315.61C342.297 316.03 342.956 316.628 343.426 317.406C343.91 318.184 344.152 319.092 344.152 320.129ZM340.623 319.295C340.623 318.752 340.421 318.32 340.018 317.999C339.615 317.678 339.11 317.517 338.505 317.517C337.927 317.517 337.436 317.672 337.033 317.981C336.643 318.289 336.401 318.727 336.307 319.295H340.623ZM349.42 316.851C349.824 316.283 350.328 315.839 350.933 315.517C351.538 315.184 352.211 315.018 352.95 315.018V318.369H352.002C351.142 318.369 350.496 318.542 350.066 318.888C349.636 319.221 349.42 319.814 349.42 320.666V325.462H345.971V315.129H349.42V316.851ZM356.333 314.055C355.728 314.055 355.23 313.894 354.84 313.574C354.464 313.24 354.276 312.833 354.276 312.351C354.276 311.857 354.464 311.45 354.84 311.128C355.23 310.795 355.728 310.629 356.333 310.629C356.924 310.629 357.408 310.795 357.785 311.128C358.175 311.45 358.37 311.857 358.37 312.351C358.37 312.833 358.175 313.24 357.785 313.574C357.408 313.894 356.924 314.055 356.333 314.055ZM358.047 315.129V325.462H354.598V315.129H358.047ZM367.404 315.018C368.721 315.018 369.77 315.413 370.55 316.202C371.343 316.98 371.74 318.054 371.74 319.425V325.462H368.311V319.851C368.311 319.16 368.116 318.623 367.726 318.24C367.336 317.857 366.812 317.666 366.153 317.666C365.494 317.666 364.97 317.857 364.58 318.24C364.19 318.623 363.995 319.16 363.995 319.851V325.462H360.546V315.129H363.995V316.499C364.345 316.042 364.815 315.685 365.407 315.425C365.998 315.153 366.664 315.018 367.404 315.018ZM378.412 314.98C379.205 314.98 379.897 315.129 380.489 315.425C381.094 315.721 381.558 316.111 381.881 316.592V315.129H385.329V325.443C385.329 326.394 385.121 327.252 384.704 328.018C384.301 328.796 383.676 329.413 382.829 329.869C381.995 330.326 380.953 330.555 379.703 330.555C378.035 330.555 376.684 330.19 375.649 329.462C374.613 328.746 374.022 327.771 373.874 326.536H377.282C377.39 326.931 377.645 327.24 378.049 327.462C378.452 327.696 378.949 327.814 379.541 327.814C380.254 327.814 380.818 327.623 381.235 327.24C381.665 326.869 381.881 326.271 381.881 325.443V323.981C381.544 324.462 381.081 324.857 380.489 325.166C379.897 325.462 379.205 325.61 378.412 325.61C377.484 325.61 376.644 325.394 375.891 324.962C375.138 324.518 374.54 323.894 374.096 323.092C373.665 322.277 373.45 321.339 373.45 320.276C373.45 319.215 373.665 318.283 374.096 317.481C374.54 316.678 375.138 316.061 375.891 315.629C376.644 315.197 377.484 314.98 378.412 314.98ZM381.881 320.296C381.881 319.505 381.639 318.882 381.155 318.425C380.684 317.968 380.106 317.739 379.42 317.739C378.735 317.739 378.15 317.968 377.666 318.425C377.195 318.87 376.96 319.487 376.96 320.276C376.96 321.067 377.195 321.697 377.666 322.166C378.15 322.623 378.735 322.851 379.42 322.851C380.106 322.851 380.684 322.623 381.155 322.166C381.639 321.709 381.881 321.085 381.881 320.296Z" fill="#252B33"/>
<path d="M132.353 0H0V232.638H132.353V0Z" fill="#FDFDFD"/>
<path d="M66.1765 140.045C102.725 140.045 132.353 112.84 132.353 79.2811C132.353 45.7224 102.725 18.5176 66.1765 18.5176C29.6282 18.5176 0 45.7224 0 79.2811C0 112.84 29.6282 140.045 66.1765 140.045Z" fill="#252B33"/>
<path d="M66.1766 127.357C95.0922 127.357 118.533 105.833 118.533 79.2828C118.533 52.7324 95.0922 31.209 66.1766 31.209C37.261 31.209 13.8203 52.7324 13.8203 79.2828C13.8203 105.833 37.261 127.357 66.1766 127.357Z" fill="#FDFDFD"/>
<path d="M66.1766 113.688C86.8726 113.688 103.65 98.283 103.65 79.2795C103.65 60.2763 86.8726 44.8711 66.1766 44.8711C45.4805 44.8711 28.7031 60.2763 28.7031 79.2795C28.7031 98.283 45.4805 113.688 66.1766 113.688Z" fill="#C2C2C2"/>
<path d="M110.884 56.5544C118.557 56.5544 124.776 50.8435 124.776 43.7987C124.776 36.7539 118.557 31.043 110.884 31.043C103.212 31.043 96.9922 36.7539 96.9922 43.7987C96.9922 50.8435 103.212 56.5544 110.884 56.5544Z" fill="#C2C2C2"/>
<path d="M41.9892 176.639H36.7052L35.8581 178.936H32.248L37.3707 165.936H41.364L46.4867 178.936H42.8363L41.9892 176.639ZM41.1018 174.195L39.3472 169.436L37.6128 174.195H41.1018ZM54.3183 176.25V178.936H52.5637C51.3133 178.936 50.3382 178.657 49.6391 178.102C48.9399 177.534 48.5903 176.614 48.5903 175.343V171.232H47.2189V168.602H48.5903V166.083H52.0393V168.602H54.2981V171.232H52.0393V175.38C52.0393 175.689 52.12 175.911 52.2813 176.047C52.4427 176.182 52.7114 176.25 53.0881 176.25H54.3183ZM61.362 179.083C60.2593 179.083 59.2645 178.868 58.3771 178.435C57.5029 178.004 56.8106 177.386 56.2998 176.583C55.8022 175.781 55.5536 174.843 55.5536 173.769C55.5536 172.707 55.8087 171.774 56.3195 170.972C56.8308 170.157 57.5301 169.534 58.4175 169.102C59.3049 168.67 60.2997 168.454 61.4023 168.454C62.5045 168.454 63.4998 168.67 64.3872 169.102C65.2746 169.534 65.9734 170.157 66.4847 170.972C66.9955 171.774 67.2511 172.707 67.2511 173.769C67.2511 174.83 66.9889 175.769 66.4645 176.583C65.9533 177.386 65.2474 178.004 64.3469 178.435C63.4595 178.868 62.4642 179.083 61.362 179.083ZM61.362 176.342C62.0205 176.342 62.5787 176.12 63.036 175.676C63.5064 175.231 63.7418 174.596 63.7418 173.769C63.7418 172.941 63.5129 172.306 63.0561 171.862C62.6124 171.417 62.0608 171.195 61.4023 171.195C60.7297 171.195 60.1721 171.417 59.7284 171.862C59.2847 172.293 59.0629 172.93 59.0629 173.769C59.0629 174.596 59.2776 175.231 59.7082 175.676C60.1519 176.12 60.703 176.342 61.362 176.342ZM83.44 168.491C84.8387 168.491 85.9479 168.88 86.7677 169.658C87.6017 170.436 88.0182 171.515 88.0182 172.898V178.936H84.5896V173.324C84.5896 172.658 84.395 172.145 84.0047 171.787C83.6286 171.417 83.1042 171.232 82.4316 171.232C81.7595 171.232 81.2286 171.417 80.8383 171.787C80.4622 172.145 80.2736 172.658 80.2736 173.324V178.936H76.845V173.324C76.845 172.658 76.6504 172.145 76.2602 171.787C75.884 171.417 75.3597 171.232 74.6871 171.232C74.015 171.232 73.484 171.417 73.0938 171.787C72.7176 172.145 72.5291 172.658 72.5291 173.324V178.936H69.0803V168.602H72.5291V169.899C72.879 169.466 73.3358 169.126 73.9005 168.88C74.4652 168.62 75.104 168.491 75.8165 168.491C76.6635 168.491 77.4168 168.657 78.0753 168.991C78.7479 169.325 79.2723 169.799 79.6484 170.416C80.0387 169.849 80.5696 169.386 81.2417 169.028C81.9143 168.67 82.6469 168.491 83.44 168.491ZM95.0084 179.083C94.0267 179.083 93.1529 178.929 92.3866 178.621C91.6202 178.312 91.0151 177.892 90.5714 177.361C90.1277 176.818 89.8792 176.213 89.8252 175.546H93.2336C93.2739 175.905 93.4555 176.195 93.7782 176.417C94.1008 176.639 94.4976 176.75 94.9681 176.75C95.3982 176.75 95.7279 176.676 95.9563 176.528C96.1983 176.367 96.3193 176.163 96.3193 175.916C96.3193 175.621 96.1514 175.404 95.8151 175.268C95.4788 175.12 94.9343 174.96 94.1815 174.787C93.3748 174.614 92.7027 174.435 92.1647 174.25C91.6267 174.052 91.1629 173.75 90.7731 173.343C90.3834 172.923 90.1882 172.361 90.1882 171.658C90.1882 171.065 90.3632 170.527 90.7126 170.046C91.0756 169.552 91.6 169.164 92.2857 168.88C92.985 168.596 93.8119 168.454 94.7664 168.454C96.1782 168.454 97.2874 168.775 98.0941 169.416C98.9145 170.059 99.3849 170.91 99.5059 171.973H96.3193C96.2654 171.615 96.0909 171.33 95.795 171.121C95.5126 170.91 95.136 170.806 94.6656 170.806C94.2622 170.806 93.9531 170.88 93.7378 171.028C93.5225 171.164 93.4151 171.355 93.4151 171.602C93.4151 171.898 93.583 172.121 93.9193 172.268C94.2687 172.417 94.8067 172.565 95.5328 172.713C96.3662 172.911 97.0454 173.108 97.5697 173.306C98.0941 173.491 98.5514 173.8 98.9412 174.232C99.3445 174.651 99.5528 175.22 99.5664 175.936C99.5664 176.541 99.3783 177.083 99.0017 177.565C98.6387 178.034 98.1077 178.404 97.4084 178.676C96.7227 178.947 95.9225 179.083 95.0084 179.083Z" fill="#252B33"/>
<path d="M30.8454 210.156C29.5816 209.009 28.5866 207.54 27.8606 205.749C27.1345 203.947 26.7715 201.99 26.7715 199.879C26.7715 197.743 27.148 195.762 27.9009 193.935C28.6539 192.107 29.7093 190.601 31.0673 189.416H32.5395V189.545C31.1009 190.842 30.0051 192.392 29.2522 194.193C28.5127 195.996 28.1429 197.891 28.1429 199.879C28.1429 201.842 28.4992 203.7 29.2118 205.453C29.9245 207.206 30.9664 208.73 32.3379 210.027V210.156H30.8454ZM36.7935 197.694V203.971C36.7935 204.588 36.9212 205.014 37.1766 205.25C37.4321 205.484 37.8825 205.601 38.5279 205.601H39.8187V206.712H38.3061C37.3111 206.712 36.5716 206.503 36.0876 206.082C35.6035 205.651 35.3615 204.947 35.3615 203.971V197.694H33.8287V196.601H35.3615V194.064H36.7935V196.601H39.8187V197.694H36.7935ZM47.3907 196.416C48.2243 196.416 48.9705 196.577 49.6293 196.898C50.3016 197.218 50.826 197.712 51.2026 198.379C51.5924 199.033 51.7875 199.836 51.7875 200.786V206.712H50.3957V200.935C50.3957 199.836 50.0932 198.996 49.4881 198.416C48.8966 197.836 48.0831 197.546 47.0478 197.546C45.9857 197.546 45.1386 197.854 44.5066 198.471C43.8747 199.088 43.5587 199.996 43.5587 201.194V206.712H42.147V193.009H43.5587V198.324C43.9083 197.718 44.4192 197.249 45.0915 196.916C45.7772 196.583 46.5436 196.416 47.3907 196.416ZM64.8725 201.138C64.8725 201.582 64.8589 201.922 64.8322 202.157H55.6961C55.7364 202.922 55.9381 203.577 56.3011 204.119C56.6641 204.663 57.1416 205.077 57.733 205.361C58.3245 205.632 58.9699 205.767 59.6692 205.767C60.5833 205.767 61.3497 205.565 61.9683 205.157C62.6001 204.749 63.0171 204.2 63.2188 203.509H64.7112C64.4425 204.496 63.8641 205.305 62.9767 205.935C62.103 206.552 61.0003 206.86 59.6692 206.86C58.6341 206.86 57.7063 206.651 56.886 206.231C56.0656 205.799 55.4203 205.194 54.9499 204.416C54.4925 203.626 54.2641 202.706 54.2641 201.657C54.2641 200.607 54.4925 199.688 54.9499 198.897C55.4072 198.107 56.0455 197.503 56.8658 197.083C57.6862 196.663 58.6204 196.453 59.6692 196.453C60.7179 196.453 61.632 196.663 62.412 197.083C63.2051 197.503 63.8102 198.07 64.2272 198.786C64.6572 199.49 64.8725 200.274 64.8725 201.138ZM63.4406 201.101C63.4542 200.348 63.2858 199.706 62.9364 199.176C62.6001 198.644 62.1362 198.244 61.5448 197.972C60.9534 197.7 60.308 197.564 59.6087 197.564C58.5599 197.564 57.666 197.873 56.9263 198.49C56.1867 199.108 55.7767 199.977 55.6961 201.101H63.4406ZM80.5648 196.416C81.8556 196.416 82.9043 196.793 83.711 197.546C84.5314 198.287 84.9413 199.367 84.9413 200.786V206.712H83.5497V200.935C83.5497 199.836 83.2608 198.996 82.6825 198.416C82.1041 197.836 81.3176 197.546 80.3228 197.546C79.2877 197.546 78.4608 197.861 77.8421 198.49C77.2235 199.12 76.9144 200.033 76.9144 201.231V206.712H75.5228V200.935C75.5228 199.836 75.2339 198.996 74.6556 198.416C74.0772 197.836 73.2841 197.546 72.2757 197.546C71.2406 197.546 70.4137 197.861 69.7951 198.49C69.1764 199.12 68.8673 200.033 68.8673 201.231V206.712H67.4556V196.601H68.8673V198.342C69.2167 197.712 69.7144 197.237 70.3598 196.916C71.0051 196.583 71.7246 196.416 72.5178 196.416C73.4722 196.416 74.3062 196.626 75.0186 197.045C75.7446 197.466 76.269 198.083 76.5917 198.897C76.8877 198.095 77.3919 197.484 78.1043 197.064C78.8304 196.632 79.6507 196.416 80.5648 196.416ZM98.0394 201.138C98.0394 201.582 98.0263 201.922 97.9991 202.157H88.863C88.9033 202.922 89.105 203.577 89.468 204.119C89.831 204.663 90.3085 205.077 90.8999 205.361C91.4919 205.632 92.1372 205.767 92.8361 205.767C93.7507 205.767 94.5171 205.565 95.1352 205.157C95.7675 204.749 96.184 204.2 96.3856 203.509H97.8781C97.6093 204.496 97.031 205.305 96.1436 205.935C95.2699 206.552 94.1672 206.86 92.8361 206.86C91.8009 206.86 90.8732 206.651 90.0529 206.231C89.233 205.799 88.5877 205.194 88.1167 204.416C87.6599 203.626 87.431 202.706 87.431 201.657C87.431 200.607 87.6599 199.688 88.1167 198.897C88.5741 198.107 89.2129 197.503 90.0327 197.083C90.853 196.663 91.7873 196.453 92.8361 196.453C93.8848 196.453 94.7994 196.663 95.5789 197.083C96.3725 197.503 96.9776 198.07 97.3941 198.786C97.8246 199.49 98.0394 200.274 98.0394 201.138ZM96.6075 201.101C96.6211 200.348 96.4532 199.706 96.1033 199.176C95.7675 198.644 95.3036 198.244 94.7117 197.972C94.1203 197.7 93.4749 197.564 92.7756 197.564C91.7268 197.564 90.8329 197.873 90.0932 198.49C89.3541 199.108 88.9436 199.977 88.863 201.101H96.6075ZM100.017 210.156V210.027C101.389 208.73 102.431 207.206 103.143 205.453C103.856 203.7 104.212 201.842 104.212 199.879C104.212 197.891 103.836 195.996 103.083 194.193C102.344 192.392 101.255 190.842 99.8157 189.545V189.416H101.288C102.646 190.601 103.702 192.107 104.454 193.935C105.208 195.762 105.584 197.743 105.584 199.879C105.584 201.99 105.221 203.947 104.495 205.749C103.769 207.54 102.774 209.009 101.51 210.156H100.017Z" fill="#727272"/>
<path d="M357.227 0H182.773V232.637H357.227V0Z" fill="#FDFDFD"/>
<path d="M235.991 140.045C253.757 140.045 268.159 125.703 268.159 108.013C268.159 90.3218 253.757 75.9805 235.991 75.9805C218.226 75.9805 203.824 90.3218 203.824 108.013C203.824 125.703 218.226 140.045 235.991 140.045Z" fill="#252B33"/>
<path d="M235.991 133.356C250.046 133.356 261.44 122.009 261.44 108.012C261.44 94.016 250.046 82.6699 235.991 82.6699C221.935 82.6699 210.541 94.016 210.541 108.012C210.541 122.009 221.935 133.356 235.991 133.356Z" fill="#FDFDFD"/>
<path d="M235.991 126.151C246.051 126.151 254.206 118.029 254.206 108.011C254.206 97.9938 246.051 89.873 235.991 89.873C225.931 89.873 217.775 97.9938 217.775 108.011C217.775 118.029 225.931 126.151 235.991 126.151Z" fill="#C2C2C2"/>
<path d="M271.842 18.5195C254.077 18.5195 239.675 32.8608 239.675 50.5517C239.675 68.2426 254.077 82.5838 271.842 82.5838C289.608 82.5838 304.01 68.2426 304.01 50.5517C304.01 32.8608 289.608 18.5195 271.842 18.5195Z" fill="#252B33"/>
<path d="M271.843 25.209C257.788 25.209 246.394 36.5553 246.394 50.5516C246.394 64.548 257.788 75.8943 271.843 75.8943C285.899 75.8943 297.293 64.548 297.293 50.5516C297.293 36.5553 285.899 25.209 271.843 25.209Z" fill="#FDFDFD"/>
<path d="M271.841 32.4121C261.781 32.4121 253.626 40.533 253.626 50.5507C253.626 60.5684 261.781 68.6894 271.841 68.6894C281.901 68.6894 290.057 60.5684 290.057 50.5507C290.057 40.533 281.901 32.4121 271.841 32.4121Z" fill="#C2C2C2"/>
<path d="M304.009 75.9805C286.243 75.9805 271.841 90.3217 271.841 108.013C271.841 125.704 286.243 140.045 304.009 140.045C321.774 140.045 336.176 125.704 336.176 108.013C336.176 90.3217 321.774 75.9805 304.009 75.9805Z" fill="#252B33"/>
<path d="M304.009 82.6699C289.954 82.6699 278.56 94.0162 278.56 108.012C278.56 122.009 289.954 133.355 304.009 133.355C318.065 133.355 329.459 122.009 329.459 108.012C329.459 94.0162 318.065 82.6699 304.009 82.6699Z" fill="#FDFDFD"/>
<path d="M304.009 89.873C293.949 89.873 285.794 97.9939 285.794 108.012C285.794 118.029 293.949 126.151 304.009 126.151C314.069 126.151 322.225 118.029 322.225 108.012C322.225 97.9939 314.069 89.873 304.009 89.873Z" fill="#C2C2C2"/>
<path d="M257.477 83.3157C261.207 83.3157 264.23 80.3052 264.23 76.5915C264.23 72.8777 261.207 69.8672 257.477 69.8672C253.748 69.8672 250.725 72.8777 250.725 76.5915C250.725 80.3052 253.748 83.3157 257.477 83.3157Z" fill="#C2C2C2"/>
<path d="M253.057 89.9173C256.787 89.9173 259.81 86.9068 259.81 83.193C259.81 79.4794 256.787 76.4688 253.057 76.4688C249.328 76.4688 246.305 79.4794 246.305 83.193C246.305 86.9068 249.328 89.9173 253.057 89.9173Z" fill="#C2C2C2"/>
<path d="M281.795 81.0989C280.83 84.6861 282.968 88.3732 286.57 89.3344C290.172 90.2956 293.875 88.1668 294.84 84.5796C295.805 80.9924 293.668 77.3053 290.065 76.3441C286.463 75.3829 282.76 77.5117 281.795 81.0989Z" fill="#C2C2C2"/>
<path d="M276.535 75.1398C275.57 78.727 277.708 82.4142 281.31 83.3754C284.912 84.3366 288.615 82.2078 289.58 78.6206C290.546 75.0334 288.408 71.3463 284.806 70.3851C281.203 69.4239 277.5 71.5527 276.535 75.1398Z" fill="#C2C2C2"/>
<path d="M272.425 104.545C270.56 101.329 266.431 100.227 263.201 102.083C259.971 103.941 258.864 108.054 260.729 111.269C262.594 114.486 266.724 115.588 269.953 113.731C273.183 111.874 274.29 107.762 272.425 104.545Z" fill="#C2C2C2"/>
<path d="M280.529 104.545C278.664 101.329 274.534 100.227 271.304 102.083C268.075 103.941 266.968 108.054 268.833 111.269C270.697 114.486 274.827 115.588 278.057 113.731C281.287 111.874 282.393 107.762 280.529 104.545Z" fill="#C2C2C2"/>
<path d="M234.707 165.933V178.933H231.259V171.136L228.092 178.933H225.309L222.123 171.118V178.933H218.674V165.933H222.748L226.721 174.932L230.654 165.933H234.707ZM242.31 179.081C241.208 179.081 240.212 178.865 239.325 178.432C238.451 178.001 237.759 177.383 237.248 176.58C236.75 175.779 236.501 174.839 236.501 173.766C236.501 172.705 236.757 171.772 237.268 170.969C237.779 170.155 238.478 169.531 239.365 169.099C240.253 168.667 241.248 168.451 242.35 168.451C243.453 168.451 244.448 168.667 245.335 169.099C246.222 169.531 246.922 170.155 247.432 170.969C247.944 171.772 248.199 172.705 248.199 173.766C248.199 174.827 247.937 175.766 247.412 176.58C246.902 177.383 246.196 178.001 245.295 178.432C244.407 178.865 243.412 179.081 242.31 179.081ZM242.31 176.34C242.969 176.34 243.527 176.118 243.984 175.673C244.455 175.229 244.69 174.593 244.69 173.766C244.69 172.939 244.461 172.302 244.004 171.858C243.56 171.414 243.009 171.191 242.35 171.191C241.678 171.191 241.12 171.414 240.676 171.858C240.232 172.29 240.011 172.927 240.011 173.766C240.011 174.593 240.226 175.229 240.656 175.673C241.1 176.118 241.651 176.34 242.31 176.34ZM253.477 165.229V178.933H250.029V165.229H253.477ZM266.585 173.599C266.585 173.895 266.565 174.204 266.525 174.525H258.72C258.773 175.167 258.995 175.66 259.385 176.006C259.788 176.34 260.279 176.507 260.857 176.507C261.718 176.507 262.316 176.174 262.652 175.507H266.323C266.135 176.185 265.792 176.797 265.294 177.34C264.81 177.883 264.199 178.308 263.459 178.618C262.719 178.926 261.892 179.081 260.978 179.081C259.876 179.081 258.894 178.865 258.034 178.432C257.173 178.001 256.501 177.383 256.017 176.58C255.533 175.779 255.291 174.839 255.291 173.766C255.291 172.692 255.526 171.753 255.997 170.951C256.481 170.148 257.153 169.531 258.014 169.099C258.874 168.667 259.863 168.451 260.978 168.451C262.067 168.451 263.036 168.661 263.883 169.08C264.73 169.501 265.389 170.099 265.859 170.877C266.343 171.655 266.585 172.562 266.585 173.599ZM263.056 172.766C263.056 172.222 262.854 171.79 262.451 171.47C262.047 171.148 261.543 170.988 260.938 170.988C260.36 170.988 259.869 171.142 259.466 171.451C259.076 171.76 258.834 172.198 258.74 172.766H263.056ZM267.719 173.766C267.719 172.692 267.954 171.753 268.424 170.951C268.908 170.148 269.574 169.531 270.421 169.099C271.282 168.667 272.263 168.451 273.366 168.451C274.777 168.451 275.954 168.79 276.895 169.47C277.85 170.148 278.475 171.105 278.771 172.34H275.1C274.791 171.549 274.192 171.155 273.305 171.155C272.673 171.155 272.169 171.383 271.792 171.84C271.416 172.284 271.228 172.927 271.228 173.766C271.228 174.605 271.416 175.253 271.792 175.71C272.169 176.154 272.673 176.376 273.305 176.376C274.192 176.376 274.791 175.982 275.1 175.192H278.771C278.475 176.401 277.85 177.353 276.895 178.044C275.941 178.734 274.764 179.081 273.366 179.081C272.263 179.081 271.282 178.865 270.421 178.432C269.574 178.001 268.908 177.383 268.424 176.58C267.954 175.779 267.719 174.839 267.719 173.766ZM291.728 168.599V178.933H288.279V177.525C287.93 177.982 287.452 178.352 286.847 178.636C286.256 178.908 285.597 179.044 284.871 179.044C284.011 179.044 283.251 178.871 282.592 178.525C281.933 178.167 281.422 177.655 281.059 176.988C280.696 176.321 280.515 175.537 280.515 174.636V168.599H283.943V174.21C283.943 174.902 284.138 175.438 284.528 175.821C284.918 176.204 285.443 176.396 286.101 176.396C286.774 176.396 287.305 176.204 287.694 175.821C288.085 175.438 288.279 174.902 288.279 174.21V168.599H291.728ZM297.654 165.229V178.933H294.205V165.229H297.654ZM310.762 173.599C310.762 173.895 310.742 174.204 310.701 174.525H302.896C302.95 175.167 303.172 175.66 303.562 176.006C303.965 176.34 304.456 176.507 305.034 176.507C305.895 176.507 306.493 176.174 306.829 175.507H310.5C310.311 176.185 309.969 176.797 309.471 177.34C308.987 177.883 308.375 178.308 307.636 178.618C306.897 178.926 306.07 179.081 305.155 179.081C304.053 179.081 303.071 178.865 302.21 178.432C301.35 178.001 300.678 177.383 300.194 176.58C299.71 175.779 299.468 174.839 299.468 173.766C299.468 172.692 299.703 171.753 300.173 170.951C300.658 170.148 301.33 169.531 302.19 169.099C303.051 168.667 304.039 168.451 305.155 168.451C306.244 168.451 307.212 168.661 308.059 169.08C308.906 169.501 309.565 170.099 310.036 170.877C310.52 171.655 310.762 172.562 310.762 173.599ZM307.232 172.766C307.232 172.222 307.031 171.79 306.627 171.47C306.224 171.148 305.72 170.988 305.115 170.988C304.537 170.988 304.046 171.142 303.642 171.451C303.253 171.76 303.011 172.198 302.916 172.766H307.232ZM317.16 179.081C316.178 179.081 315.304 178.926 314.538 178.618C313.771 178.308 313.166 177.89 312.723 177.358C312.279 176.815 312.03 176.21 311.976 175.544H315.385C315.425 175.902 315.607 176.192 315.929 176.414C316.252 176.636 316.648 176.747 317.119 176.747C317.549 176.747 317.879 176.673 318.107 176.525C318.349 176.365 318.47 176.161 318.47 175.914C318.47 175.618 318.302 175.401 317.966 175.265C317.63 175.118 317.085 174.957 316.333 174.784C315.526 174.612 314.853 174.433 314.316 174.247C313.778 174.05 313.314 173.748 312.924 173.34C312.534 172.92 312.339 172.358 312.339 171.655C312.339 171.062 312.514 170.525 312.864 170.044C313.227 169.55 313.751 169.16 314.437 168.877C315.136 168.593 315.963 168.451 316.918 168.451C318.329 168.451 319.439 168.772 320.245 169.414C321.065 170.056 321.536 170.908 321.657 171.969H318.47C318.417 171.612 318.242 171.327 317.946 171.118C317.664 170.908 317.287 170.803 316.817 170.803C316.413 170.803 316.104 170.877 315.889 171.025C315.674 171.161 315.566 171.352 315.566 171.599C315.566 171.896 315.734 172.118 316.07 172.266C316.42 172.413 316.958 172.562 317.684 172.71C318.517 172.907 319.196 173.105 319.721 173.303C320.245 173.488 320.702 173.797 321.092 174.229C321.496 174.648 321.704 175.216 321.718 175.932C321.718 176.537 321.529 177.081 321.153 177.562C320.79 178.031 320.258 178.401 319.56 178.673C318.874 178.945 318.074 179.081 317.16 179.081Z" fill="#252B33"/>
<path d="M250.041 210.154C248.777 209.007 247.782 207.538 247.056 205.747C246.33 203.945 245.967 201.988 245.967 199.877C245.967 197.741 246.343 195.76 247.096 193.933C247.849 192.105 248.905 190.599 250.263 189.414H251.735V189.544C250.296 190.84 249.201 192.39 248.447 194.191C247.708 195.994 247.338 197.89 247.338 199.877C247.338 201.84 247.695 203.698 248.407 205.451C249.12 207.204 250.162 208.729 251.533 210.025V210.154H250.041ZM267.928 193.933V206.71H266.517V196.506L261.555 206.71H260.527L255.565 196.544V206.71H254.154V193.933H255.646L261.031 205.007L266.416 193.933H267.928ZM272.482 193.766V201.915C272.482 203.198 272.811 204.149 273.47 204.766C274.143 205.383 275.057 205.692 276.213 205.692C277.369 205.692 278.27 205.39 278.916 204.785C279.575 204.168 279.904 203.21 279.904 201.915V193.766H281.316V201.895C281.316 203.538 280.838 204.772 279.884 205.599C278.943 206.427 277.712 206.84 276.193 206.84C274.674 206.84 273.437 206.427 272.482 205.599C271.541 204.772 271.07 203.538 271.07 201.895V193.766H272.482ZM285.876 193.766V206.71H284.465V193.766H285.876ZM288.468 210.154V210.025C289.84 208.729 290.882 207.204 291.595 205.451C292.307 203.698 292.663 201.84 292.663 199.877C292.663 197.89 292.287 195.994 291.534 194.191C290.794 192.39 289.705 190.84 288.267 189.544V189.414H289.739C291.097 190.599 292.153 192.105 292.905 193.933C293.658 195.76 294.035 197.741 294.035 199.877C294.035 201.988 293.672 203.945 292.946 205.747C292.22 207.538 291.225 209.007 289.961 210.154H288.468Z" fill="#727272"/>
<path d="M540 0H407.646V232.638H540V0Z" fill="#FDFDFD"/>
<path d="M508.307 123.558C508.307 132.64 515.402 140.001 524.154 140.001C532.905 140.001 540 132.64 540 123.558C540 114.477 532.905 107.115 524.154 107.115C515.402 107.115 508.307 114.477 508.307 123.558Z" fill="#252B33"/>
<path d="M511.615 123.56C511.615 130.745 517.228 136.569 524.152 136.569C531.076 136.569 536.689 130.745 536.689 123.56C536.689 116.376 531.076 110.551 524.152 110.551C517.228 110.551 511.615 116.376 511.615 123.56Z" fill="#FDFDFD"/>
<path d="M515.18 123.559C515.18 128.702 519.198 132.87 524.154 132.87C529.109 132.87 533.127 128.702 533.127 123.559C533.127 118.417 529.109 114.248 524.154 114.248C519.198 114.248 515.18 118.417 515.18 123.559Z" fill="#C2C2C2"/>
<path d="M507.827 77.6641C499.076 77.6641 491.981 85.0258 491.981 94.1069C491.981 103.188 499.076 110.549 507.827 110.549C516.579 110.549 523.674 103.188 523.674 94.1069C523.674 85.0258 516.579 77.6641 507.827 77.6641Z" fill="#252B33"/>
<path d="M507.826 81.0957C500.902 81.0957 495.289 86.92 495.289 94.1042C495.289 101.289 500.902 107.113 507.826 107.113C514.75 107.113 520.363 101.289 520.363 94.1042C520.363 86.92 514.75 81.0957 507.826 81.0957Z" fill="#FDFDFD"/>
<path d="M507.828 84.7969C502.872 84.7969 498.854 88.9655 498.854 94.1074C498.854 99.2503 502.872 103.419 507.828 103.419C512.783 103.419 516.801 99.2503 516.801 94.1074C516.801 88.9655 512.783 84.7969 507.828 84.7969Z" fill="#C2C2C2"/>
<path d="M490.165 140.046C498.917 140.046 506.011 132.684 506.011 123.603C506.011 114.522 498.917 107.16 490.165 107.16C481.413 107.16 474.318 114.522 474.318 123.603C474.318 132.684 481.413 140.046 490.165 140.046Z" fill="#252B33"/>
<path d="M490.166 136.612C497.09 136.612 502.703 130.788 502.703 123.603C502.703 116.418 497.09 110.594 490.166 110.594C483.242 110.594 477.629 116.418 477.629 123.603C477.629 130.788 483.242 136.612 490.166 136.612Z" fill="#FDFDFD"/>
<path d="M490.167 132.911C495.122 132.911 499.14 128.742 499.14 123.6C499.14 118.458 495.122 114.289 490.167 114.289C485.211 114.289 481.193 118.458 481.193 123.6C481.193 128.742 485.211 132.911 490.167 132.911Z" fill="#C2C2C2"/>
<path d="M474.319 110.548C483.071 110.548 490.166 103.186 490.166 94.1052C490.166 85.0238 483.071 77.6621 474.319 77.6621C465.567 77.6621 458.473 85.0238 458.473 94.1052C458.473 103.186 465.567 110.548 474.319 110.548Z" fill="#252B33"/>
<path d="M474.318 107.114C481.242 107.114 486.856 101.29 486.856 94.1046C486.856 86.92 481.242 81.0957 474.318 81.0957C467.394 81.0957 461.781 86.92 461.781 94.1046C461.781 101.29 467.394 107.114 474.318 107.114Z" fill="#FDFDFD"/>
<path d="M474.319 103.415C479.275 103.415 483.292 99.2458 483.292 94.1038C483.292 88.9616 479.275 84.793 474.319 84.793C469.363 84.793 465.346 88.9616 465.346 94.1038C465.346 99.2458 469.363 103.415 474.319 103.415Z" fill="#C2C2C2"/>
<path d="M497.242 106.783C495.405 106.783 493.915 108.329 493.915 110.235C493.915 112.141 495.405 113.686 497.242 113.686C499.079 113.686 500.568 112.141 500.568 110.235C500.568 108.329 499.079 106.783 497.242 106.783Z" fill="#C2C2C2"/>
<path d="M499.42 103.393C497.582 103.393 496.093 104.938 496.093 106.844C496.093 108.75 497.582 110.296 499.42 110.296C501.257 110.296 502.746 108.75 502.746 106.844C502.746 104.938 501.257 103.393 499.42 103.393Z" fill="#C2C2C2"/>
<path d="M485.262 107.921C485.737 106.079 484.684 104.187 482.91 103.693C481.135 103.199 479.311 104.292 478.836 106.134C478.36 107.975 479.413 109.867 481.188 110.361C482.962 110.855 484.786 109.762 485.262 107.921Z" fill="#C2C2C2"/>
<path d="M487.852 110.979C488.327 109.137 487.274 107.245 485.5 106.752C483.725 106.258 481.901 107.35 481.425 109.192C480.95 111.033 482.003 112.926 483.778 113.42C485.552 113.913 487.376 112.82 487.852 110.979Z" fill="#C2C2C2"/>
<path d="M489.878 95.8853C490.797 97.5362 492.831 98.1019 494.422 97.1488C496.013 96.1957 496.558 94.0847 495.64 92.4338C494.721 90.7826 492.687 90.2169 491.096 91.17C489.505 92.1234 488.959 94.2344 489.878 95.8853Z" fill="#C2C2C2"/>
<path d="M485.886 95.8853C486.804 97.5362 488.839 98.1019 490.43 97.1488C492.021 96.1957 492.566 94.0847 491.648 92.4338C490.729 90.7826 488.695 90.2169 487.103 91.17C485.512 92.1234 484.967 94.2344 485.886 95.8853Z" fill="#C2C2C2"/>
<path d="M472.726 123.601C472.726 114.52 465.631 107.158 456.88 107.158C448.128 107.158 441.033 114.52 441.033 123.601C441.033 132.682 448.128 140.045 456.88 140.045C465.631 140.045 472.726 132.682 472.726 123.601Z" fill="#252B33"/>
<path d="M469.418 123.601C469.418 116.416 463.805 110.592 456.881 110.592C449.957 110.592 444.344 116.416 444.344 123.601C444.344 130.785 449.957 136.609 456.881 136.609C463.805 136.609 469.418 130.785 469.418 123.601Z" fill="#FDFDFD"/>
<path d="M465.853 123.602C465.853 118.46 461.835 114.291 456.88 114.291C451.924 114.291 447.906 118.46 447.906 123.602C447.906 128.744 451.924 132.913 456.88 132.913C461.835 132.913 465.853 128.744 465.853 123.602Z" fill="#C2C2C2"/>
<path d="M407.647 123.557C407.647 132.638 414.742 139.999 423.493 139.999C432.245 139.999 439.34 132.638 439.34 123.557C439.34 114.475 432.245 107.113 423.493 107.113C414.742 107.113 407.647 114.475 407.647 123.557Z" fill="#252B33"/>
<path d="M410.957 123.558C410.957 130.743 416.57 136.567 423.494 136.567C430.418 136.567 436.031 130.743 436.031 123.558C436.031 116.374 430.418 110.549 423.494 110.549C416.57 110.549 410.957 116.374 410.957 123.558Z" fill="#FDFDFD"/>
<path d="M414.52 123.557C414.52 128.7 418.538 132.868 423.494 132.868C428.449 132.868 432.467 128.7 432.467 123.557C432.467 118.415 428.449 114.246 423.494 114.246C418.538 114.246 414.52 118.415 414.52 123.557Z" fill="#C2C2C2"/>
<path d="M425.344 92.9959C425.344 102.077 432.439 109.438 441.191 109.438C449.942 109.438 457.037 102.077 457.037 92.9959C457.037 83.9144 449.942 76.5527 441.191 76.5527C432.439 76.5527 425.344 83.9144 425.344 92.9959Z" fill="#252B33"/>
<path d="M428.652 92.9931C428.652 100.178 434.265 106.002 441.189 106.002C448.113 106.002 453.727 100.178 453.727 92.9931C453.727 85.8086 448.113 79.9844 441.189 79.9844C434.265 79.9844 428.652 85.8086 428.652 92.9931Z" fill="#FDFDFD"/>
<path d="M432.218 92.9925C432.218 98.1345 436.235 102.304 441.191 102.304C446.147 102.304 450.164 98.1345 450.164 92.9925C450.164 87.8503 446.147 83.6816 441.191 83.6816C436.235 83.6816 432.218 87.8503 432.218 92.9925Z" fill="#C2C2C2"/>
<path d="M441.13 120.311C440.269 118.626 438.256 117.984 436.633 118.878C435.009 119.77 434.391 121.859 435.251 123.543C436.111 125.228 438.125 125.87 439.748 124.977C441.371 124.085 441.99 121.995 441.13 120.311Z" fill="#C2C2C2"/>
<path d="M445.034 120.311C444.174 118.626 442.16 117.984 440.537 118.878C438.913 119.77 438.295 121.859 439.155 123.543C440.015 125.228 442.029 125.87 443.652 124.977C445.276 124.085 445.894 121.995 445.034 120.311Z" fill="#C2C2C2"/>
<path d="M458.09 92.2498C457.23 90.5657 455.217 89.9239 453.593 90.8166C451.97 91.7092 451.352 93.7979 452.212 95.4828C453.072 97.1668 455.086 97.8086 456.709 96.9161C458.332 96.0236 458.951 93.9347 458.09 92.2498Z" fill="#C2C2C2"/>
<path d="M461.995 92.2498C461.134 90.5657 459.121 89.9239 457.498 90.8166C455.874 91.7092 455.256 93.7979 456.116 95.4828C456.976 97.1668 458.99 97.8086 460.613 96.9161C462.236 96.0236 462.855 93.9347 461.995 92.2498Z" fill="#C2C2C2"/>
<path d="M518.568 108.648C519.327 106.913 518.586 104.866 516.913 104.079C515.24 103.291 513.268 104.06 512.509 105.796C511.75 107.532 512.491 109.578 514.164 110.366C515.837 111.153 517.809 110.384 518.568 108.648Z" fill="#C2C2C2"/>
<path d="M520.957 111.855C521.716 110.119 520.975 108.074 519.301 107.286C517.628 106.498 515.657 107.267 514.898 109.003C514.139 110.739 514.88 112.785 516.553 113.573C518.226 114.36 520.198 113.591 520.957 111.855Z" fill="#C2C2C2"/>
<path d="M474.18 120.311C473.32 118.626 471.307 117.984 469.683 118.878C468.06 119.77 467.441 121.859 468.302 123.543C469.162 125.228 471.175 125.87 472.799 124.977C474.422 124.085 475.041 121.995 474.18 120.311Z" fill="#C2C2C2"/>
<path d="M478.085 120.311C477.224 118.626 475.211 117.984 473.588 118.878C471.964 119.77 471.346 121.859 472.206 123.543C473.066 125.228 475.08 125.87 476.703 124.977C478.326 124.085 478.945 121.995 478.085 120.311Z" fill="#C2C2C2"/>
<path d="M434.55 109.494C436.341 109.068 437.46 107.216 437.049 105.359C436.638 103.5 434.853 102.34 433.063 102.766C431.272 103.192 430.153 105.044 430.564 106.902C430.975 108.76 432.76 109.92 434.55 109.494Z" fill="#C2C2C2"/>
<path d="M433.16 113.305C434.95 112.878 436.069 111.027 435.658 109.169C435.247 107.31 433.463 106.15 431.672 106.577C429.881 107.003 428.763 108.855 429.174 110.712C429.584 112.571 431.369 113.731 433.16 113.305Z" fill="#C2C2C2"/>
<path d="M446.961 108.092C445.986 109.707 446.457 111.838 448.013 112.849C449.57 113.862 451.623 113.374 452.599 111.759C453.574 110.143 453.103 108.012 451.547 107C449.99 105.988 447.937 106.476 446.961 108.092Z" fill="#C2C2C2"/>
<path d="M445.092 104.433C444.116 106.048 444.587 108.179 446.144 109.191C447.701 110.204 449.754 109.715 450.729 108.1C451.705 106.485 451.234 104.354 449.677 103.342C448.121 102.33 446.068 102.818 445.092 104.433Z" fill="#C2C2C2"/>
<path d="M507.258 120.311C506.398 118.626 504.385 117.984 502.761 118.878C501.138 119.77 500.52 121.859 501.38 123.543C502.24 125.228 504.253 125.87 505.877 124.977C507.5 124.085 508.119 121.995 507.258 120.311Z" fill="#C2C2C2"/>
<path d="M511.165 120.311C510.304 118.626 508.291 117.984 506.668 118.878C505.044 119.77 504.426 121.859 505.286 123.543C506.146 125.228 508.16 125.87 509.783 124.977C511.406 124.085 512.025 121.995 511.165 120.311Z" fill="#C2C2C2"/>
<path d="M507.251 64.6986C507.251 55.6176 500.157 48.2559 491.405 48.2559C482.653 48.2559 475.559 55.6176 475.559 64.6986C475.559 73.7798 482.653 81.1414 491.405 81.1414C500.157 81.1414 507.251 73.7798 507.251 64.6986Z" fill="#252B33"/>
<path d="M503.943 64.6984C503.943 57.5137 498.33 51.6895 491.406 51.6895C484.482 51.6895 478.869 57.5137 478.869 64.6984C478.869 71.883 484.482 77.7073 491.406 77.7073C498.33 77.7073 503.943 71.883 503.943 64.6984Z" fill="#FDFDFD"/>
<path d="M500.378 64.6977C500.378 59.5554 496.361 55.3867 491.405 55.3867C486.449 55.3867 482.432 59.5554 482.432 64.6977C482.432 69.8399 486.449 74.0087 491.405 74.0087C496.361 74.0087 500.378 69.8399 500.378 64.6977Z" fill="#C2C2C2"/>
<path d="M442.094 64.3041C442.094 73.3852 449.189 80.747 457.941 80.747C466.692 80.747 473.787 73.3852 473.787 64.3041C473.787 55.223 466.692 47.8613 457.941 47.8613C449.189 47.8613 442.094 55.223 442.094 64.3041Z" fill="#252B33"/>
<path d="M445.402 64.3039C445.402 71.4885 451.015 77.3128 457.939 77.3128C464.863 77.3128 470.477 71.4885 470.477 64.3039C470.477 57.1192 464.863 51.2949 457.939 51.2949C451.015 51.2949 445.402 57.1192 445.402 64.3039Z" fill="#FDFDFD"/>
<path d="M448.968 64.3051C448.968 69.4474 452.985 73.6161 457.941 73.6161C462.897 73.6161 466.914 69.4474 466.914 64.3051C466.914 59.1628 462.897 54.9941 457.941 54.9941C452.985 54.9941 448.968 59.1628 448.968 64.3051Z" fill="#C2C2C2"/>
<path d="M458.198 34.9603C458.198 44.0415 465.292 51.4031 474.044 51.4031C482.796 51.4031 489.891 44.0415 489.891 34.9603C489.891 25.8792 482.796 18.5176 474.044 18.5176C465.292 18.5176 458.198 25.8792 458.198 34.9603Z" fill="#252B33"/>
<path d="M461.508 34.9621C461.508 42.1467 467.121 47.9709 474.045 47.9709C480.969 47.9709 486.582 42.1467 486.582 34.9621C486.582 27.7774 480.969 21.9531 474.045 21.9531C467.121 21.9531 461.508 27.7774 461.508 34.9621Z" fill="#FDFDFD"/>
<path d="M465.071 34.9615C465.071 40.1037 469.088 44.2723 474.044 44.2723C479 44.2723 483.018 40.1037 483.018 34.9615C483.018 29.8191 479 25.6504 474.044 25.6504C469.088 25.6504 465.071 29.8191 465.071 34.9615Z" fill="#C2C2C2"/>
<path d="M475.471 61.8729C474.519 60.2424 472.474 59.7212 470.902 60.7088C469.331 61.6966 468.829 63.819 469.78 65.4495C470.732 67.0801 472.778 67.6013 474.349 66.6135C475.921 65.6259 476.423 63.5035 475.471 61.8729Z" fill="#C2C2C2"/>
<path d="M479.393 62.0486C478.441 60.4182 476.396 59.897 474.824 60.8846C473.253 61.8722 472.751 63.9948 473.702 65.6252C474.654 67.2558 476.7 67.777 478.271 66.7893C479.842 65.8017 480.345 63.6792 479.393 62.0486Z" fill="#C2C2C2"/>
<path d="M468.326 51.8298C470.091 51.2977 471.105 49.3826 470.592 47.5519C470.08 45.7213 468.234 44.6686 466.47 45.2005C464.706 45.7325 463.691 47.6478 464.204 49.4784C464.716 51.3089 466.562 52.3618 468.326 51.8298Z" fill="#C2C2C2"/>
<path d="M467.147 55.7146C468.911 55.1825 469.925 53.2673 469.413 51.4366C468.9 49.6061 467.054 48.5533 465.29 49.0853C463.526 49.6173 462.511 51.5326 463.024 53.3631C463.537 55.1937 465.382 56.2465 467.147 55.7146Z" fill="#C2C2C2"/>
<path d="M480.638 49.6901C479.753 51.3607 480.34 53.4594 481.95 54.3777C483.56 55.2959 485.583 54.686 486.468 53.0154C487.353 51.3448 486.765 49.2461 485.155 48.3279C483.545 47.4096 481.523 48.0195 480.638 49.6901Z" fill="#C2C2C2"/>
<path d="M478.569 46.1471C477.684 47.8178 478.272 49.9164 479.882 50.8347C481.492 51.7529 483.515 51.143 484.4 49.4725C485.285 47.8019 484.697 45.7031 483.087 44.7849C481.477 43.8666 479.454 44.4765 478.569 46.1471Z" fill="#C2C2C2"/>
<path d="M501.583 78.4996C502.342 76.7636 501.601 74.7178 499.928 73.9303C498.255 73.1427 496.284 73.9115 495.525 75.6476C494.766 77.3837 495.507 79.4295 497.18 80.2171C498.853 81.0046 500.824 80.2357 501.583 78.4996Z" fill="#C2C2C2"/>
<path d="M503.972 81.7067C504.731 79.9707 503.99 77.9249 502.317 77.1373C500.644 76.3497 498.672 77.1186 497.913 78.8547C497.154 80.5907 497.895 82.6366 499.568 83.4241C501.242 84.2117 503.213 83.4428 503.972 81.7067Z" fill="#C2C2C2"/>
<path d="M467.388 78.7321C468.147 76.9961 467.406 74.9502 465.733 74.1627C464.06 73.3751 462.088 74.144 461.329 75.8801C460.57 77.6161 461.311 79.6619 462.984 80.4495C464.658 81.2371 466.629 80.4682 467.388 78.7321Z" fill="#C2C2C2"/>
<path d="M469.777 81.9391C470.536 80.2031 469.795 78.1573 468.122 77.3698C466.449 76.5821 464.477 77.351 463.718 79.0871C462.959 80.8231 463.7 82.869 465.373 83.6565C467.046 84.4441 469.018 83.6752 469.777 81.9391Z" fill="#C2C2C2"/>
<path d="M450.02 81.0646C451.833 81.3761 453.544 80.1038 453.845 78.2232C454.145 76.3424 452.919 74.5653 451.106 74.2539C449.294 73.9425 447.581 75.2148 447.281 77.0954C446.981 78.9762 448.208 80.7533 450.02 81.0646Z" fill="#C2C2C2"/>
<path d="M447.655 84.2892C449.468 84.6007 451.18 83.3285 451.48 81.4477C451.78 79.567 450.554 77.7899 448.742 77.4785C446.929 77.1672 445.217 78.4393 444.917 80.32C444.616 82.2008 445.843 83.9779 447.655 84.2892Z" fill="#C2C2C2"/>
<path d="M482.426 81.2971C484.238 81.6085 485.951 80.3363 486.251 78.4556C486.551 76.5748 485.325 74.7977 483.512 74.4864C481.7 74.1749 479.987 75.4472 479.687 77.3278C479.387 79.2086 480.613 80.9857 482.426 81.2971Z" fill="#C2C2C2"/>
<path d="M480.06 84.5197C481.873 84.8311 483.585 83.5589 483.886 81.6782C484.186 79.7975 482.96 78.0204 481.147 77.709C479.335 77.3976 477.622 78.6697 477.322 80.5505C477.022 82.4313 478.248 84.2083 480.06 84.5197Z" fill="#C2C2C2"/>
<path d="M465.666 110.516C467.478 110.828 469.191 109.555 469.491 107.674C469.791 105.794 468.565 104.016 466.753 103.705C464.94 103.394 463.227 104.666 462.927 106.547C462.627 108.427 463.853 110.204 465.666 110.516Z" fill="#C2C2C2"/>
<path d="M463.297 113.74C465.109 114.051 466.822 112.78 467.122 110.899C467.422 109.018 466.196 107.241 464.383 106.93C462.571 106.618 460.858 107.89 460.558 109.772C460.258 111.652 461.484 113.429 463.297 113.74Z" fill="#C2C2C2"/>
<path d="M424.152 179.065C422.821 179.065 421.597 178.78 420.481 178.213C419.378 177.644 418.498 176.855 417.839 175.842C417.194 174.817 416.871 173.669 416.871 172.398C416.871 171.126 417.194 169.985 417.839 168.972C418.498 167.959 419.378 167.169 420.481 166.601C421.597 166.033 422.821 165.75 424.152 165.75C425.483 165.75 426.699 166.033 427.802 166.601C428.918 167.169 429.792 167.959 430.424 168.972C431.069 169.985 431.392 171.126 431.392 172.398C431.392 173.669 431.069 174.817 430.424 175.842C429.779 176.855 428.904 177.644 427.802 178.213C426.699 178.78 425.483 179.065 424.152 179.065ZM424.152 176.175C425.281 176.175 426.182 175.83 426.854 175.138C427.54 174.447 427.883 173.533 427.883 172.398C427.883 171.25 427.54 170.336 426.854 169.657C426.182 168.965 425.281 168.62 424.152 168.62C423.009 168.62 422.095 168.959 421.409 169.638C420.736 170.318 420.401 171.237 420.401 172.398C420.401 173.545 420.736 174.465 421.409 175.157C422.095 175.836 423.009 176.175 424.152 176.175ZM436.759 170.323C437.163 169.756 437.667 169.311 438.272 168.99C438.877 168.657 439.549 168.491 440.289 168.491V171.842H439.341C438.48 171.842 437.835 172.015 437.405 172.361C436.975 172.694 436.759 173.286 436.759 174.138V178.934H433.311V168.602H436.759V170.323ZM446.213 168.453C447.006 168.453 447.698 168.602 448.29 168.897C448.895 169.194 449.359 169.583 449.682 170.064V168.602H453.13V178.916C453.13 179.866 452.922 180.725 452.505 181.491C452.102 182.268 451.476 182.885 450.629 183.342C449.796 183.799 448.754 184.028 447.503 184.028C445.836 184.028 444.485 183.663 443.45 182.935C442.414 182.219 441.823 181.244 441.675 180.009H445.083C445.191 180.403 445.446 180.712 445.85 180.935C446.253 181.169 446.751 181.287 447.342 181.287C448.055 181.287 448.62 181.095 449.036 180.713C449.467 180.342 449.682 179.743 449.682 178.916V177.453C449.346 177.934 448.882 178.329 448.29 178.639C447.698 178.934 447.006 179.083 446.213 179.083C445.285 179.083 444.445 178.866 443.692 178.435C442.939 177.99 442.34 177.367 441.897 176.564C441.467 175.749 441.251 174.811 441.251 173.749C441.251 172.688 441.467 171.756 441.897 170.953C442.34 170.151 442.939 169.534 443.692 169.101C444.445 168.67 445.285 168.453 446.213 168.453ZM449.682 173.768C449.682 172.978 449.439 172.354 448.955 171.898C448.485 171.441 447.907 171.212 447.221 171.212C446.535 171.212 445.95 171.441 445.466 171.898C444.996 172.342 444.76 172.959 444.76 173.749C444.76 174.54 444.996 175.17 445.466 175.638C445.95 176.095 446.535 176.324 447.221 176.324C447.907 176.324 448.485 176.095 448.955 175.638C449.439 175.182 449.682 174.558 449.682 173.768ZM454.94 173.749C454.94 172.688 455.155 171.756 455.585 170.953C456.029 170.151 456.627 169.534 457.38 169.101C458.133 168.67 458.973 168.453 459.901 168.453C460.694 168.453 461.387 168.602 461.978 168.897C462.584 169.194 463.047 169.583 463.37 170.064V168.602H466.819V178.934H463.37V177.472C463.034 177.953 462.563 178.342 461.958 178.639C461.366 178.934 460.674 179.083 459.881 179.083C458.966 179.083 458.133 178.866 457.38 178.435C456.627 177.99 456.029 177.367 455.585 176.564C455.155 175.749 454.94 174.811 454.94 173.749ZM463.37 173.768C463.37 172.978 463.128 172.354 462.644 171.898C462.173 171.441 461.595 171.212 460.91 171.212C460.224 171.212 459.639 171.441 459.155 171.898C458.684 172.342 458.449 172.959 458.449 173.749C458.449 174.54 458.684 175.17 459.155 175.638C459.639 176.095 460.224 176.324 460.91 176.324C461.595 176.324 462.173 176.095 462.644 175.638C463.128 175.182 463.37 174.558 463.37 173.768ZM476.171 168.491C477.489 168.491 478.537 168.885 479.317 169.675C480.111 170.453 480.507 171.527 480.507 172.898V178.934H477.078V173.323C477.078 172.633 476.884 172.095 476.493 171.713C476.104 171.33 475.579 171.139 474.92 171.139C474.262 171.139 473.737 171.33 473.347 171.713C472.957 172.095 472.762 172.633 472.762 173.323V178.934H469.314V168.602H472.762V169.972C473.112 169.514 473.583 169.157 474.174 168.897C474.766 168.626 475.432 168.491 476.171 168.491ZM484.638 167.527C484.033 167.527 483.536 167.367 483.145 167.045C482.769 166.712 482.581 166.305 482.581 165.823C482.581 165.329 482.769 164.922 483.145 164.601C483.536 164.268 484.033 164.102 484.638 164.102C485.23 164.102 485.714 164.268 486.09 164.601C486.48 164.922 486.675 165.329 486.675 165.823C486.675 166.305 486.48 166.712 486.09 167.045C485.714 167.367 485.23 167.527 484.638 167.527ZM486.352 168.602V178.934H482.903V168.602H486.352ZM493.43 179.083C492.448 179.083 491.574 178.929 490.808 178.62C490.041 178.311 489.436 177.891 488.993 177.36C488.549 176.818 488.3 176.213 488.246 175.546H491.655C491.695 175.903 491.877 176.194 492.199 176.417C492.522 176.639 492.919 176.75 493.389 176.75C493.82 176.75 494.149 176.675 494.377 176.528C494.619 176.367 494.74 176.163 494.74 175.916C494.74 175.62 494.573 175.404 494.236 175.268C493.9 175.12 493.356 174.959 492.603 174.787C491.796 174.614 491.124 174.435 490.586 174.25C490.048 174.052 489.585 173.749 489.194 173.342C488.805 172.922 488.609 172.361 488.609 171.657C488.609 171.064 488.784 170.527 489.134 170.046C489.497 169.552 490.021 169.163 490.707 168.879C491.406 168.595 492.233 168.453 493.188 168.453C494.599 168.453 495.709 168.774 496.515 169.416C497.336 170.058 497.806 170.91 497.927 171.972H494.74C494.687 171.613 494.512 171.33 494.216 171.119C493.934 170.91 493.558 170.805 493.087 170.805C492.683 170.805 492.374 170.879 492.159 171.028C491.944 171.163 491.836 171.354 491.836 171.601C491.836 171.897 492.005 172.12 492.34 172.268C492.69 172.416 493.228 172.565 493.954 172.713C494.788 172.91 495.467 173.107 495.991 173.305C496.515 173.49 496.973 173.799 497.362 174.231C497.766 174.651 497.974 175.218 497.988 175.934C497.988 176.54 497.799 177.083 497.423 177.564C497.06 178.034 496.529 178.404 495.83 178.675C495.144 178.947 494.344 179.083 493.43 179.083ZM514.458 168.491C515.854 168.491 516.964 168.879 517.786 169.657C518.617 170.434 519.036 171.515 519.036 172.898V178.934H515.607V173.323C515.607 172.656 515.411 172.144 515.023 171.787C514.644 171.416 514.12 171.231 513.449 171.231C512.779 171.231 512.244 171.416 511.856 171.787C511.478 172.144 511.291 172.656 511.291 173.323V178.934H507.863V173.323C507.863 172.656 507.666 172.144 507.278 171.787C506.9 171.416 506.375 171.231 505.705 171.231C505.034 171.231 504.5 171.416 504.111 171.787C503.734 172.144 503.546 172.656 503.546 173.323V178.934H500.098V168.602H503.546V169.897C503.896 169.466 504.354 169.126 504.918 168.879C505.483 168.62 506.123 168.491 506.834 168.491C507.681 168.491 508.433 168.657 509.093 168.99C509.764 169.323 510.288 169.799 510.666 170.416C511.054 169.848 511.589 169.385 512.259 169.027C512.93 168.67 513.666 168.491 514.458 168.491ZM526.024 179.083C525.046 179.083 524.169 178.929 523.402 178.62C522.636 178.311 522.031 177.891 521.587 177.36C521.144 176.818 520.896 176.213 520.841 175.546H524.249C524.29 175.903 524.471 176.194 524.794 176.417C525.117 176.639 525.515 176.75 525.984 176.75C526.417 176.75 526.745 176.675 526.972 176.528C527.214 176.367 527.335 176.163 527.335 175.916C527.335 175.62 527.169 175.404 526.831 175.268C526.498 175.12 525.954 174.959 525.197 174.787C524.391 174.614 523.72 174.435 523.181 174.25C522.646 174.052 522.182 173.749 521.789 173.342C521.401 172.922 521.204 172.361 521.204 171.657C521.204 171.064 521.381 170.527 521.728 170.046C522.091 169.552 522.616 169.163 523.302 168.879C524.002 168.595 524.829 168.453 525.782 168.453C527.194 168.453 528.303 168.774 529.11 169.416C529.932 170.058 530.401 170.91 530.522 171.972H527.335C527.285 171.613 527.108 171.33 526.811 171.119C526.528 170.91 526.155 170.805 525.681 170.805C525.278 170.805 524.97 170.879 524.754 171.028C524.542 171.163 524.431 171.354 524.431 171.601C524.431 171.897 524.602 172.12 524.935 172.268C525.288 172.416 525.822 172.565 526.549 172.713C527.386 172.91 528.061 173.107 528.586 173.305C529.11 173.49 529.569 173.799 529.957 174.231C530.36 174.651 530.572 175.218 530.582 175.934C530.582 176.54 530.396 177.083 530.017 177.564C529.654 178.034 529.125 178.404 528.424 178.675C527.738 178.947 526.942 179.083 526.024 179.083Z" fill="#252B33"/>
<path d="M433.244 210.154C431.98 209.007 430.985 207.538 430.259 205.747C429.533 203.945 429.17 201.988 429.17 199.877C429.17 197.741 429.546 195.76 430.299 193.933C431.052 192.105 432.107 190.599 433.466 189.414H434.938V189.544C433.499 190.84 432.403 192.39 431.651 194.191C430.911 195.994 430.541 197.89 430.541 199.877C430.541 201.84 430.897 203.698 431.61 205.451C432.323 207.204 433.365 208.729 434.736 210.025V210.154H433.244ZM436.711 201.655C436.711 200.605 436.94 199.692 437.397 198.914C437.854 198.124 438.486 197.519 439.293 197.099C440.1 196.667 441.02 196.451 442.056 196.451C443.414 196.451 444.529 196.76 445.404 197.377C446.291 197.994 446.862 198.834 447.118 199.895H445.605C445.417 199.167 445.007 198.599 444.375 198.192C443.756 197.772 442.984 197.562 442.056 197.562C441.316 197.562 440.651 197.716 440.059 198.025C439.467 198.334 438.997 198.797 438.647 199.414C438.311 200.019 438.143 200.766 438.143 201.655C438.143 202.543 438.311 203.297 438.647 203.914C438.997 204.531 439.467 204.994 440.059 205.303C440.651 205.612 441.316 205.766 442.056 205.766C442.984 205.766 443.756 205.563 444.375 205.155C445.007 204.735 445.417 204.155 445.605 203.414H447.118C446.862 204.452 446.291 205.284 445.404 205.914C444.516 206.544 443.4 206.858 442.056 206.858C441.02 206.858 440.1 206.649 439.293 206.229C438.486 205.797 437.854 205.192 437.397 204.414C436.94 203.624 436.711 202.704 436.711 201.655ZM459.265 196.599V206.71H457.853V204.933C457.53 205.563 457.033 206.044 456.361 206.377C455.688 206.71 454.935 206.877 454.102 206.877C452.784 206.877 451.708 206.506 450.875 205.766C450.041 205.013 449.624 203.926 449.624 202.507V196.599H451.016V202.359C451.016 203.457 451.312 204.297 451.903 204.877C452.508 205.457 453.329 205.747 454.364 205.747C455.426 205.747 456.273 205.439 456.905 204.822C457.537 204.205 457.853 203.297 457.853 202.099V196.599H459.265ZM466.279 206.858C465.016 206.858 463.98 206.594 463.173 206.062C462.38 205.519 461.937 204.785 461.842 203.858H463.294C463.362 204.427 463.651 204.89 464.162 205.248C464.686 205.593 465.385 205.766 466.259 205.766C467.025 205.766 467.624 205.599 468.054 205.266C468.498 204.933 468.72 204.519 468.72 204.025C468.72 203.679 468.599 203.396 468.356 203.173C468.114 202.951 467.805 202.779 467.429 202.655C467.066 202.52 466.569 202.377 465.936 202.229C465.117 202.031 464.451 201.834 463.94 201.636C463.429 201.439 462.992 201.149 462.629 200.766C462.279 200.371 462.104 199.846 462.104 199.192C462.104 198.698 462.266 198.242 462.588 197.821C462.911 197.402 463.368 197.068 463.96 196.821C464.552 196.575 465.224 196.451 465.977 196.451C467.16 196.451 468.114 196.728 468.841 197.285C469.567 197.828 469.957 198.581 470.01 199.544H468.599C468.558 198.951 468.303 198.476 467.832 198.118C467.375 197.748 466.743 197.562 465.936 197.562C465.224 197.562 464.646 197.716 464.202 198.025C463.758 198.334 463.536 198.716 463.536 199.174C463.536 199.568 463.664 199.895 463.92 200.155C464.189 200.401 464.518 200.6 464.908 200.747C465.298 200.883 465.822 201.038 466.481 201.21C467.274 201.408 467.906 201.6 468.377 201.784C468.848 201.97 469.251 202.241 469.587 202.599C469.923 202.958 470.098 203.432 470.111 204.025C470.111 204.568 469.95 205.057 469.627 205.488C469.304 205.908 468.854 206.241 468.276 206.488C467.698 206.735 467.032 206.858 466.279 206.858ZM474.604 197.692V203.969C474.604 204.586 474.732 205.013 474.987 205.248C475.243 205.482 475.693 205.599 476.339 205.599H477.629V206.71H476.117C475.122 206.71 474.382 206.501 473.898 206.08C473.414 205.649 473.172 204.946 473.172 203.969V197.692H471.639V196.599H473.172V194.062H474.604V196.599H477.629V197.692H474.604ZM484.778 206.858C483.743 206.858 482.808 206.649 481.974 206.229C481.154 205.797 480.502 205.192 480.018 204.414C479.548 203.624 479.312 202.704 479.312 201.655C479.312 200.605 479.554 199.692 480.038 198.914C480.522 198.124 481.181 197.519 482.015 197.099C482.848 196.667 483.783 196.451 484.818 196.451C485.853 196.451 486.788 196.667 487.622 197.099C488.469 197.519 489.128 198.124 489.598 198.914C490.082 199.692 490.324 200.605 490.324 201.655C490.324 202.692 490.082 203.605 489.598 204.396C489.114 205.186 488.448 205.797 487.601 206.229C486.754 206.649 485.813 206.858 484.778 206.858ZM484.778 205.729C485.504 205.729 486.176 205.581 486.795 205.284C487.413 204.976 487.91 204.519 488.287 203.914C488.677 203.297 488.872 202.543 488.872 201.655C488.872 200.766 488.684 200.019 488.307 199.414C487.931 198.797 487.433 198.34 486.815 198.043C486.196 197.735 485.524 197.581 484.798 197.581C484.072 197.581 483.4 197.735 482.781 198.043C482.163 198.34 481.665 198.797 481.289 199.414C480.926 200.019 480.744 200.766 480.744 201.655C480.744 202.543 480.926 203.297 481.289 203.914C481.665 204.519 482.156 204.976 482.761 205.284C483.38 205.581 484.052 205.729 484.778 205.729ZM506.007 196.414C507.298 196.414 508.347 196.791 509.153 197.544C509.975 198.285 510.384 199.365 510.384 200.784V206.71H508.992V200.933C508.992 199.834 508.705 198.995 508.125 198.414C507.545 197.834 506.758 197.544 505.765 197.544C504.732 197.544 503.903 197.859 503.284 198.488C502.665 199.118 502.356 200.031 502.356 201.229V206.71H500.965V200.933C500.965 199.834 500.676 198.995 500.098 198.414C499.519 197.834 498.726 197.544 497.718 197.544C496.683 197.544 495.856 197.859 495.237 198.488C494.618 199.118 494.309 200.031 494.309 201.229V206.71H492.897V196.599H494.309V198.34C494.659 197.71 495.156 197.235 495.802 196.914C496.447 196.581 497.167 196.414 497.96 196.414C498.914 196.414 499.748 196.624 500.461 197.043C501.187 197.464 501.711 198.081 502.034 198.895C502.33 198.093 502.834 197.482 503.546 197.063C504.273 196.63 505.095 196.414 506.007 196.414ZM512.915 210.154V210.025C514.286 208.729 515.325 207.204 516.041 205.451C516.752 203.698 517.11 201.84 517.11 199.877C517.11 197.89 516.732 195.994 515.98 194.191C515.239 192.39 514.15 190.84 512.713 189.544V189.414H514.185C515.542 190.599 516.595 192.105 517.352 193.933C518.103 195.76 518.481 197.741 518.481 199.877C518.481 201.988 518.118 203.945 517.392 205.747C516.666 207.538 515.668 209.007 514.407 210.154H512.915Z" fill="#727272"/>
<path d="M66.5547 232.869V263.106H272.773M272.773 263.106H478.992V232.869M272.773 263.106V290.276M272.773 263.106V232.869" stroke="#E7EBF0" stroke-width="5"/>
</g>
</g>
<defs>
<clipPath id="clip0_244_3164">
<rect width="540" height="348" fill="white"/>
</clipPath>
</defs>
</svg>
