<svg width="454" height="383" viewBox="0 0 454 383" fill="none" xmlns="http://www.w3.org/2000/svg">
<g clip-path="url(#clip0_285_2759)">
<path d="M243.689 86.0599C198.999 -31.3201 -15.9208 -40.8801 13.3992 142.16C26.5092 224 82.9392 292.16 182.899 309.51C276.899 325.77 446.899 294.86 446.359 206.51C445.799 118 271.799 159.83 243.689 86.0599Z" fill="#7EA0FF"/>
<path opacity="0.7" d="M243.689 86.0599C198.999 -31.3201 -15.9208 -40.8801 13.3992 142.16C26.5092 224 82.9392 292.16 182.899 309.51C276.899 325.77 446.899 294.86 446.359 206.51C445.799 118 271.799 159.83 243.689 86.0599Z" fill="white"/>
<path d="M207.83 317.389C207.95 311.916 210.208 306.707 214.121 302.879C218.034 299.05 223.291 296.906 228.765 296.906C234.24 296.906 239.496 299.05 243.409 302.879C247.322 306.707 249.581 311.916 249.7 317.389L253.2 316.149V297.689L240.79 289.619L222.05 284.139L207.83 292.789L201.57 304.449V315.869L207.83 317.389Z" fill="#263238"/>
<path d="M170.609 367.449H286.919C287.992 367.449 289.055 367.661 290.046 368.071C291.037 368.482 291.938 369.083 292.697 369.842C293.455 370.601 294.057 371.501 294.468 372.493C294.878 373.484 295.089 374.546 295.089 375.619V382.409H162.439V375.619C162.439 374.546 162.651 373.484 163.061 372.493C163.472 371.501 164.074 370.601 164.832 369.842C165.591 369.083 166.492 368.482 167.483 368.071C168.474 367.661 169.537 367.449 170.609 367.449Z" fill="#999999" stroke="#263238" stroke-linecap="round" stroke-linejoin="round"/>
<path d="M254.999 267.34H202.569L191.359 367.45H266.169L254.999 267.34ZM228.799 334.8C224.657 334.8 220.608 333.571 217.165 331.27C213.721 328.969 211.037 325.698 209.452 321.871C207.868 318.044 207.454 313.833 208.262 309.771C209.071 305.709 211.067 301.978 213.996 299.049C216.926 296.121 220.658 294.128 224.72 293.321C228.783 292.514 232.994 292.93 236.82 294.517C240.646 296.103 243.916 298.789 246.215 302.233C248.515 305.678 249.741 309.728 249.739 313.87C249.739 316.623 249.196 319.348 248.141 321.891C247.086 324.434 245.54 326.743 243.591 328.687C241.643 330.631 239.329 332.172 236.784 333.221C234.239 334.27 231.512 334.806 228.759 334.8H228.799Z" fill="#757575" stroke="#263238" stroke-linecap="round" stroke-linejoin="round"/>
<path d="M413.69 20.5391H43.8295C34.2695 20.5391 26.5195 28.289 26.5195 37.8491V261.789C26.5195 271.349 34.2695 279.099 43.8295 279.099H413.69C423.25 279.099 431 271.349 431 261.789V37.8491C431 28.289 423.25 20.5391 413.69 20.5391Z" fill="#999999" stroke="#263238" stroke-width="0.75" stroke-linecap="round" stroke-linejoin="round"/>
<path d="M26.5703 262.719C26.8033 267.14 28.7232 271.303 31.9344 274.35C35.1455 277.398 39.4033 279.097 43.8303 279.099H413.7C418.134 279.105 422.4 277.409 425.619 274.361C428.838 271.313 430.765 267.146 431 262.719H26.5703Z" fill="#545454" stroke="#727272" stroke-width="0.75" stroke-linecap="round" stroke-linejoin="round"/>
<path d="M413.7 37.8496H43.8301V261.8H413.7V37.8496Z" fill="#7EA0FF"/>
<mask id="mask0_285_2759" style="mask-type:luminance" maskUnits="userSpaceOnUse" x="43" y="37" width="371" height="225">
<path d="M413.7 37.8496H43.8301V261.8H413.7V37.8496Z" fill="white"/>
</mask>
<g mask="url(#mask0_285_2759)">
<path opacity="0.8" d="M413.7 37.8496H43.8301V261.8H413.7V37.8496Z" fill="white"/>
</g>
<path d="M413.7 37.8496H43.8301V261.8H413.7V37.8496Z" stroke="#263238" stroke-linecap="round" stroke-linejoin="round"/>
<path d="M413.7 37.8496H43.8301V58.4096H413.7V37.8496Z" fill="#7EA0FF" stroke="#263238" stroke-width="0.75" stroke-linecap="round" stroke-linejoin="round"/>
<path d="M63.0898 48.1289C63.0898 49.1178 62.7966 50.0845 62.2472 50.9068C61.6978 51.729 60.9169 52.3699 60.0033 52.7483C59.0896 53.1267 58.0843 53.2258 57.1144 53.0328C56.1445 52.8399 55.2536 52.3637 54.5543 51.6644C53.855 50.9652 53.3788 50.0743 53.1859 49.1044C52.993 48.1345 53.092 47.1291 53.4704 46.2155C53.8489 45.3019 54.4897 44.521 55.312 43.9716C56.1342 43.4222 57.1009 43.1289 58.0898 43.1289C59.4159 43.1289 60.6877 43.6557 61.6254 44.5934C62.5631 45.5311 63.0898 46.8028 63.0898 48.1289Z" fill="white"/>
<path d="M78.1406 48.1289C78.1406 49.1178 77.8474 50.0845 77.298 50.9068C76.7486 51.729 75.9677 52.3699 75.054 52.7483C74.1404 53.1267 73.1351 53.2258 72.1652 53.0328C71.1953 52.8399 70.3044 52.3637 69.6051 51.6644C68.9058 50.9652 68.4296 50.0743 68.2367 49.1044C68.0438 48.1345 68.1428 47.1291 68.5212 46.2155C68.8997 45.3019 69.5405 44.521 70.3628 43.9716C71.185 43.4222 72.1517 43.1289 73.1406 43.1289C74.4667 43.1289 75.7385 43.6557 76.6762 44.5934C77.6138 45.5311 78.1406 46.8028 78.1406 48.1289Z" fill="white"/>
<path d="M93.1895 48.1289C93.1895 49.1178 92.8962 50.0845 92.3468 50.9068C91.7974 51.729 91.0165 52.3699 90.1029 52.7483C89.1892 53.1267 88.1839 53.2258 87.214 53.0328C86.2441 52.8399 85.3532 52.3637 84.6539 51.6644C83.9547 50.9652 83.4785 50.0743 83.2855 49.1044C83.0926 48.1345 83.1916 47.1291 83.5701 46.2155C83.9485 45.3019 84.5894 44.521 85.4116 43.9716C86.2338 43.4222 87.2006 43.1289 88.1895 43.1289C89.5155 43.1289 90.7873 43.6557 91.725 44.5934C92.6627 45.5311 93.1895 46.8028 93.1895 48.1289Z" fill="white"/>
<path d="M162.061 261.79V58.4102" stroke="#263238" stroke-width="0.75" stroke-linecap="round" stroke-linejoin="round"/>
<path d="M155.801 246.58C154.749 246.58 153.739 246.166 152.99 245.427C152.241 244.687 151.814 243.683 151.801 242.63V137.85C151.814 136.798 152.241 135.794 152.99 135.054C153.739 134.315 154.749 133.9 155.801 133.9C156.844 133.913 157.842 134.334 158.58 135.072C159.317 135.81 159.738 136.807 159.751 137.85V242.63C159.738 243.674 159.317 244.671 158.58 245.409C157.842 246.147 156.844 246.567 155.801 246.58Z" fill="#7EA0FF"/>
<mask id="mask1_285_2759" style="mask-type:luminance" maskUnits="userSpaceOnUse" x="151" y="133" width="9" height="114">
<path d="M155.801 246.58C154.749 246.58 153.739 246.166 152.99 245.427C152.241 244.687 151.814 243.683 151.801 242.63V137.85C151.814 136.798 152.241 135.794 152.99 135.054C153.739 134.315 154.749 133.9 155.801 133.9C156.844 133.913 157.842 134.334 158.58 135.072C159.317 135.81 159.738 136.807 159.751 137.85V242.63C159.738 243.674 159.317 244.671 158.58 245.409C157.842 246.147 156.844 246.567 155.801 246.58Z" fill="white"/>
</mask>
<g mask="url(#mask1_285_2759)">
<path opacity="0.3" d="M155.801 246.58C154.749 246.58 153.739 246.166 152.99 245.427C152.241 244.687 151.814 243.683 151.801 242.63V137.85C151.814 136.798 152.241 135.794 152.99 135.054C153.739 134.315 154.749 133.9 155.801 133.9C156.844 133.913 157.842 134.334 158.58 135.072C159.317 135.81 159.738 136.807 159.751 137.85V242.63C159.738 243.674 159.317 244.671 158.58 245.409C157.842 246.147 156.844 246.567 155.801 246.58Z" fill="white"/>
</g>
<path d="M141.871 91.4102H53.0605V102.95H141.871V91.4102Z" fill="#7EA0FF"/>
<path d="M141.869 110.16H68.1094V121.7H141.869V110.16Z" fill="#7EA0FF"/>
<path d="M141.869 128.9H68.1094V140.44H141.869V128.9Z" fill="#7EA0FF"/>
<path d="M141.861 147.65H74.8105V159.19H141.861V147.65Z" fill="#7EA0FF"/>
<path d="M61.4004 119.309V112.549L64.7804 115.929L61.4004 119.309Z" fill="#263238" stroke="#263238" stroke-width="0.75" stroke-linecap="round" stroke-linejoin="round"/>
<path d="M61.4004 138.049V131.289L64.7804 134.669L61.4004 138.049Z" fill="#263238" stroke="#263238" stroke-width="0.75" stroke-linecap="round" stroke-linejoin="round"/>
<path d="M68.1094 156.799V150.039L71.4894 153.419L68.1094 156.799Z" fill="#263238" stroke="#263238" stroke-width="0.75" stroke-linecap="round" stroke-linejoin="round"/>
<path d="M141.871 174.469H53.0605V186.009H141.871V174.469Z" fill="#7EA0FF"/>
<path d="M141.869 193.219H68.1094V204.759H141.869V193.219Z" fill="#7EA0FF"/>
<path d="M141.87 211.969H74.8398V223.509H141.87V211.969Z" fill="#7EA0FF"/>
<path d="M141.87 230.719H74.8398V242.259H141.87V230.719Z" fill="#7EA0FF"/>
<path d="M61.4004 202.369V195.609L64.7804 198.989L61.4004 202.369Z" fill="#263238" stroke="#263238" stroke-width="0.75" stroke-linecap="round" stroke-linejoin="round"/>
<path d="M68.1309 221.119V214.359L71.5109 217.739L68.1309 221.119Z" fill="#263238" stroke="#263238" stroke-width="0.75" stroke-linecap="round" stroke-linejoin="round"/>
<path d="M68.1309 239.859V233.109L71.5109 236.489L68.1309 239.859Z" fill="#263238" stroke="#263238" stroke-width="0.75" stroke-linecap="round" stroke-linejoin="round"/>
<path d="M283.379 115.92L400.289 115.92V75.0599L283.379 75.0599V115.92Z" fill="white" stroke="#263238" stroke-width="0.75" stroke-linecap="round" stroke-linejoin="round"/>
<path d="M174.171 162.549H273.391V75.0588L174.171 75.0588V162.549Z" fill="white" stroke="#263238" stroke-width="0.75" stroke-linecap="round" stroke-linejoin="round"/>
<path d="M273.39 162.55L174.17 75.0703" stroke="#263238" stroke-width="0.5" stroke-linecap="round" stroke-linejoin="round"/>
<path d="M174.17 162.55L273.39 75.0703" stroke="#263238" stroke-width="0.5" stroke-linecap="round" stroke-linejoin="round"/>
<path d="M338.381 121.689H283.391V162.549H338.381V121.689Z" fill="#7EA0FF" stroke="#263238" stroke-width="0.75" stroke-miterlimit="10"/>
<path d="M400.291 121.689H345.301V162.549H400.291V121.689Z" fill="white" stroke="#263238" stroke-width="0.75" stroke-linecap="round" stroke-linejoin="round"/>
<path d="M400.291 162.549L345.301 121.689" stroke="#263238" stroke-width="0.5" stroke-linecap="round" stroke-linejoin="round"/>
<path d="M345.301 162.549L400.291 121.689" stroke="#263238" stroke-width="0.5" stroke-linecap="round" stroke-linejoin="round"/>
<path d="M400.301 168.32H283.391V245.09H400.301V168.32Z" fill="white" stroke="#263238" stroke-width="0.75" stroke-linecap="round" stroke-linejoin="round"/>
<path d="M272.709 168.32H223.779V203.82H272.709V168.32Z" fill="white" stroke="#263238" stroke-width="0.75" stroke-linecap="round" stroke-linejoin="round"/>
<path d="M272.709 209.59H223.779V245.09H272.709V209.59Z" stroke="#263238" stroke-width="0.75" stroke-linecap="round" stroke-linejoin="round"/>
<path d="M403.951 114.24H348.961V155.1H403.951V114.24Z" fill="#7EA0FF" stroke="#263238" stroke-width="0.75" stroke-linecap="round" stroke-linejoin="round"/>
<path d="M358.28 116.889H352.52V121.169H358.28V116.889Z" fill="#263238" stroke="#263238" stroke-linecap="round" stroke-linejoin="round"/>
<path d="M357.9 146.209L370.94 126.299L383.97 146.209H357.9Z" fill="#999999" stroke="#263238" stroke-width="0.75" stroke-linecap="round" stroke-linejoin="round"/>
<path d="M375.119 146.21L385.069 131.01L395.029 146.21H375.119Z" fill="#757575" stroke="#263238" stroke-width="0.75" stroke-linecap="round" stroke-linejoin="round"/>
<path d="M383.89 126.3C383.892 126.96 383.699 127.605 383.333 128.154C382.968 128.703 382.448 129.132 381.839 129.385C381.231 129.638 380.56 129.705 379.913 129.577C379.266 129.449 378.672 129.131 378.206 128.665C377.739 128.199 377.422 127.605 377.294 126.958C377.166 126.311 377.233 125.64 377.486 125.032C377.739 124.423 378.167 123.903 378.717 123.538C379.266 123.172 379.911 122.979 380.57 122.98C381.45 122.983 382.293 123.334 382.915 123.956C383.537 124.578 383.888 125.421 383.89 126.3Z" fill="white" stroke="#263238" stroke-width="0.75" stroke-linecap="round" stroke-linejoin="round"/>
<path d="M264.01 171.209H215.08V206.709H264.01V171.209Z" fill="#7EA0FF" stroke="#263238" stroke-width="0.75" stroke-linecap="round" stroke-linejoin="round"/>
<path d="M232.84 179.469L247.98 188.959L232.84 198.439L235.67 188.959L232.84 179.469Z" fill="#263238" stroke="#263238" stroke-width="0.75" stroke-linecap="round" stroke-linejoin="round"/>
<path d="M235.67 188.959L232.84 179.469L247.98 188.959H235.67Z" fill="white" stroke="#263238" stroke-width="0.75" stroke-linecap="round" stroke-linejoin="round"/>
<path d="M395.371 64.0801H373.561V105.33H404.201V72.9201L395.371 64.0801Z" fill="#7EA0FF" stroke="#263238" stroke-width="0.75" stroke-linecap="round" stroke-linejoin="round"/>
<path d="M404.199 72.9201H395.369V64.0801L404.199 72.9201Z" fill="#7EA0FF" stroke="#263238" stroke-width="0.75" stroke-linecap="round" stroke-linejoin="round"/>
<path d="M386.9 76.6191H390.69L393.58 94.3891H390.79L390.28 90.8591H387.11L386.6 94.3391H384L386.9 76.6191ZM390 88.4991L388.76 79.7091L387.54 88.4991H390Z" fill="#263238"/>
<path d="M355.33 67.8789H333.52V109.119H364.17V76.7189L355.33 67.8789Z" fill="#7EA0FF" stroke="#263238" stroke-width="0.75" stroke-linecap="round" stroke-linejoin="round"/>
<path d="M364.17 76.7189H355.33V67.8789L364.17 76.7189Z" fill="#7EA0FF" stroke="#263238" stroke-width="0.75" stroke-linecap="round" stroke-linejoin="round"/>
<path d="M346 94.4197L345.15 98.1797H344.15L347.86 81.1797H349.49L353.27 98.1797H352.16L351.31 94.4197H346ZM346.17 93.4197H351.12L348.62 82.4197L346.17 93.4197Z" fill="#263238"/>
<path d="M314.721 61.3594H288.551V110.849H325.331V71.9694L314.721 61.3594Z" fill="#7EA0FF" stroke="#263238" stroke-width="0.75" stroke-linecap="round" stroke-linejoin="round"/>
<path d="M325.331 71.9694H314.721V61.3594L325.331 71.9694Z" fill="#7EA0FF" stroke="#263238" stroke-width="0.75" stroke-linecap="round" stroke-linejoin="round"/>
<path d="M303.531 93.8L302.361 98.5H301.791L306.601 78.5H307.491L312.411 98.5H311.781L310.621 93.8H303.531ZM303.641 93.23H310.501L307.001 79.28L303.641 93.23Z" fill="#263238"/>
<path d="M280.311 213.719H231.381V249.219H280.311V213.719Z" fill="white" stroke="#263238" stroke-width="0.75" stroke-linecap="round" stroke-linejoin="round"/>
<path d="M262.819 222.441C260.963 220.584 258.445 219.541 255.819 219.541C253.194 219.541 250.676 220.584 248.819 222.441C246.963 224.297 245.92 226.815 245.92 229.441C245.92 232.066 246.963 234.584 248.819 236.441L255.819 243.441L262.819 236.441C263.742 235.523 264.474 234.433 264.974 233.231C265.474 232.03 265.731 230.742 265.731 229.441C265.731 228.139 265.474 226.851 264.974 225.65C264.474 224.448 263.742 223.358 262.819 222.441ZM259.089 232.671C258.448 233.313 257.63 233.75 256.739 233.927C255.849 234.104 254.926 234.014 254.087 233.666C253.248 233.319 252.531 232.731 252.027 231.976C251.522 231.221 251.253 230.333 251.253 229.426C251.253 228.518 251.522 227.63 252.027 226.875C252.531 226.12 253.248 225.532 254.087 225.185C254.926 224.837 255.849 224.747 256.739 224.924C257.63 225.101 258.448 225.538 259.089 226.181C259.95 227.041 260.433 228.208 260.433 229.426C260.433 230.643 259.95 231.81 259.089 232.671Z" fill="#7EA0FF" stroke="#263238" stroke-linecap="round" stroke-linejoin="round"/>
<path d="M168.02 156.289H267.24V68.7991L168.02 68.7991V156.289Z" fill="#7EA0FF" stroke="#263238" stroke-width="0.75" stroke-linecap="round" stroke-linejoin="round"/>
<path d="M172.581 80.4492H181.221V72.8292H172.581V80.4492Z" fill="#263238" stroke="#263238" stroke-linecap="round" stroke-linejoin="round"/>
<path d="M179.811 135.78L206.511 95.0098L233.201 135.78H179.811Z" fill="#999999" stroke="#263238" stroke-width="0.75" stroke-linecap="round" stroke-linejoin="round"/>
<path d="M226.23 101.819C229.991 101.819 233.04 98.7703 233.04 95.0092C233.04 91.2482 229.991 88.1992 226.23 88.1992C222.469 88.1992 219.42 91.2482 219.42 95.0092C219.42 98.7703 222.469 101.819 226.23 101.819Z" fill="white" stroke="#263238" stroke-width="0.75" stroke-linecap="round" stroke-linejoin="round"/>
<path d="M215.08 135.78L235.46 104.65L255.84 135.78H215.08Z" fill="#999999" stroke="#263238" stroke-width="0.75" stroke-linecap="round" stroke-linejoin="round"/>
<path d="M327.319 204.491C327.758 206.98 327.448 209.544 326.43 211.857C325.411 214.171 323.729 216.13 321.597 217.488C319.465 218.845 316.978 219.54 314.451 219.484C311.924 219.428 309.47 218.624 307.4 217.174C305.329 215.723 303.736 213.691 302.82 211.335C301.905 208.979 301.709 206.404 302.257 203.937C302.805 201.469 304.073 199.219 305.899 197.472C307.726 195.725 310.03 194.558 312.519 194.121C314.172 193.829 315.866 193.865 317.505 194.228C319.144 194.592 320.695 195.274 322.069 196.238C323.444 197.201 324.615 198.425 325.516 199.841C326.417 201.258 327.03 202.837 327.319 204.491Z" fill="#7EA0FF" stroke="#263238" stroke-linecap="round" stroke-linejoin="round"/>
<path d="M308.619 202.42L320.849 210.99" stroke="#263238" stroke-width="1.5" stroke-linecap="round" stroke-linejoin="round"/>
<path d="M319.021 200.59L310.461 212.82" stroke="#263238" stroke-width="1.5" stroke-linecap="round" stroke-linejoin="round"/>
<path d="M354.419 219.639C354.857 222.128 354.548 224.691 353.529 227.004C352.511 229.317 350.829 231.276 348.698 232.634C346.566 233.991 344.08 234.687 341.553 234.631C339.026 234.576 336.573 233.773 334.502 232.323C332.432 230.873 330.838 228.843 329.922 226.487C329.006 224.132 328.809 221.558 329.355 219.09C329.902 216.623 331.168 214.373 332.993 212.625C334.818 210.877 337.121 209.709 339.609 209.269C341.263 208.977 342.957 209.014 344.597 209.377C346.236 209.74 347.788 210.422 349.163 211.385C350.538 212.348 351.711 213.573 352.612 214.989C353.514 216.406 354.128 217.986 354.419 219.639Z" fill="white" stroke="#263238" stroke-linecap="round" stroke-linejoin="round"/>
<path d="M335.721 217.58L347.951 226.14" stroke="#263238" stroke-width="3" stroke-linecap="round" stroke-linejoin="round"/>
<path d="M346.121 215.74L337.551 227.97" stroke="#263238" stroke-width="3" stroke-linecap="round" stroke-linejoin="round"/>
<path d="M379.31 200.2C379.75 202.689 379.442 205.253 378.425 207.567C377.408 209.881 375.728 211.841 373.597 213.2C371.466 214.559 368.979 215.256 366.452 215.202C363.925 215.148 361.471 214.346 359.4 212.897C357.329 211.448 355.734 209.418 354.816 207.062C353.899 204.707 353.701 202.133 354.247 199.665C354.793 197.197 356.058 194.946 357.883 193.197C359.709 191.449 362.011 190.28 364.5 189.84C367.838 189.253 371.272 190.014 374.048 191.956C376.825 193.899 378.718 196.864 379.31 200.2Z" fill="#999999" stroke="#263238" stroke-width="0.75" stroke-linecap="round" stroke-linejoin="round"/>
<path d="M372.84 208.439C372.481 208.441 372.131 208.329 371.84 208.119L359.61 199.559C359.233 199.294 358.977 198.89 358.899 198.436C358.82 197.982 358.925 197.516 359.19 197.139C359.455 196.763 359.859 196.507 360.313 196.428C360.767 196.349 361.233 196.454 361.61 196.719L373.84 205.289C374.143 205.5 374.371 205.803 374.49 206.152C374.609 206.502 374.612 206.881 374.501 207.233C374.389 207.585 374.167 207.892 373.869 208.109C373.57 208.326 373.209 208.442 372.84 208.439Z" fill="white"/>
<path d="M362.441 210.269C362.083 210.272 361.733 210.164 361.441 209.959C361.253 209.83 361.093 209.665 360.97 209.473C360.846 209.282 360.762 209.068 360.722 208.844C360.682 208.619 360.687 208.389 360.737 208.167C360.786 207.945 360.879 207.735 361.011 207.549L369.581 195.319C369.712 195.133 369.879 194.975 370.071 194.853C370.264 194.732 370.478 194.65 370.702 194.611C370.927 194.572 371.156 194.578 371.378 194.629C371.6 194.679 371.81 194.772 371.996 194.904C372.182 195.035 372.34 195.202 372.461 195.394C372.583 195.586 372.665 195.801 372.703 196.025C372.742 196.249 372.736 196.479 372.686 196.701C372.635 196.923 372.542 197.133 372.411 197.319L363.851 209.549C363.689 209.771 363.477 209.952 363.232 210.077C362.987 210.202 362.716 210.268 362.441 210.269Z" fill="white"/>
<path d="M109.21 382.399H44.8204L37.9004 356.529H116.13L109.21 382.399Z" fill="#545454" stroke="#727272" stroke-width="0.75" stroke-linecap="round" stroke-linejoin="round"/>
<path d="M68.11 362.299C68.11 362.299 63.11 336.299 43.83 321.599C28.79 310.099 13 284.139 13 284.139" stroke="#263238" stroke-width="0.75" stroke-linecap="round" stroke-linejoin="round"/>
<path d="M46.7703 328.839C46.7703 328.839 26.8703 324.839 33.7703 336.919C40.6703 348.999 56.5503 343.839 56.5503 343.839C56.5503 343.839 70.1103 334.889 63.1903 324.079C56.2703 313.269 46.7703 328.839 46.7703 328.839Z" fill="#7EA0FF"/>
<path opacity="0.1" d="M63.2099 324.079C56.2799 313.269 46.7699 328.839 46.7699 328.839C46.7699 328.839 45.3199 336.629 56.5699 343.839C56.5699 343.839 70.1299 334.889 63.2099 324.079Z" fill="black"/>
<path d="M13.7803 284.219C13.7803 284.219 1.16031 272.589 0.860307 284.379C0.560307 296.169 14.3103 299.379 14.3103 299.379C14.3103 299.379 28.0003 298.819 27.7503 287.999C27.5003 277.179 13.7803 284.219 13.7803 284.219Z" fill="#7EA0FF"/>
<path opacity="0.1" d="M27.7495 288C27.4795 277.15 13.7495 284.24 13.7495 284.24C13.7495 284.24 9.29954 289.24 14.2795 299.38C14.3095 299.36 27.9995 298.82 27.7495 288Z" fill="black"/>
<path d="M29.7412 306.19C29.7412 306.19 24.7412 289.76 35.5212 294.64C46.3012 299.52 43.1412 313.27 43.1412 313.27C43.1412 313.27 36.6712 325.38 27.0012 320.4C17.3312 315.42 29.7412 306.19 29.7412 306.19Z" fill="#7EA0FF"/>
<path opacity="0.1" d="M27.0002 320.398C17.3502 315.398 29.7102 306.189 29.7102 306.189C29.7102 306.189 36.1502 304.368 43.1102 313.268C43.1402 313.268 36.6702 325.378 27.0002 320.398Z" fill="black"/>
<path d="M84.5508 362.3C84.5508 362.3 92.6308 339.3 112.811 326.56C132.991 313.82 141.871 298.27 141.871 298.27" stroke="#263238" stroke-width="0.75" stroke-linecap="round" stroke-linejoin="round"/>
<path d="M68.1309 295.1C68.1309 295.1 76.2209 305.48 77.7909 324.1C79.3609 342.72 80.7909 362.32 80.7909 362.32" stroke="#263238" stroke-width="0.75" stroke-linecap="round" stroke-linejoin="round"/>
<path d="M76.1311 310.56C76.1311 310.56 70.3311 297.83 84.4611 301.13C98.5911 304.43 93.7011 315.46 93.7011 315.46C93.7011 315.46 84.4211 325.37 71.7611 321.93C59.1011 318.49 76.1311 310.56 76.1311 310.56Z" fill="#7EA0FF"/>
<path opacity="0.1" d="M71.7611 321.93C59.1011 318.5 76.1311 310.56 76.1311 310.56C76.1311 310.56 84.8511 308.79 93.7011 315.46C93.7011 315.46 84.4211 325.37 71.7611 321.93Z" fill="black"/>
<path d="M131.311 312.759C131.311 312.759 125.511 300.039 139.641 303.329C153.771 306.619 148.881 317.659 148.881 317.659C148.881 317.659 139.601 327.569 126.941 324.139C114.281 320.709 131.311 312.759 131.311 312.759Z" fill="#7EA0FF"/>
<path opacity="0.1" d="M126.941 324.14C114.281 320.7 131.311 312.76 131.311 312.76C131.311 312.76 140.031 310.99 148.881 317.66C148.881 317.66 139.601 327.57 126.941 324.14Z" fill="black"/>
<path d="M99.5104 340.079C99.5104 340.079 96.6804 326.379 109.73 332.729C122.78 339.079 115.56 348.729 115.56 348.729C115.56 348.729 104.32 356.329 92.7304 350.179C81.1404 344.029 99.5104 340.079 99.5104 340.079Z" fill="#7EA0FF"/>
<path opacity="0.1" d="M92.7301 350.2C81.1501 344.05 99.5101 340.08 99.5101 340.08C99.5101 340.08 108.41 340.28 115.51 348.75C115.56 348.75 104.32 356.35 92.7301 350.2Z" fill="black"/>
<path d="M77.6201 332.499C77.6201 332.499 73.6201 323.819 83.3001 326.059C92.9801 328.299 89.5901 335.829 89.5901 335.829C89.5901 335.829 83.2701 342.589 74.5901 340.249C65.9101 337.909 77.6201 332.499 77.6201 332.499Z" fill="#7EA0FF"/>
<path opacity="0.1" d="M74.6403 340.25C66.0103 337.91 77.6403 332.5 77.6403 332.5C79.7615 332.225 81.9164 332.378 83.9775 332.95C86.0387 333.522 87.9642 334.501 89.6403 335.83C89.6403 335.83 83.2703 342.59 74.6403 340.25Z" fill="black"/>
<path d="M69.0007 294.36C69.0007 294.36 73.9507 281.09 62.4707 284.79C50.9907 288.49 54.7007 299.79 54.7007 299.79C54.7007 299.79 61.9907 309.79 72.2907 306.01C82.5907 302.23 69.0007 294.36 69.0007 294.36Z" fill="#7EA0FF"/>
<path opacity="0.1" d="M72.3302 305.999C82.6202 302.189 69.0402 294.358 69.0402 294.358C69.0402 294.358 62.0402 292.709 54.7402 299.779C54.7402 299.779 62.0002 309.819 72.3302 305.999Z" fill="black"/>
<path d="M141.1 293.269C141.1 293.269 135.47 284.999 144 285.599C152.53 286.199 151.86 294.599 151.86 294.599C151.86 294.599 148.54 302.719 140.86 301.829C133.18 300.939 141.1 293.269 141.1 293.269Z" fill="#7EA0FF"/>
<path opacity="0.1" d="M140.8 301.83C133.09 300.94 141.1 293.27 141.1 293.27C141.1 293.27 145.64 290.96 151.84 294.6C151.84 294.6 148.52 302.72 140.8 301.83Z" fill="black"/>
<path d="M115.831 322.16C115.831 322.16 135.951 319.41 125.431 310.26C114.911 301.11 101.631 311.26 101.631 311.26C101.631 311.26 91.7808 324.17 101.881 332.1C111.981 340.03 115.831 322.16 115.831 322.16Z" fill="#7EA0FF"/>
<path opacity="0.1" d="M101.881 332.069C111.981 339.999 115.881 322.159 115.881 322.159C115.881 322.159 114.681 314.329 101.681 311.229C101.631 311.229 91.7808 324.139 101.881 332.069Z" fill="black"/>
<path d="M64.3999 345.07C64.3999 345.07 59.3999 328.64 70.1699 333.51C80.9399 338.38 77.7899 352.14 77.7899 352.14C77.7899 352.14 71.3299 364.25 61.6799 359.28C52.0299 354.31 64.3999 345.07 64.3999 345.07Z" fill="#7EA0FF"/>
<path opacity="0.1" d="M61.6794 359.279C52.0394 354.279 64.3994 345.069 64.3994 345.069C64.3994 345.069 70.8394 343.239 77.7894 352.139C77.7894 352.139 71.3294 364.249 61.6794 359.279Z" fill="black"/>
<path d="M342.139 328.809C342.139 328.809 306.699 283.809 345.079 323.329C345.079 323.329 337.789 279.509 351.999 325.069C351.999 325.069 361.589 282.709 358.139 331.309C358.139 331.309 375.719 290.539 360.549 340.879C360.549 340.879 301.889 358.759 345.949 340.639C345.949 340.639 285.869 337.359 341.269 335.329C341.269 335.329 280.999 307.369 342.139 328.809Z" fill="#7EA0FF"/>
<path opacity="0.1" d="M342.139 328.809C342.139 328.809 306.699 283.809 345.079 323.329C345.079 323.329 337.789 279.509 351.999 325.069C351.999 325.069 361.589 282.709 358.139 331.309C358.139 331.309 375.719 290.539 360.549 340.879C360.549 340.879 301.889 358.759 345.949 340.639C345.949 340.639 285.869 337.359 341.269 335.329C341.269 335.329 280.999 307.369 342.139 328.809Z" fill="black"/>
<path d="M346.939 329.42C346.939 329.42 367.119 341.53 372.599 358.84" stroke="#263238" stroke-width="0.75" stroke-linecap="round" stroke-linejoin="round"/>
<path d="M412.138 354.57H346.138C345.849 354.515 345.551 354.525 345.267 354.598C344.982 354.672 344.716 354.807 344.49 354.995C344.263 355.183 344.081 355.418 343.956 355.684C343.831 355.95 343.766 356.241 343.766 356.535C343.766 356.829 343.831 357.12 343.956 357.386C344.081 357.652 344.263 357.888 344.49 358.075C344.716 358.263 344.982 358.398 345.267 358.472C345.551 358.545 345.849 358.555 346.138 358.5H347.558L352.128 375.56C352.651 377.524 353.807 379.261 355.419 380.5C357.03 381.738 359.006 382.41 361.038 382.41H397.208C399.241 382.41 401.216 381.738 402.827 380.5C404.439 379.261 405.596 377.524 406.118 375.56L410.688 358.5H412.108C412.397 358.555 412.695 358.545 412.98 358.472C413.265 358.398 413.53 358.263 413.756 358.075C413.983 357.888 414.165 357.652 414.291 357.386C414.416 357.12 414.481 356.829 414.481 356.535C414.481 356.241 414.416 355.95 414.291 355.684C414.165 355.418 413.983 355.183 413.756 354.995C413.53 354.807 413.265 354.672 412.98 354.598C412.695 354.525 412.397 354.515 412.108 354.57H412.138Z" fill="#545454" stroke="#727272" stroke-width="0.75" stroke-linecap="round" stroke-linejoin="round"/>
<path d="M363.139 316.05C363.139 316.05 341.759 251.72 368.609 311.13C368.609 311.13 378.089 259.43 375.609 315.85C375.609 315.85 403.299 272.54 379.949 325.26C379.949 325.26 415.889 286.93 378.779 336.87C378.779 336.87 306.309 333.23 362.629 330.75C362.629 330.75 297.069 302.98 359.549 322.95C359.549 323 303.689 267.63 363.139 316.05Z" fill="#7EA0FF"/>
<path d="M367.699 317.471C367.699 317.471 382.119 337.781 387.309 358.841" stroke="#263238" stroke-width="0.75" stroke-linecap="round" stroke-linejoin="round"/>
<path d="M398.84 319.06C398.84 319.06 449.27 279.34 404.98 322.34C404.98 322.34 454.08 314.17 402.98 330.1C402.98 330.1 450.45 340.85 395.98 336.99C395.98 336.99 441.67 356.69 385.26 339.68C385.26 339.68 365.26 273.95 385.52 323.32C385.52 323.32 389.2 256 391.52 318.08C391.54 318.08 422.87 250.53 398.84 319.06Z" fill="#7EA0FF"/>
<path opacity="0.3" d="M398.84 319.06C398.84 319.06 449.27 279.34 404.98 322.34C404.98 322.34 454.08 314.17 402.98 330.1C402.98 330.1 450.45 340.85 395.98 336.99C395.98 336.99 441.67 356.69 385.26 339.68C385.26 339.68 365.26 273.95 385.52 323.32C385.52 323.32 389.2 256 391.52 318.08C391.54 318.08 422.87 250.53 398.84 319.06Z" fill="white"/>
<path d="M375 361.72C384.07 331.44 400 324.08 400 324.08" stroke="#263238" stroke-width="0.75" stroke-linecap="round" stroke-linejoin="round"/>
<path d="M3.23047 382.41H453.14" stroke="#263238" stroke-linecap="round" stroke-linejoin="round"/>
</g>
<defs>
<clipPath id="clip0_285_2759">
<rect width="454" height="383" fill="white"/>
</clipPath>
</defs>
</svg>
