<svg width="400" height="401" viewBox="0 0 400 401" fill="none" xmlns="http://www.w3.org/2000/svg">
<path d="M384.909 205.312L385.053 208.873L382.442 206.522C383.64 216.197 384.694 224.798 385.843 234.238L380.095 237.598L383.448 239.311C379.16 239.681 375.879 239.949 372.238 240.285L373.028 243.813C370.034 243.947 367.136 244.082 364.261 244.216L364.213 246.064L371.974 246.534L372.477 247.24C371.256 248.147 370.058 249.692 368.789 249.827C363.351 250.431 357.866 251.406 352.452 250.834C329.361 248.382 306.366 249.86 283.298 252.346C258.147 255.067 232.948 256.848 207.725 257.923C194.527 258.461 181.352 257.218 168.154 259.502C146.5 263.298 124.798 266.658 103.096 269.749C87.4783 271.966 71.8127 273.478 56.171 275.124C49.1526 275.863 42.1343 276.401 35.0919 276.602C31.0677 276.737 28.1933 271.227 28.8161 265.549C28.888 264.911 28.7682 264.239 28.6963 263.567C26.9238 247.072 25.5584 230.475 23.211 214.181C22.3007 207.899 20.4324 201.986 21.3665 195.435C21.8217 192.277 22.4924 189.186 23.0193 186.364C22.5403 185.726 22.3486 185.289 22.2049 185.289C18.7077 185.591 15.6656 185.121 13.1744 180.653C11.9528 178.436 9.36583 177.663 7.40164 176.252L6.68303 177.159L8.62327 181.661C4.23977 183.072 0.0239535 179.376 0 173.598C0 172.086 0.790466 170.44 1.43721 169.062C2.49117 166.879 3.85652 164.997 4.83861 162.78C9.1742 152.97 13.4858 143.16 17.7017 133.249C19.8814 128.143 17.2705 117.661 13.941 115.578C14.0368 112.286 14.42 109.296 14.1565 106.44C13.2703 97.0667 13.2223 97.2011 19.067 93.5392C29.1035 87.2568 38.9245 80.2017 49.1766 74.6248C69.1059 63.807 89.682 56.2815 110.881 51.7125C124.319 48.8232 137.517 43.6831 150.955 40.7267C167.076 37.1655 183.34 34.8474 199.533 32.0254C209.402 30.312 219.247 28.4642 229.116 26.9188C239.104 25.3734 249.141 24.4327 259.105 22.6186C269.07 20.8044 278.915 17.9152 288.856 16.1346C297.503 14.5892 306.246 14.186 314.917 12.7414C321.48 11.6664 327.972 9.75141 334.487 8.17241C338.32 7.26533 342.128 6.29105 345.937 5.28318C347.206 4.94722 348.691 4.88003 349.674 3.87216C354.225 -0.764055 359.662 2.02439 364.525 0.0758378C364.932 -0.0921408 365.746 0.411795 365.986 0.949327C367.567 4.3425 369.579 4.10733 371.879 2.36035L374.058 24.9031C377.46 24.2312 380.43 22.7194 383.161 23.3577C385.46 23.8616 388.311 26.1797 389.413 28.901C391.233 33.302 393.748 34.0747 396.383 34.3435C397.629 42.6416 393.197 45.0269 389.508 48.6889C385.676 52.4852 382.322 57.2894 379.232 61.0857C381.029 65.1508 382.658 68.208 383.831 71.5676C387.233 81.2767 390.251 91.2211 393.772 100.829C397.365 110.639 396.982 117.426 391.88 125.825C388.478 131.469 385.221 137.247 381.46 143.698C385.724 147.83 390.155 152.735 395.018 156.565C397.724 158.715 397.868 161.067 396.91 164.124C395.473 168.794 393.724 173.262 392.095 177.797C391.952 178.2 391.712 178.738 391.425 178.872C387.52 180.687 388.838 184.113 389.652 186.767L398.18 185.155L400 190.396C396.359 190.496 392.814 190.194 389.365 190.866C387.041 191.336 384.694 192.781 382.706 194.562C382.011 195.2 381.891 198.257 382.274 199.87C382.753 201.919 383.999 203.599 384.909 205.413V205.312Z" fill="#727272"/>
<path d="M17.6533 65.6559C18.0605 62.4979 18.2522 59.2055 18.9708 56.1819C20.6954 48.9252 22.2045 41.467 24.6717 34.7142C27.3545 27.3904 32.8159 24.2996 38.2054 23.0229C47.739 20.8056 57.3443 18.9914 66.9736 18.2523C85.7053 16.7741 104.485 16.4046 123.217 15.1279C140.247 13.9857 157.278 12.0035 174.309 10.9284C191.987 9.78619 209.713 8.61034 227.39 8.71113C256.063 8.87911 284.735 9.88698 313.384 10.8949C328.139 11.3988 342.87 12.6418 357.602 13.6161C359.47 13.7505 361.363 14.2208 363.207 14.792C370.704 17.1437 373.124 21.3767 373.986 32.0602C375.16 46.5063 373.938 60.7509 372.142 74.8275C367.207 113.429 362.153 151.963 356.716 190.397C353.985 209.748 350.2 228.83 347.062 248.081C345.002 260.713 343.421 273.513 341.409 286.145C339.469 298.273 337.625 302.943 327.995 304.454C317.983 306 308.066 309.359 298.029 310.233C285.645 311.308 273.19 310.67 260.758 310.703C260.207 310.703 259.632 310.199 258.123 309.46C259.68 308.385 260.446 307.478 261.261 307.377C265.141 307.008 269.07 306.403 272.926 306.772C286.364 308.083 299.658 306.302 312.881 303.312C318.677 302.002 324.45 300.221 330.295 299.247C334.511 298.542 336.331 295.249 337.169 289.941C339.469 275.26 341.936 260.612 344.116 245.897C350.416 203.6 356.955 161.37 362.68 118.939C366.153 93.2716 368.788 67.3357 368.884 41.0974C368.884 38.0066 368.668 34.9158 368.381 31.825C367.734 24.9715 366.608 22.9893 361.674 22.3174C352.452 21.0744 343.206 20.0665 333.936 19.5626C309.503 18.2187 285.047 16.4381 260.614 16.203C233.523 15.9342 206.383 15.867 179.364 18.1851C145.565 21.108 111.791 22.7877 77.9444 23.2245C67.8599 23.3589 57.7755 25.0723 47.715 26.5169C44.4334 26.9872 41.1517 28.5662 38.0138 30.1788C34.0615 32.2281 32.241 36.562 32.0015 42.5084C31.3308 59.3063 33.0554 75.8018 34.6124 92.3309C36.4089 111.346 37.7503 130.462 39.4031 149.477C41.7985 176.858 43.9064 204.339 46.9724 231.585C49.0564 250.029 52.6255 268.137 55.4759 286.413C57.0329 296.425 62.3027 301.095 68.6264 302.607C76.8904 304.555 85.346 305.832 93.7058 305.832C116.989 305.832 140.295 304.723 163.578 304.622C176.633 304.555 189.712 305.63 202.766 306.168C203.389 306.168 204.084 306.302 204.635 306C208.395 303.95 210 307.176 211.102 311.274C218.767 339.931 235.008 356.461 253.26 370.134C255.272 371.646 257.524 372.452 259.943 372.99C257.308 368.521 254.602 364.12 252.063 359.551C244.996 346.785 239.774 332.708 237.595 316.717C236.972 312.114 237.02 307.31 236.78 302.607L237.882 302.439C238.696 306.033 239.631 309.595 240.301 313.256C245.38 341.712 257.26 362.978 274.914 378.264C276.16 379.339 277.573 380.045 278.938 380.817C282.436 382.766 283.466 387.637 281.262 392.307L284.088 395.768C283.346 399.866 280.927 400.001 278.843 400.034C274.842 400.034 270.77 400.202 266.866 399.161C251.967 395.196 237.355 389.183 225.235 376.114C217.905 368.185 211.437 358.14 206.024 347.591C201.257 338.285 198.502 326.93 194.766 316.549C194.406 315.541 193.305 314.365 192.562 314.365C172.321 314.298 152.081 314.466 131.84 314.432C113.084 314.432 94.3046 314.533 75.573 313.828C70.902 313.66 66.279 310.535 61.6559 308.721C60.7457 308.351 59.9313 307.377 59.0211 307.31C50.0145 306.369 45.3196 297.836 42.6129 287.421C39.7864 276.536 37.7743 265.114 36.1933 253.691C32.2171 225.336 28.0252 196.982 25.1747 168.358C22.1566 137.954 20.5996 107.281 18.3719 76.7089C18.2282 74.8275 17.9647 72.9798 17.7731 71.132V65.7903L17.6533 65.6559ZM54.5418 303.547L55.3562 302.371C54.4459 299.415 53.4399 296.526 52.6255 293.502C47.8348 275.864 45.9664 257.286 43.8585 238.842C41.9662 222.246 40.7685 205.481 39.3313 188.818C37.5827 168.761 35.8101 148.738 34.2292 128.682C33.3189 117.091 32.744 105.467 32.0973 93.8427C31.1871 77.6832 30.3726 61.49 29.5343 45.3305C29.4864 44.2554 29.5343 43.1804 29.5343 41.3998C26.3724 47.3126 23.6896 59.8774 24.025 68.8811C24.5998 84.3687 25.0789 99.8899 26.3964 115.277C28.8396 143.531 31.7859 171.718 34.6843 199.904C36.864 221.204 39.2354 242.47 41.6308 263.736C42.9003 275.025 43.1399 286.884 48.769 296.223C50.4457 298.978 52.6015 301.162 54.5418 303.614V303.547ZM251.176 383.068C230.313 367.01 211.845 347.222 203.221 313.324L198.886 314.13C209.114 348.532 225.498 373.124 251.176 383.068Z" fill="#FDFDFD"/>
<path d="M51.5482 180.523C52.2429 185.092 53.0573 189.661 53.6082 194.264C56.3868 217.445 59.0936 240.66 61.8722 263.841C62.1357 265.991 62.998 268.074 63.0459 270.19C63.0938 271.534 62.1836 272.945 61.7045 274.323C60.8422 273.617 59.381 273.113 59.1894 272.139C57.8719 265.655 56.4826 259.137 55.7401 252.486C53.704 234.008 51.9554 215.463 50.135 196.952C49.7996 193.458 49.5361 189.897 49.4882 186.369C49.4643 184.488 49.9194 182.573 50.1829 180.658L51.5482 180.523Z" fill="#FDFDFD"/>
<path d="M65.1532 205.783C66.9018 223.69 70.4709 241.26 69.7044 259.671C63.0453 242.739 64.195 224.16 63.165 206.018L65.1292 205.783H65.1532Z" fill="#FDFDFD"/>
<path d="M348.764 54.668C351.974 59.0354 351.255 63.3021 350.968 67.3C350.56 72.8433 349.986 78.3866 349.267 83.8627C349.099 85.1729 347.997 86.248 347.303 87.4574C346.56 86.2816 345.267 85.1729 345.195 83.9634C345.051 80.9398 345.41 77.8154 345.698 74.7918C346.153 69.9876 346.656 65.1834 347.255 60.4128C347.47 58.6995 348.093 57.0869 348.74 54.668H348.764Z" fill="#FDFDFD"/>
<path d="M135.503 111.541C134.491 111.541 133.596 111.365 132.819 111.013C132.056 110.661 131.455 110.169 131.015 109.539C130.575 108.908 130.34 108.204 130.311 107.427H131.939C132.012 108.175 132.342 108.835 132.929 109.407C133.516 109.964 134.374 110.243 135.503 110.243C136.544 110.243 137.366 109.979 137.967 109.451C138.583 108.908 138.891 108.226 138.891 107.405C138.891 106.745 138.722 106.217 138.385 105.821C138.048 105.41 137.63 105.109 137.131 104.919C136.632 104.713 135.943 104.493 135.063 104.259C134.036 103.98 133.222 103.709 132.621 103.445C132.02 103.181 131.506 102.77 131.081 102.213C130.656 101.655 130.443 100.9 130.443 99.9467C130.443 99.1547 130.648 98.4507 131.059 97.8347C131.47 97.2041 132.049 96.7127 132.797 96.3607C133.545 96.0087 134.403 95.8327 135.371 95.8327C136.794 95.8327 137.938 96.1847 138.803 96.8887C139.683 97.5781 140.189 98.4727 140.321 99.5727H138.649C138.546 98.9421 138.202 98.3847 137.615 97.9007C137.028 97.4021 136.236 97.1527 135.239 97.1527C134.315 97.1527 133.545 97.4021 132.929 97.9007C132.313 98.3847 132.005 99.0521 132.005 99.9027C132.005 100.548 132.174 101.069 132.511 101.465C132.848 101.861 133.266 102.161 133.765 102.367C134.278 102.572 134.968 102.792 135.833 103.027C136.83 103.305 137.637 103.584 138.253 103.863C138.869 104.127 139.39 104.537 139.815 105.095C140.24 105.652 140.453 106.4 140.453 107.339C140.453 108.057 140.262 108.739 139.881 109.385C139.5 110.03 138.935 110.551 138.187 110.947C137.439 111.343 136.544 111.541 135.503 111.541ZM148.687 111.563C147.558 111.563 146.538 111.313 145.629 110.815C144.734 110.301 144.023 109.583 143.495 108.659C142.982 107.72 142.725 106.627 142.725 105.381C142.725 104.134 142.989 103.049 143.517 102.125C144.045 101.186 144.764 100.467 145.673 99.9687C146.582 99.4554 147.602 99.1987 148.731 99.1987C149.86 99.1987 150.88 99.4554 151.789 99.9687C152.713 100.467 153.432 101.186 153.945 102.125C154.473 103.049 154.737 104.134 154.737 105.381C154.737 106.613 154.473 107.698 153.945 108.637C153.417 109.575 152.691 110.301 151.767 110.815C150.843 111.313 149.816 111.563 148.687 111.563ZM148.687 110.221C149.479 110.221 150.212 110.045 150.887 109.693C151.562 109.326 152.104 108.783 152.515 108.065C152.94 107.331 153.153 106.437 153.153 105.381C153.153 104.325 152.948 103.437 152.537 102.719C152.126 101.985 151.584 101.443 150.909 101.091C150.234 100.724 149.501 100.541 148.709 100.541C147.917 100.541 147.184 100.724 146.509 101.091C145.834 101.443 145.292 101.985 144.881 102.719C144.485 103.437 144.287 104.325 144.287 105.381C144.287 106.437 144.485 107.331 144.881 108.065C145.292 108.783 145.827 109.326 146.487 109.693C147.162 110.045 147.895 110.221 148.687 110.221ZM157.808 111.497C157.486 111.497 157.214 111.387 156.994 111.167C156.789 110.947 156.686 110.675 156.686 110.353C156.686 110.03 156.789 109.766 156.994 109.561C157.214 109.341 157.486 109.231 157.808 109.231C158.116 109.231 158.373 109.341 158.578 109.561C158.798 109.766 158.908 110.03 158.908 110.353C158.908 110.675 158.798 110.947 158.578 111.167C158.373 111.387 158.116 111.497 157.808 111.497ZM161.804 111.497C161.482 111.497 161.21 111.387 160.99 111.167C160.785 110.947 160.682 110.675 160.682 110.353C160.682 110.03 160.785 109.766 160.99 109.561C161.21 109.341 161.482 109.231 161.804 109.231C162.112 109.231 162.369 109.341 162.574 109.561C162.794 109.766 162.904 110.03 162.904 110.353C162.904 110.675 162.794 110.947 162.574 111.167C162.369 111.387 162.112 111.497 161.804 111.497ZM165.8 111.497C165.478 111.497 165.206 111.387 164.986 111.167C164.781 110.947 164.678 110.675 164.678 110.353C164.678 110.03 164.781 109.766 164.986 109.561C165.206 109.341 165.478 109.231 165.8 109.231C166.108 109.231 166.365 109.341 166.57 109.561C166.79 109.766 166.9 110.03 166.9 110.353C166.9 110.675 166.79 110.947 166.57 111.167C166.365 111.387 166.108 111.497 165.8 111.497ZM177.572 100.673V108.131C177.572 108.864 177.711 109.37 177.99 109.649C178.268 109.927 178.76 110.067 179.464 110.067H180.872V111.387H179.222C178.136 111.387 177.33 111.137 176.802 110.639C176.274 110.125 176.01 109.289 176.01 108.131V100.673H174.338V99.3747H176.01V96.3607H177.572V99.3747H180.872V100.673H177.572ZM189.131 99.1547C190.041 99.1547 190.855 99.3454 191.573 99.7267C192.307 100.108 192.879 100.695 193.289 101.487C193.715 102.264 193.927 103.217 193.927 104.347V111.387H192.409V104.523C192.409 103.217 192.079 102.22 191.419 101.531C190.774 100.841 189.887 100.497 188.757 100.497C187.599 100.497 186.675 100.863 185.985 101.597C185.296 102.33 184.951 103.408 184.951 104.831V111.387H183.411V95.1067H184.951V101.421C185.333 100.702 185.89 100.145 186.623 99.7487C187.371 99.3527 188.207 99.1547 189.131 99.1547ZM196.629 105.359C196.629 104.127 196.871 103.049 197.355 102.125C197.854 101.186 198.536 100.467 199.401 99.9687C200.281 99.4554 201.271 99.1987 202.371 99.1987C203.515 99.1987 204.498 99.4627 205.319 99.9907C206.155 100.519 206.757 101.193 207.123 102.015V99.3747H208.663V111.387H207.123V108.725C206.742 109.546 206.133 110.228 205.297 110.771C204.476 111.299 203.493 111.563 202.349 111.563C201.264 111.563 200.281 111.306 199.401 110.793C198.536 110.279 197.854 109.553 197.355 108.615C196.871 107.676 196.629 106.591 196.629 105.359ZM207.123 105.381C207.123 104.413 206.925 103.562 206.529 102.829C206.133 102.095 205.591 101.531 204.901 101.135C204.227 100.739 203.479 100.541 202.657 100.541C201.807 100.541 201.044 100.731 200.369 101.113C199.695 101.494 199.159 102.051 198.763 102.785C198.382 103.503 198.191 104.361 198.191 105.359C198.191 106.341 198.382 107.207 198.763 107.955C199.159 108.688 199.695 109.253 200.369 109.649C201.044 110.03 201.807 110.221 202.657 110.221C203.479 110.221 204.227 110.023 204.901 109.627C205.591 109.231 206.133 108.666 206.529 107.933C206.925 107.199 207.123 106.349 207.123 105.381ZM214.181 100.673V108.131C214.181 108.864 214.32 109.37 214.599 109.649C214.878 109.927 215.369 110.067 216.073 110.067H217.481V111.387H215.831C214.746 111.387 213.939 111.137 213.411 110.639C212.883 110.125 212.619 109.289 212.619 108.131V100.673H210.947V99.3747H212.619V96.3607H214.181V99.3747H217.481V100.673H214.181ZM220.681 93.8967L220.417 98.1427H219.339L219.075 93.8967H220.681ZM227.401 111.563C226.022 111.563 224.893 111.247 224.013 110.617C223.148 109.971 222.664 109.099 222.561 107.999H224.145C224.218 108.673 224.534 109.223 225.091 109.649C225.663 110.059 226.426 110.265 227.379 110.265C228.215 110.265 228.868 110.067 229.337 109.671C229.821 109.275 230.063 108.783 230.063 108.197C230.063 107.786 229.931 107.449 229.667 107.185C229.403 106.921 229.066 106.715 228.655 106.569C228.259 106.407 227.716 106.239 227.027 106.063C226.132 105.828 225.406 105.593 224.849 105.359C224.292 105.124 223.815 104.779 223.419 104.325C223.038 103.855 222.847 103.232 222.847 102.455C222.847 101.868 223.023 101.325 223.375 100.827C223.727 100.328 224.226 99.9321 224.871 99.6387C225.516 99.3454 226.25 99.1987 227.071 99.1987C228.362 99.1987 229.403 99.5287 230.195 100.189C230.987 100.834 231.412 101.729 231.471 102.873H229.931C229.887 102.169 229.608 101.604 229.095 101.179C228.596 100.739 227.907 100.519 227.027 100.519C226.25 100.519 225.619 100.702 225.135 101.069C224.651 101.435 224.409 101.89 224.409 102.433C224.409 102.902 224.548 103.291 224.827 103.599C225.12 103.892 225.48 104.127 225.905 104.303C226.33 104.464 226.902 104.647 227.621 104.853C228.486 105.087 229.176 105.315 229.689 105.535C230.202 105.755 230.642 106.077 231.009 106.503C231.376 106.928 231.566 107.493 231.581 108.197C231.581 108.842 231.405 109.421 231.053 109.935C230.701 110.433 230.21 110.829 229.579 111.123C228.948 111.416 228.222 111.563 227.401 111.563ZM241.287 97.1087C240.979 97.1087 240.715 96.9987 240.495 96.7787C240.275 96.5587 240.165 96.2874 240.165 95.9647C240.165 95.6421 240.275 95.3781 240.495 95.1727C240.715 94.9527 240.979 94.8427 241.287 94.8427C241.595 94.8427 241.859 94.9527 242.079 95.1727C242.299 95.3781 242.409 95.6421 242.409 95.9647C242.409 96.2874 242.299 96.5587 242.079 96.7787C241.859 96.9987 241.595 97.1087 241.287 97.1087ZM242.057 99.3747V111.387H240.517V99.3747H242.057ZM247.546 100.673V108.131C247.546 108.864 247.686 109.37 247.964 109.649C248.243 109.927 248.734 110.067 249.438 110.067H250.846V111.387H249.196C248.111 111.387 247.304 111.137 246.776 110.639C246.248 110.125 245.984 109.289 245.984 108.131V100.673H244.312V99.3747H245.984V96.3607H247.546V99.3747H250.846V100.673H247.546ZM257.104 95.8107C258.043 95.8107 258.871 95.9941 259.59 96.3607C260.323 96.7274 260.888 97.2554 261.284 97.9447C261.695 98.6194 261.9 99.4041 261.9 100.299C261.9 101.883 261.409 103.049 260.426 103.797C259.458 104.53 258.131 104.897 256.444 104.897L256.378 107.317H255.058L254.97 103.797H255.542C257.053 103.797 258.241 103.562 259.106 103.093C259.986 102.609 260.426 101.677 260.426 100.299C260.426 99.3307 260.118 98.5607 259.502 97.9887C258.901 97.4167 258.101 97.1307 257.104 97.1307C256.107 97.1307 255.315 97.4021 254.728 97.9447C254.141 98.4874 253.848 99.2281 253.848 100.167H252.374C252.374 99.2867 252.572 98.5241 252.968 97.8787C253.379 97.2187 253.936 96.7127 254.64 96.3607C255.359 95.9941 256.18 95.8107 257.104 95.8107ZM255.718 111.497C255.395 111.497 255.124 111.387 254.904 111.167C254.699 110.947 254.596 110.675 254.596 110.353C254.596 110.03 254.699 109.766 254.904 109.561C255.124 109.341 255.395 109.231 255.718 109.231C256.026 109.231 256.283 109.341 256.488 109.561C256.708 109.766 256.818 110.03 256.818 110.353C256.818 110.675 256.708 110.947 256.488 111.167C256.283 111.387 256.026 111.497 255.718 111.497ZM104.707 129.009V144.387H103.167V129.009H104.707ZM130.072 132.375L126.31 144.387H124.77L121.448 134.311L118.126 144.387H116.564L112.802 132.375H114.364L117.356 142.825L120.722 132.375H122.262L125.584 142.847L128.554 132.375H130.072ZM131.467 138.359C131.467 137.127 131.709 136.049 132.193 135.125C132.692 134.186 133.374 133.467 134.239 132.969C135.119 132.455 136.109 132.199 137.209 132.199C138.353 132.199 139.336 132.463 140.157 132.991C140.993 133.519 141.594 134.193 141.961 135.015V132.375H143.501V144.387H141.961V141.725C141.58 142.546 140.971 143.228 140.135 143.771C139.314 144.299 138.331 144.563 137.187 144.563C136.102 144.563 135.119 144.306 134.239 143.793C133.374 143.279 132.692 142.553 132.193 141.615C131.709 140.676 131.467 139.591 131.467 138.359ZM141.961 138.381C141.961 137.413 141.763 136.562 141.367 135.829C140.971 135.095 140.428 134.531 139.739 134.135C139.064 133.739 138.316 133.541 137.495 133.541C136.644 133.541 135.882 133.731 135.207 134.113C134.532 134.494 133.997 135.051 133.601 135.785C133.22 136.503 133.029 137.361 133.029 138.359C133.029 139.341 133.22 140.207 133.601 140.955C133.997 141.688 134.532 142.253 135.207 142.649C135.882 143.03 136.644 143.221 137.495 143.221C138.316 143.221 139.064 143.023 139.739 142.627C140.428 142.231 140.971 141.666 141.367 140.933C141.763 140.199 141.961 139.349 141.961 138.381ZM151.153 144.563C149.774 144.563 148.645 144.247 147.765 143.617C146.9 142.971 146.416 142.099 146.313 140.999H147.897C147.97 141.673 148.286 142.223 148.843 142.649C149.415 143.059 150.178 143.265 151.131 143.265C151.967 143.265 152.62 143.067 153.089 142.671C153.573 142.275 153.815 141.783 153.815 141.197C153.815 140.786 153.683 140.449 153.419 140.185C153.155 139.921 152.818 139.715 152.407 139.569C152.011 139.407 151.468 139.239 150.779 139.063C149.884 138.828 149.158 138.593 148.601 138.359C148.044 138.124 147.567 137.779 147.171 137.325C146.79 136.855 146.599 136.232 146.599 135.455C146.599 134.868 146.775 134.325 147.127 133.827C147.479 133.328 147.978 132.932 148.623 132.639C149.268 132.345 150.002 132.199 150.823 132.199C152.114 132.199 153.155 132.529 153.947 133.189C154.739 133.834 155.164 134.729 155.223 135.873H153.683C153.639 135.169 153.36 134.604 152.847 134.179C152.348 133.739 151.659 133.519 150.779 133.519C150.002 133.519 149.371 133.702 148.887 134.069C148.403 134.435 148.161 134.89 148.161 135.433C148.161 135.902 148.3 136.291 148.579 136.599C148.872 136.892 149.232 137.127 149.657 137.303C150.082 137.464 150.654 137.647 151.373 137.853C152.238 138.087 152.928 138.315 153.441 138.535C153.954 138.755 154.394 139.077 154.761 139.503C155.128 139.928 155.318 140.493 155.333 141.197C155.333 141.842 155.157 142.421 154.805 142.935C154.453 143.433 153.962 143.829 153.331 144.123C152.7 144.416 151.974 144.563 151.153 144.563ZM163.565 138.359C163.565 137.127 163.807 136.049 164.291 135.125C164.789 134.186 165.471 133.467 166.337 132.969C167.217 132.455 168.207 132.199 169.307 132.199C170.451 132.199 171.433 132.463 172.255 132.991C173.091 133.519 173.692 134.193 174.059 135.015V132.375H175.599V144.387H174.059V141.725C173.677 142.546 173.069 143.228 172.233 143.771C171.411 144.299 170.429 144.563 169.285 144.563C168.199 144.563 167.217 144.306 166.337 143.793C165.471 143.279 164.789 142.553 164.291 141.615C163.807 140.676 163.565 139.591 163.565 138.359ZM174.059 138.381C174.059 137.413 173.861 136.562 173.465 135.829C173.069 135.095 172.526 134.531 171.837 134.135C171.162 133.739 170.414 133.541 169.593 133.541C168.742 133.541 167.979 133.731 167.305 134.113C166.63 134.494 166.095 135.051 165.699 135.785C165.317 136.503 165.127 137.361 165.127 138.359C165.127 139.341 165.317 140.207 165.699 140.955C166.095 141.688 166.63 142.253 167.305 142.649C167.979 143.03 168.742 143.221 169.593 143.221C170.414 143.221 171.162 143.023 171.837 142.627C172.526 142.231 173.069 141.666 173.465 140.933C173.861 140.199 174.059 139.349 174.059 138.381ZM183.844 133.673H181.05V144.387H179.51V133.673H177.838V132.375H179.51V131.539C179.51 130.233 179.84 129.273 180.5 128.657C181.175 128.041 182.26 127.733 183.756 127.733V129.053C182.759 129.053 182.055 129.243 181.644 129.625C181.248 130.006 181.05 130.644 181.05 131.539V132.375H183.844V133.673ZM187.809 134.509C188.146 133.761 188.659 133.181 189.349 132.771C190.053 132.36 190.911 132.155 191.923 132.155V133.761H191.505C190.39 133.761 189.495 134.061 188.821 134.663C188.146 135.264 187.809 136.269 187.809 137.677V144.387H186.269V132.375H187.809V134.509ZM193.535 138.359C193.535 137.127 193.777 136.049 194.261 135.125C194.76 134.186 195.442 133.467 196.307 132.969C197.187 132.455 198.177 132.199 199.277 132.199C200.421 132.199 201.404 132.463 202.225 132.991C203.061 133.519 203.663 134.193 204.029 135.015V132.375H205.569V144.387H204.029V141.725C203.648 142.546 203.039 143.228 202.203 143.771C201.382 144.299 200.399 144.563 199.255 144.563C198.17 144.563 197.187 144.306 196.307 143.793C195.442 143.279 194.76 142.553 194.261 141.615C193.777 140.676 193.535 139.591 193.535 138.359ZM204.029 138.381C204.029 137.413 203.831 136.562 203.435 135.829C203.039 135.095 202.497 134.531 201.807 134.135C201.133 133.739 200.385 133.541 199.563 133.541C198.713 133.541 197.95 133.731 197.275 134.113C196.601 134.494 196.065 135.051 195.669 135.785C195.288 136.503 195.097 137.361 195.097 138.359C195.097 139.341 195.288 140.207 195.669 140.955C196.065 141.688 196.601 142.253 197.275 142.649C197.95 143.03 198.713 143.221 199.563 143.221C200.385 143.221 201.133 143.023 201.807 142.627C202.497 142.231 203.039 141.666 203.435 140.933C203.831 140.199 204.029 139.349 204.029 138.381ZM209.855 130.109C209.547 130.109 209.283 129.999 209.063 129.779C208.843 129.559 208.733 129.287 208.733 128.965C208.733 128.642 208.843 128.378 209.063 128.173C209.283 127.953 209.547 127.843 209.855 127.843C210.163 127.843 210.427 127.953 210.647 128.173C210.867 128.378 210.977 128.642 210.977 128.965C210.977 129.287 210.867 129.559 210.647 129.779C210.427 129.999 210.163 130.109 209.855 130.109ZM210.625 132.375V144.387H209.085V132.375H210.625ZM213.409 138.359C213.409 137.127 213.658 136.049 214.157 135.125C214.655 134.186 215.337 133.467 216.203 132.969C217.083 132.455 218.073 132.199 219.173 132.199C220.229 132.199 221.182 132.455 222.033 132.969C222.883 133.482 223.507 134.149 223.903 134.971V128.107H225.443V144.387H223.903V141.703C223.536 142.539 222.935 143.228 222.099 143.771C221.263 144.299 220.28 144.563 219.151 144.563C218.051 144.563 217.061 144.306 216.181 143.793C215.315 143.279 214.633 142.553 214.135 141.615C213.651 140.676 213.409 139.591 213.409 138.359ZM223.903 138.381C223.903 137.413 223.705 136.562 223.309 135.829C222.913 135.095 222.37 134.531 221.681 134.135C221.006 133.739 220.258 133.541 219.437 133.541C218.586 133.541 217.823 133.731 217.149 134.113C216.474 134.494 215.939 135.051 215.543 135.785C215.161 136.503 214.971 137.361 214.971 138.359C214.971 139.341 215.161 140.207 215.543 140.955C215.939 141.688 216.474 142.253 217.149 142.649C217.823 143.03 218.586 143.221 219.437 143.221C220.258 143.221 221.006 143.023 221.681 142.627C222.37 142.231 222.913 141.666 223.309 140.933C223.705 140.199 223.903 139.349 223.903 138.381ZM236.997 133.673V141.131C236.997 141.864 237.137 142.37 237.415 142.649C237.694 142.927 238.185 143.067 238.889 143.067H240.297V144.387H238.647C237.562 144.387 236.755 144.137 236.227 143.639C235.699 143.125 235.435 142.289 235.435 141.131V133.673H233.763V132.375H235.435V129.361H236.997V132.375H240.297V133.673H236.997ZM248.557 132.155C249.466 132.155 250.28 132.345 250.999 132.727C251.732 133.108 252.304 133.695 252.715 134.487C253.14 135.264 253.353 136.217 253.353 137.347V144.387H251.835V137.523C251.835 136.217 251.505 135.22 250.845 134.531C250.2 133.841 249.312 133.497 248.183 133.497C247.024 133.497 246.1 133.863 245.411 134.597C244.722 135.33 244.377 136.408 244.377 137.831V144.387H242.837V128.107H244.377V134.421C244.758 133.702 245.316 133.145 246.049 132.749C246.797 132.353 247.633 132.155 248.557 132.155ZM256.055 138.359C256.055 137.127 256.297 136.049 256.781 135.125C257.28 134.186 257.962 133.467 258.827 132.969C259.707 132.455 260.697 132.199 261.797 132.199C262.941 132.199 263.924 132.463 264.745 132.991C265.581 133.519 266.182 134.193 266.549 135.015V132.375H268.089V144.387H266.549V141.725C266.168 142.546 265.559 143.228 264.723 143.771C263.902 144.299 262.919 144.563 261.775 144.563C260.69 144.563 259.707 144.306 258.827 143.793C257.962 143.279 257.28 142.553 256.781 141.615C256.297 140.676 256.055 139.591 256.055 138.359ZM266.549 138.381C266.549 137.413 266.351 136.562 265.955 135.829C265.559 135.095 265.016 134.531 264.327 134.135C263.652 133.739 262.904 133.541 262.083 133.541C261.232 133.541 260.47 133.731 259.795 134.113C259.12 134.494 258.585 135.051 258.189 135.785C257.808 136.503 257.617 137.361 257.617 138.359C257.617 139.341 257.808 140.207 258.189 140.955C258.585 141.688 259.12 142.253 259.795 142.649C260.47 143.03 261.232 143.221 262.083 143.221C262.904 143.221 263.652 143.023 264.327 142.627C265.016 142.231 265.559 141.666 265.955 140.933C266.351 140.199 266.549 139.349 266.549 138.381ZM273.607 133.673V141.131C273.607 141.864 273.746 142.37 274.025 142.649C274.303 142.927 274.795 143.067 275.499 143.067H276.907V144.387H275.257C274.171 144.387 273.365 144.137 272.837 143.639C272.309 143.125 272.045 142.289 272.045 141.131V133.673H270.373V132.375H272.045V129.361H273.607V132.375H276.907V133.673H273.607ZM286.254 130.109C285.946 130.109 285.682 129.999 285.462 129.779C285.242 129.559 285.132 129.287 285.132 128.965C285.132 128.642 285.242 128.378 285.462 128.173C285.682 127.953 285.946 127.843 286.254 127.843C286.562 127.843 286.826 127.953 287.046 128.173C287.266 128.378 287.376 128.642 287.376 128.965C287.376 129.287 287.266 129.559 287.046 129.779C286.826 129.999 286.562 130.109 286.254 130.109ZM287.024 132.375V144.387H285.484V132.375H287.024ZM292.513 133.673V141.131C292.513 141.864 292.652 142.37 292.931 142.649C293.21 142.927 293.701 143.067 294.405 143.067H295.813V144.387H294.163C293.078 144.387 292.271 144.137 291.743 143.639C291.215 143.125 290.951 142.289 290.951 141.131V133.673H289.279V132.375H290.951V129.361H292.513V132.375H295.813V133.673H292.513ZM108.834 165.375L105.072 177.387H103.532L100.21 167.311L96.8884 177.387H95.3264L91.5644 165.375H93.1264L96.1184 175.825L99.4844 165.375H101.024L104.346 175.847L107.316 165.375H108.834ZM116.192 177.563C115.062 177.563 114.043 177.313 113.134 176.815C112.239 176.301 111.528 175.583 111 174.659C110.486 173.72 110.23 172.627 110.23 171.381C110.23 170.134 110.494 169.049 111.022 168.125C111.55 167.186 112.268 166.467 113.178 165.969C114.087 165.455 115.106 165.199 116.236 165.199C117.365 165.199 118.384 165.455 119.294 165.969C120.218 166.467 120.936 167.186 121.45 168.125C121.978 169.049 122.242 170.134 122.242 171.381C122.242 172.613 121.978 173.698 121.45 174.637C120.922 175.575 120.196 176.301 119.272 176.815C118.348 177.313 117.321 177.563 116.192 177.563ZM116.192 176.221C116.984 176.221 117.717 176.045 118.392 175.693C119.066 175.326 119.609 174.783 120.02 174.065C120.445 173.331 120.658 172.437 120.658 171.381C120.658 170.325 120.452 169.437 120.042 168.719C119.631 167.985 119.088 167.443 118.414 167.091C117.739 166.724 117.006 166.541 116.214 166.541C115.422 166.541 114.688 166.724 114.014 167.091C113.339 167.443 112.796 167.985 112.386 168.719C111.99 169.437 111.792 170.325 111.792 171.381C111.792 172.437 111.99 173.331 112.386 174.065C112.796 174.783 113.332 175.326 113.992 175.693C114.666 176.045 115.4 176.221 116.192 176.221ZM135.455 165.375V177.387H133.915V175.275C133.563 176.023 133.02 176.595 132.287 176.991C131.554 177.387 130.732 177.585 129.823 177.585C128.386 177.585 127.212 177.145 126.303 176.265C125.394 175.37 124.939 174.079 124.939 172.393V165.375H126.457V172.217C126.457 173.522 126.78 174.519 127.425 175.209C128.085 175.898 128.98 176.243 130.109 176.243C131.268 176.243 132.192 175.876 132.881 175.143C133.57 174.409 133.915 173.331 133.915 171.909V165.375H135.455ZM140.511 161.107V177.387H138.971V161.107H140.511ZM143.294 171.359C143.294 170.127 143.544 169.049 144.042 168.125C144.541 167.186 145.223 166.467 146.088 165.969C146.968 165.455 147.958 165.199 149.058 165.199C150.114 165.199 151.068 165.455 151.918 165.969C152.769 166.482 153.392 167.149 153.788 167.971V161.107H155.328V177.387H153.788V174.703C153.422 175.539 152.82 176.228 151.984 176.771C151.148 177.299 150.166 177.563 149.036 177.563C147.936 177.563 146.946 177.306 146.066 176.793C145.201 176.279 144.519 175.553 144.02 174.615C143.536 173.676 143.294 172.591 143.294 171.359ZM153.788 171.381C153.788 170.413 153.59 169.562 153.194 168.829C152.798 168.095 152.256 167.531 151.566 167.135C150.892 166.739 150.144 166.541 149.322 166.541C148.472 166.541 147.709 166.731 147.034 167.113C146.36 167.494 145.824 168.051 145.428 168.785C145.047 169.503 144.856 170.361 144.856 171.359C144.856 172.341 145.047 173.207 145.428 173.955C145.824 174.688 146.36 175.253 147.034 175.649C147.709 176.03 148.472 176.221 149.322 176.221C150.144 176.221 150.892 176.023 151.566 175.627C152.256 175.231 152.798 174.666 153.194 173.933C153.59 173.199 153.788 172.349 153.788 171.381ZM166.399 168.037C166.795 167.201 167.404 166.519 168.225 165.991C169.061 165.463 170.044 165.199 171.173 165.199C172.273 165.199 173.256 165.455 174.121 165.969C174.986 166.467 175.661 167.186 176.145 168.125C176.644 169.049 176.893 170.127 176.893 171.359C176.893 172.591 176.644 173.676 176.145 174.615C175.661 175.553 174.979 176.279 174.099 176.793C173.234 177.306 172.258 177.563 171.173 177.563C170.029 177.563 169.039 177.306 168.203 176.793C167.382 176.265 166.78 175.583 166.399 174.747V177.387H164.881V161.107H166.399V168.037ZM175.331 171.359C175.331 170.361 175.133 169.503 174.737 168.785C174.356 168.051 173.828 167.494 173.153 167.113C172.478 166.731 171.716 166.541 170.865 166.541C170.044 166.541 169.288 166.739 168.599 167.135C167.924 167.531 167.389 168.095 166.993 168.829C166.597 169.562 166.399 170.413 166.399 171.381C166.399 172.349 166.597 173.199 166.993 173.933C167.389 174.666 167.924 175.231 168.599 175.627C169.288 176.023 170.044 176.221 170.865 176.221C171.716 176.221 172.478 176.03 173.153 175.649C173.828 175.253 174.356 174.688 174.737 173.955C175.133 173.207 175.331 172.341 175.331 171.359ZM190.595 170.765C190.595 171.293 190.58 171.696 190.551 171.975H180.585C180.629 172.884 180.849 173.661 181.245 174.307C181.641 174.952 182.161 175.443 182.807 175.781C183.452 176.103 184.156 176.265 184.919 176.265C185.916 176.265 186.752 176.023 187.427 175.539C188.116 175.055 188.571 174.402 188.791 173.581H190.419C190.125 174.754 189.495 175.715 188.527 176.463C187.573 177.196 186.371 177.563 184.919 177.563C183.789 177.563 182.777 177.313 181.883 176.815C180.988 176.301 180.284 175.583 179.771 174.659C179.272 173.72 179.023 172.627 179.023 171.381C179.023 170.134 179.272 169.041 179.771 168.103C180.269 167.164 180.966 166.445 181.861 165.947C182.755 165.448 183.775 165.199 184.919 165.199C186.063 165.199 187.06 165.448 187.911 165.947C188.776 166.445 189.436 167.12 189.891 167.971C190.36 168.807 190.595 169.738 190.595 170.765ZM189.033 170.721C189.047 169.826 188.864 169.063 188.483 168.433C188.116 167.802 187.61 167.325 186.965 167.003C186.319 166.68 185.615 166.519 184.853 166.519C183.709 166.519 182.733 166.885 181.927 167.619C181.12 168.352 180.673 169.386 180.585 170.721H189.033ZM215.289 165.375L211.527 177.387H209.987L206.665 167.311L203.343 177.387H201.781L198.019 165.375H199.581L202.573 175.825L205.939 165.375H207.479L210.801 175.847L213.771 165.375H215.289ZM216.685 171.359C216.685 170.127 216.927 169.049 217.411 168.125C217.91 167.186 218.592 166.467 219.457 165.969C220.337 165.455 221.327 165.199 222.427 165.199C223.571 165.199 224.554 165.463 225.375 165.991C226.211 166.519 226.812 167.193 227.179 168.015V165.375H228.719V177.387H227.179V174.725C226.798 175.546 226.189 176.228 225.353 176.771C224.532 177.299 223.549 177.563 222.405 177.563C221.32 177.563 220.337 177.306 219.457 176.793C218.592 176.279 217.91 175.553 217.411 174.615C216.927 173.676 216.685 172.591 216.685 171.359ZM227.179 171.381C227.179 170.413 226.981 169.562 226.585 168.829C226.189 168.095 225.646 167.531 224.957 167.135C224.282 166.739 223.534 166.541 222.713 166.541C221.862 166.541 221.1 166.731 220.425 167.113C219.75 167.494 219.215 168.051 218.819 168.785C218.438 169.503 218.247 170.361 218.247 171.359C218.247 172.341 218.438 173.207 218.819 173.955C219.215 174.688 219.75 175.253 220.425 175.649C221.1 176.03 221.862 176.221 222.713 176.221C223.534 176.221 224.282 176.023 224.957 175.627C225.646 175.231 226.189 174.666 226.585 173.933C226.981 173.199 227.179 172.349 227.179 171.381ZM242.135 165.375L235.007 183.041H233.401L235.733 177.321L230.805 165.375H232.499L236.591 175.627L240.551 165.375H242.135ZM264.56 165.155C265.968 165.155 267.112 165.602 267.992 166.497C268.887 167.377 269.334 168.66 269.334 170.347V177.387H267.816V170.523C267.816 169.217 267.501 168.22 266.87 167.531C266.239 166.841 265.381 166.497 264.296 166.497C263.167 166.497 262.265 166.871 261.59 167.619C260.915 168.367 260.578 169.452 260.578 170.875V177.387H259.06V170.523C259.06 169.217 258.745 168.22 258.114 167.531C257.483 166.841 256.618 166.497 255.518 166.497C254.389 166.497 253.487 166.871 252.812 167.619C252.137 168.367 251.8 169.452 251.8 170.875V177.387H250.26V165.375H251.8V167.443C252.181 166.695 252.724 166.13 253.428 165.749C254.132 165.353 254.917 165.155 255.782 165.155C256.823 165.155 257.733 165.404 258.51 165.903C259.302 166.401 259.874 167.135 260.226 168.103C260.549 167.149 261.099 166.423 261.876 165.925C262.668 165.411 263.563 165.155 264.56 165.155ZM278.012 177.563C276.883 177.563 275.863 177.313 274.954 176.815C274.059 176.301 273.348 175.583 272.82 174.659C272.307 173.72 272.05 172.627 272.05 171.381C272.05 170.134 272.314 169.049 272.842 168.125C273.37 167.186 274.089 166.467 274.998 165.969C275.907 165.455 276.927 165.199 278.056 165.199C279.185 165.199 280.205 165.455 281.114 165.969C282.038 166.467 282.757 167.186 283.27 168.125C283.798 169.049 284.062 170.134 284.062 171.381C284.062 172.613 283.798 173.698 283.27 174.637C282.742 175.575 282.016 176.301 281.092 176.815C280.168 177.313 279.141 177.563 278.012 177.563ZM278.012 176.221C278.804 176.221 279.537 176.045 280.212 175.693C280.887 175.326 281.429 174.783 281.84 174.065C282.265 173.331 282.478 172.437 282.478 171.381C282.478 170.325 282.273 169.437 281.862 168.719C281.451 167.985 280.909 167.443 280.234 167.091C279.559 166.724 278.826 166.541 278.034 166.541C277.242 166.541 276.509 166.724 275.834 167.091C275.159 167.443 274.617 167.985 274.206 168.719C273.81 169.437 273.612 170.325 273.612 171.381C273.612 172.437 273.81 173.331 274.206 174.065C274.617 174.783 275.152 175.326 275.812 175.693C276.487 176.045 277.22 176.221 278.012 176.221ZM288.409 167.509C288.747 166.761 289.26 166.181 289.949 165.771C290.653 165.36 291.511 165.155 292.523 165.155V166.761H292.105C290.991 166.761 290.096 167.061 289.421 167.663C288.747 168.264 288.409 169.269 288.409 170.677V177.387H286.869V165.375H288.409V167.509ZM305.708 170.765C305.708 171.293 305.693 171.696 305.664 171.975H295.698C295.742 172.884 295.962 173.661 296.358 174.307C296.754 174.952 297.275 175.443 297.92 175.781C298.565 176.103 299.269 176.265 300.032 176.265C301.029 176.265 301.865 176.023 302.54 175.539C303.229 175.055 303.684 174.402 303.904 173.581H305.532C305.239 174.754 304.608 175.715 303.64 176.463C302.687 177.196 301.484 177.563 300.032 177.563C298.903 177.563 297.891 177.313 296.996 176.815C296.101 176.301 295.397 175.583 294.884 174.659C294.385 173.72 294.136 172.627 294.136 171.381C294.136 170.134 294.385 169.041 294.884 168.103C295.383 167.164 296.079 166.445 296.974 165.947C297.869 165.448 298.888 165.199 300.032 165.199C301.176 165.199 302.173 165.448 303.024 165.947C303.889 166.445 304.549 167.12 305.004 167.971C305.473 168.807 305.708 169.738 305.708 170.765ZM304.146 170.721C304.161 169.826 303.977 169.063 303.596 168.433C303.229 167.802 302.723 167.325 302.078 167.003C301.433 166.68 300.729 166.519 299.966 166.519C298.822 166.519 297.847 166.885 297.04 167.619C296.233 168.352 295.786 169.386 295.698 170.721H304.146ZM150.116 204.381C150.116 203.134 150.365 202.049 150.864 201.125C151.362 200.186 152.052 199.467 152.932 198.969C153.812 198.455 154.816 198.199 155.946 198.199C157.427 198.199 158.644 198.565 159.598 199.299C160.566 200.032 161.189 201.029 161.468 202.291H159.818C159.612 201.425 159.165 200.751 158.476 200.267C157.801 199.768 156.958 199.519 155.946 199.519C155.139 199.519 154.413 199.702 153.768 200.069C153.122 200.435 152.609 200.985 152.228 201.719C151.861 202.437 151.678 203.325 151.678 204.381C151.678 205.437 151.861 206.331 152.228 207.065C152.609 207.798 153.122 208.348 153.768 208.715C154.413 209.081 155.139 209.265 155.946 209.265C156.958 209.265 157.801 209.023 158.476 208.539C159.165 208.04 159.612 207.351 159.818 206.471H161.468C161.189 207.703 160.566 208.693 159.598 209.441C158.63 210.189 157.412 210.563 155.946 210.563C154.816 210.563 153.812 210.313 152.932 209.815C152.052 209.301 151.362 208.583 150.864 207.659C150.365 206.72 150.116 205.627 150.116 204.381ZM169.57 210.563C168.44 210.563 167.421 210.313 166.512 209.815C165.617 209.301 164.906 208.583 164.378 207.659C163.864 206.72 163.608 205.627 163.608 204.381C163.608 203.134 163.872 202.049 164.4 201.125C164.928 200.186 165.646 199.467 166.556 198.969C167.465 198.455 168.484 198.199 169.614 198.199C170.743 198.199 171.762 198.455 172.672 198.969C173.596 199.467 174.314 200.186 174.828 201.125C175.356 202.049 175.62 203.134 175.62 204.381C175.62 205.613 175.356 206.698 174.828 207.637C174.3 208.575 173.574 209.301 172.65 209.815C171.726 210.313 170.699 210.563 169.57 210.563ZM169.57 209.221C170.362 209.221 171.095 209.045 171.77 208.693C172.444 208.326 172.987 207.783 173.398 207.065C173.823 206.331 174.036 205.437 174.036 204.381C174.036 203.325 173.83 202.437 173.42 201.719C173.009 200.985 172.466 200.443 171.792 200.091C171.117 199.724 170.384 199.541 169.592 199.541C168.8 199.541 168.066 199.724 167.392 200.091C166.717 200.443 166.174 200.985 165.764 201.719C165.368 202.437 165.17 203.325 165.17 204.381C165.17 205.437 165.368 206.331 165.764 207.065C166.174 207.783 166.71 208.326 167.37 208.693C168.044 209.045 168.778 209.221 169.57 209.221ZM192.727 198.155C194.135 198.155 195.279 198.602 196.159 199.497C197.054 200.377 197.501 201.66 197.501 203.347V210.387H195.983V203.523C195.983 202.217 195.668 201.22 195.037 200.531C194.406 199.841 193.548 199.497 192.463 199.497C191.334 199.497 190.432 199.871 189.757 200.619C189.082 201.367 188.745 202.452 188.745 203.875V210.387H187.227V203.523C187.227 202.217 186.912 201.22 186.281 200.531C185.65 199.841 184.785 199.497 183.685 199.497C182.556 199.497 181.654 199.871 180.979 200.619C180.304 201.367 179.967 202.452 179.967 203.875V210.387H178.427V198.375H179.967V200.443C180.348 199.695 180.891 199.13 181.595 198.749C182.299 198.353 183.084 198.155 183.949 198.155C184.99 198.155 185.9 198.404 186.677 198.903C187.469 199.401 188.041 200.135 188.393 201.103C188.716 200.149 189.266 199.423 190.043 198.925C190.835 198.411 191.73 198.155 192.727 198.155ZM202.439 201.015C202.82 200.208 203.422 199.541 204.243 199.013C205.079 198.47 206.069 198.199 207.213 198.199C208.298 198.199 209.274 198.455 210.139 198.969C211.019 199.467 211.701 200.186 212.185 201.125C212.684 202.049 212.933 203.127 212.933 204.359C212.933 205.591 212.684 206.676 212.185 207.615C211.701 208.553 211.019 209.279 210.139 209.793C209.274 210.306 208.298 210.563 207.213 210.563C206.084 210.563 205.101 210.299 204.265 209.771C203.429 209.228 202.82 208.553 202.439 207.747V216.063H200.921V198.375H202.439V201.015ZM211.371 204.359C211.371 203.361 211.173 202.503 210.777 201.785C210.396 201.051 209.868 200.494 209.193 200.113C208.518 199.731 207.756 199.541 206.905 199.541C206.084 199.541 205.328 199.739 204.639 200.135C203.964 200.531 203.429 201.095 203.033 201.829C202.637 202.562 202.439 203.413 202.439 204.381C202.439 205.349 202.637 206.199 203.033 206.933C203.429 207.666 203.964 208.231 204.639 208.627C205.328 209.023 206.084 209.221 206.905 209.221C207.756 209.221 208.518 209.03 209.193 208.649C209.868 208.253 210.396 207.688 210.777 206.955C211.173 206.207 211.371 205.341 211.371 204.359ZM217.307 194.107V210.387H215.767V194.107H217.307ZM231.662 203.765C231.662 204.293 231.648 204.696 231.618 204.975H221.652C221.696 205.884 221.916 206.661 222.312 207.307C222.708 207.952 223.229 208.443 223.874 208.781C224.52 209.103 225.224 209.265 225.986 209.265C226.984 209.265 227.82 209.023 228.494 208.539C229.184 208.055 229.638 207.402 229.858 206.581H231.486C231.193 207.754 230.562 208.715 229.594 209.463C228.641 210.196 227.438 210.563 225.986 210.563C224.857 210.563 223.845 210.313 222.95 209.815C222.056 209.301 221.352 208.583 220.838 207.659C220.34 206.72 220.09 205.627 220.09 204.381C220.09 203.134 220.34 202.041 220.838 201.103C221.337 200.164 222.034 199.445 222.928 198.947C223.823 198.448 224.842 198.199 225.986 198.199C227.13 198.199 228.128 198.448 228.978 198.947C229.844 199.445 230.504 200.12 230.958 200.971C231.428 201.807 231.662 202.738 231.662 203.765ZM230.1 203.721C230.115 202.826 229.932 202.063 229.55 201.433C229.184 200.802 228.678 200.325 228.032 200.003C227.387 199.68 226.683 199.519 225.92 199.519C224.776 199.519 223.801 199.885 222.994 200.619C222.188 201.352 221.74 202.386 221.652 203.721H230.1ZM240.772 210.387L237.67 205.547L234.678 210.387H233.05L236.922 204.381L233.094 198.375H234.832L237.89 203.149L240.86 198.375H242.466L238.638 204.315L242.51 210.387H240.772ZM246.667 195.009L246.469 206.317H245.171L244.995 195.009H246.667ZM245.897 210.497C245.574 210.497 245.303 210.387 245.083 210.167C244.878 209.947 244.775 209.675 244.775 209.353C244.775 209.03 244.878 208.766 245.083 208.561C245.303 208.341 245.574 208.231 245.897 208.231C246.205 208.231 246.462 208.341 246.667 208.561C246.887 208.766 246.997 209.03 246.997 209.353C246.997 209.675 246.887 209.947 246.667 210.167C246.462 210.387 246.205 210.497 245.897 210.497Z" fill="#FDFDFD"/>
<path d="M98.1872 36.0501L99.2852 37.7581C91.7212 42.7195 87.9392 47.6808 87.9392 52.6422C87.9392 55.1635 89.0372 56.6275 91.2332 57.0342L96.3572 52.2762C97.9839 52.8455 99.4479 53.9028 100.749 55.4482C102.132 56.9122 102.823 58.8235 102.823 61.1822C102.823 63.5408 101.888 65.5742 100.017 67.2822C98.1466 68.9088 95.6659 69.7222 92.5752 69.7222C89.5659 69.7222 87.0446 68.7055 85.0112 66.6722C83.0592 64.5575 82.0832 61.6702 82.0832 58.0102C82.0832 50.0395 87.4512 42.7195 98.1872 36.0501ZM75.2512 36.0501L76.3492 37.7581C68.7852 42.7195 65.0032 47.6808 65.0032 52.6422C65.0032 55.1635 66.1012 56.6275 68.2972 57.0342L73.4212 52.2762C75.0479 52.8455 76.5119 53.9028 77.8132 55.4482C79.1959 56.9122 79.8872 58.8235 79.8872 61.1822C79.8872 63.5408 78.9519 65.5742 77.0812 67.2822C75.2106 68.9088 72.7299 69.7222 69.6392 69.7222C66.6299 69.7222 64.1086 68.7055 62.0752 66.6722C60.1232 64.5575 59.1472 61.6702 59.1472 58.0102C59.1472 50.0395 64.5152 42.7195 75.2512 36.0501Z" fill="#FDFDFD"/>
<path d="M285.813 272.157L284.715 270.449C292.279 265.488 296.061 260.526 296.061 255.565C296.061 253.044 294.963 251.58 292.767 251.173L287.643 255.931C286.016 255.362 284.552 254.304 283.251 252.759C281.868 251.295 281.177 249.384 281.177 247.025C281.177 244.666 282.112 242.633 283.983 240.925C285.853 239.298 288.334 238.485 291.425 238.485C294.434 238.485 296.955 239.502 298.989 241.535C300.941 243.65 301.917 246.537 301.917 250.197C301.917 258.168 296.549 265.488 285.813 272.157ZM308.749 272.157L307.651 270.449C315.215 265.488 318.997 260.526 318.997 255.565C318.997 253.044 317.899 251.58 315.703 251.173L310.579 255.931C308.952 255.362 307.488 254.304 306.187 252.759C304.804 251.295 304.113 249.384 304.113 247.025C304.113 244.666 305.048 242.633 306.919 240.925C308.789 239.298 311.27 238.485 314.361 238.485C317.37 238.485 319.891 239.502 321.925 241.535C323.877 243.65 324.853 246.537 324.853 250.197C324.853 258.168 319.485 265.488 308.749 272.157Z" fill="#FDFDFD"/>
</svg>
