<svg width="64" height="65" viewBox="0 0 64 65" fill="none" xmlns="http://www.w3.org/2000/svg">
<path d="M32 58.7503C29.0667 58.7503 26.1667 58.217 23.3 57.1503C20.4333 56.0837 17.8667 54.6837 15.6 52.9503C13.3333 51.217 11.5 49.2614 10.1 47.0837C8.7 44.9059 8 42.6837 8 40.417V33.7503L17 40.4837L13.1333 44.3503C14.5111 46.9281 16.8667 49.2281 20.2 51.2503C23.5333 53.2725 26.8 54.3948 30 54.617V28.7503H21.3333V24.7503H30V19.817C28.3111 19.1948 27 18.2614 26.0667 17.017C25.1333 15.7725 24.6667 14.3503 24.6667 12.7503C24.6667 10.7059 25.3889 8.97255 26.8333 7.55033C28.2778 6.1281 30 5.41699 32 5.41699C34.0444 5.41699 35.7778 6.1281 37.2 7.55033C38.6222 8.97255 39.3333 10.7059 39.3333 12.7503C39.3333 14.3503 38.8667 15.7725 37.9333 17.017C37 18.2614 35.6889 19.1948 34 19.817V24.7503H42.6667V28.7503H34V54.617C37.2 54.3948 40.4667 53.2725 43.8 51.2503C47.1333 49.2281 49.4889 46.9281 50.8667 44.3503L47 40.4837L56 33.7503V40.417C56 42.6837 55.3 44.9059 53.9 47.0837C52.5 49.2614 50.6667 51.217 48.4 52.9503C46.1333 54.6837 43.5667 56.0837 40.7 57.1503C37.8333 58.217 34.9333 58.7503 32 58.7503ZM32 16.0837C32.9333 16.0837 33.7222 15.7503 34.3667 15.0837C35.0111 14.417 35.3333 13.6392 35.3333 12.7503C35.3333 11.817 35.0111 11.0281 34.3667 10.3837C33.7222 9.73921 32.9333 9.41699 32 9.41699C31.1111 9.41699 30.3333 9.73921 29.6667 10.3837C29 11.0281 28.6667 11.817 28.6667 12.7503C28.6667 13.6392 29 14.417 29.6667 15.0837C30.3333 15.7503 31.1111 16.0837 32 16.0837Z" fill="#6F8463"/>
</svg>
