<svg width="64" height="65" viewBox="0 0 64 65" fill="none" xmlns="http://www.w3.org/2000/svg">
<path d="M32 58.7513C29.0667 58.7513 26.1667 58.218 23.3 57.1513C20.4333 56.0846 17.8667 54.6846 15.6 52.9513C13.3333 51.218 11.5 49.2624 10.1 47.0846C8.7 44.9069 8 42.6846 8 40.418V33.7513L17 40.4846L13.1333 44.3513C14.5111 46.9291 16.8667 49.2291 20.2 51.2513C23.5333 53.2735 26.8 54.3957 30 54.618V28.7513H21.3333V24.7513H30V19.818C28.3111 19.1957 27 18.2624 26.0667 17.018C25.1333 15.7735 24.6667 14.3513 24.6667 12.7513C24.6667 10.7069 25.3889 8.97352 26.8333 7.5513C28.2778 6.12908 30 5.41797 32 5.41797C34.0444 5.41797 35.7778 6.12908 37.2 7.5513C38.6222 8.97352 39.3333 10.7069 39.3333 12.7513C39.3333 14.3513 38.8667 15.7735 37.9333 17.018C37 18.2624 35.6889 19.1957 34 19.818V24.7513H42.6667V28.7513H34V54.618C37.2 54.3957 40.4667 53.2735 43.8 51.2513C47.1333 49.2291 49.4889 46.9291 50.8667 44.3513L47 40.4846L56 33.7513V40.418C56 42.6846 55.3 44.9069 53.9 47.0846C52.5 49.2624 50.6667 51.218 48.4 52.9513C46.1333 54.6846 43.5667 56.0846 40.7 57.1513C37.8333 58.218 34.9333 58.7513 32 58.7513ZM32 16.0846C32.9333 16.0846 33.7222 15.7513 34.3667 15.0846C35.0111 14.418 35.3333 13.6402 35.3333 12.7513C35.3333 11.818 35.0111 11.0291 34.3667 10.3846C33.7222 9.74019 32.9333 9.41797 32 9.41797C31.1111 9.41797 30.3333 9.74019 29.6667 10.3846C29 11.0291 28.6667 11.818 28.6667 12.7513C28.6667 13.6402 29 14.418 29.6667 15.0846C30.3333 15.7513 31.1111 16.0846 32 16.0846Z" fill="#252B33"/>
</svg>
