<svg width="48" height="48" viewBox="0 0 48 48" fill="none" xmlns="http://www.w3.org/2000/svg">
<path d="M24.125 37.05C26.9083 37.05 29.6083 36.5167 32.225 35.45C34.8417 34.3833 37.1 32.9 39 31L36.75 29C36.45 29.3 36.0667 29.625 35.6 29.975C35.1333 30.325 34.6833 30.6167 34.25 30.85L32.2 27.05V21.9H34.6V20.2H22.55L18.7 13.6H12.35L14.1 14.85L10.65 18.5L12.35 20.25L15.8 17.85V27.05L13.8 30.85C13.3667 30.6167 12.9083 30.325 12.425 29.975C11.9417 29.625 11.55 29.3 11.25 29L9 31C10.9 32.9 13.2 34.3833 15.9 35.45C18.6 36.5167 21.3417 37.05 24.125 37.05ZM24.125 34.1C22.775 34.1 21.4 33.9583 20 33.675C18.6 33.3917 17.2 32.8667 15.8 32.1L18.1 28.3C19.1333 28.7 20.1363 29 21.1089 29.2C22.0814 29.4 23.0451 29.5 24 29.5C24.9667 29.5 25.9333 29.4 26.9 29.2C27.8667 29 28.8667 28.7 29.9 28.3L32.2 32.1C30.8 32.8333 29.4417 33.35 28.125 33.65C26.8083 33.95 25.475 34.1 24.125 34.1ZM7 44C6.2 44 5.5 43.7 4.9 43.1C4.3 42.5 4 41.8 4 41V7C4 6.2 4.3 5.5 4.9 4.9C5.5 4.3 6.2 4 7 4H41C41.8 4 42.5 4.3 43.1 4.9C43.7 5.5 44 6.2 44 7V41C44 41.8 43.7 42.5 43.1 43.1C42.5 43.7 41.8 44 41 44H7ZM7 41H41V7H7V41Z" fill="#252B33"/>
</svg>
