<svg width="48" height="48" viewBox="0 0 48 48" fill="none" xmlns="http://www.w3.org/2000/svg">
<g clip-path="url(#clip0_558_28941)">
<path d="M17.6008 39C13.6341 37.6667 10.3674 35.2833 7.80078 31.85C5.23411 28.4167 3.95078 24.4667 3.95078 20C3.95078 18.9333 4.03411 17.8667 4.20078 16.8C4.36745 15.7333 4.63411 14.6833 5.00078 13.65L1.80078 15.5L0.300781 12.95L8.95078 7.95L13.9508 16.55L11.3508 18.05L8.45078 13.1C7.98411 14.2 7.62578 15.3333 7.37578 16.5C7.12578 17.6667 7.00078 18.85 7.00078 20.05C7.00078 23.9167 8.14245 27.3333 10.4258 30.3C12.7091 33.2667 15.6174 35.2833 19.1508 36.35L17.6008 39ZM32.0008 13V10H37.7508C36.1508 7.8 34.1424 6.08333 31.7258 4.85C29.3091 3.61667 26.7341 3 24.0008 3C21.7008 3 19.5591 3.41667 17.5758 4.25C15.5924 5.08333 13.8341 6.23333 12.3008 7.7L10.7508 5C12.5508 3.43333 14.5674 2.20833 16.8008 1.325C19.0341 0.441667 21.4174 0 23.9508 0C26.8841 0 29.6508 0.591667 32.2508 1.775C34.8508 2.95833 37.1008 4.63333 39.0008 6.8V3H42.0008V13H32.0008ZM29.7508 44L21.1008 39L26.1008 30.4L28.6508 31.9L25.7508 36.95C30.0841 36.5167 33.7091 34.6917 36.6258 31.475C39.5424 28.2583 41.0008 24.45 41.0008 20.05C41.0008 19.35 40.9591 18.6667 40.8758 18C40.7924 17.3333 40.6674 16.6667 40.5008 16H43.6008C43.7341 16.6667 43.8341 17.3333 43.9008 18C43.9674 18.6667 44.0008 19.3333 44.0008 20C44.0008 24.7667 42.5091 28.9833 39.5258 32.65C36.5424 36.3167 32.7341 38.6333 28.1008 39.6L31.2508 41.45L29.7508 44Z" fill="#252B33"/>
</g>
<defs>
<clipPath id="clip0_558_28941">
<rect width="48" height="48" fill="white"/>
</clipPath>
</defs>
</svg>
