<svg width="40" height="40" viewBox="0 0 40 40" fill="none" xmlns="http://www.w3.org/2000/svg">
<path d="M10.0047 24.8332C9.55734 24.8332 9.18088 24.6818 8.87533 24.3792C8.56977 24.0766 8.41699 23.7016 8.41699 23.2542C8.41699 22.8068 8.56831 22.4304 8.87095 22.1248C9.17356 21.8193 9.54856 21.6665 9.99595 21.6665C10.4433 21.6665 10.8198 21.8178 11.1253 22.1205C11.4309 22.4231 11.5837 22.7981 11.5837 23.2455C11.5837 23.6928 11.4323 24.0693 11.1297 24.3748C10.8271 24.6804 10.4521 24.8332 10.0047 24.8332ZM10.0047 31.5832C9.55734 31.5832 9.18088 31.4318 8.87533 31.1292C8.56977 30.8266 8.41699 30.4516 8.41699 30.0042C8.41699 29.5568 8.56831 29.1804 8.87095 28.8748C9.17356 28.5693 9.54856 28.4165 9.99595 28.4165C10.4433 28.4165 10.8198 28.5678 11.1253 28.8705C11.4309 29.1731 11.5837 29.5481 11.5837 29.9955C11.5837 30.4428 11.4323 30.8193 11.1297 31.1248C10.8271 31.4304 10.4521 31.5832 10.0047 31.5832ZM10.0047 18.3332C9.55734 18.3332 9.18088 18.1818 8.87533 17.8792C8.56977 17.5766 8.41699 17.2016 8.41699 16.7542C8.41699 16.3069 8.56831 15.9304 8.87095 15.6248C9.17356 15.3193 9.54856 15.1665 9.99595 15.1665C10.4433 15.1665 10.8198 15.3178 11.1253 15.6205C11.4309 15.9231 11.5837 16.2981 11.5837 16.7455C11.5837 17.1928 11.4323 17.5693 11.1297 17.8748C10.8271 18.1804 10.4521 18.3332 10.0047 18.3332ZM5.04199 17.6248C4.79199 17.6248 4.58366 17.5415 4.41699 17.3748C4.25033 17.2082 4.16699 16.9998 4.16699 16.7498C4.16699 16.4998 4.25033 16.2915 4.41699 16.1248C4.58366 15.9582 4.79199 15.8748 5.04199 15.8748C5.29199 15.8748 5.50033 15.9582 5.66699 16.1248C5.83366 16.2915 5.91699 16.4998 5.91699 16.7498C5.91699 16.9998 5.83366 17.2082 5.66699 17.3748C5.50033 17.5415 5.29199 17.6248 5.04199 17.6248ZM10.0047 11.5832C9.55734 11.5832 9.18088 11.4319 8.87533 11.1292C8.56977 10.8266 8.41699 10.4516 8.41699 10.0042C8.41699 9.55685 8.56831 9.18039 8.87095 8.87484C9.17356 8.56928 9.54856 8.4165 9.99595 8.4165C10.4433 8.4165 10.8198 8.56782 11.1253 8.87046C11.4309 9.17307 11.5837 9.54807 11.5837 9.99546C11.5837 10.4428 11.4323 10.8193 11.1297 11.1248C10.8271 11.4304 10.4521 11.5832 10.0047 11.5832ZM5.04199 24.1248C4.79199 24.1248 4.58366 24.0415 4.41699 23.8748C4.25033 23.7082 4.16699 23.4998 4.16699 23.2498C4.16699 22.9998 4.25033 22.7915 4.41699 22.6248C4.58366 22.4582 4.79199 22.3748 5.04199 22.3748C5.29199 22.3748 5.50033 22.4582 5.66699 22.6248C5.83366 22.7915 5.91699 22.9998 5.91699 23.2498C5.91699 23.4998 5.83366 23.7082 5.66699 23.8748C5.50033 24.0415 5.29199 24.1248 5.04199 24.1248ZM16.7503 35.8332C16.5003 35.8332 16.292 35.7498 16.1253 35.5832C15.9587 35.4165 15.8753 35.2082 15.8753 34.9582C15.8753 34.7082 15.9587 34.4998 16.1253 34.3332C16.292 34.1665 16.5003 34.0832 16.7503 34.0832C17.0003 34.0832 17.2087 34.1665 17.3753 34.3332C17.542 34.4998 17.6253 34.7082 17.6253 34.9582C17.6253 35.2082 17.542 35.4165 17.3753 35.5832C17.2087 35.7498 17.0003 35.8332 16.7503 35.8332ZM16.7503 5.9165C16.5003 5.9165 16.292 5.83317 16.1253 5.6665C15.9587 5.49984 15.8753 5.2915 15.8753 5.0415C15.8753 4.7915 15.9587 4.58317 16.1253 4.4165C16.292 4.24984 16.5003 4.1665 16.7503 4.1665C17.0003 4.1665 17.2087 4.24984 17.3753 4.4165C17.542 4.58317 17.6253 4.7915 17.6253 5.0415C17.6253 5.2915 17.542 5.49984 17.3753 5.6665C17.2087 5.83317 17.0003 5.9165 16.7503 5.9165ZM16.7547 11.5832C16.3073 11.5832 15.9309 11.4319 15.6253 11.1292C15.3198 10.8266 15.167 10.4516 15.167 10.0042C15.167 9.55685 15.3183 9.18039 15.6209 8.87484C15.9236 8.56928 16.2986 8.4165 16.7459 8.4165C17.1933 8.4165 17.5698 8.56782 17.8753 8.87046C18.1809 9.17307 18.3337 9.54807 18.3337 9.99546C18.3337 10.4428 18.1823 10.8193 17.8797 11.1248C17.5771 11.4304 17.2021 11.5832 16.7547 11.5832ZM16.7503 25.4998C16.1253 25.4998 15.5941 25.2811 15.1566 24.8436C14.7191 24.4061 14.5003 23.8748 14.5003 23.2498C14.5003 22.6248 14.7191 22.0936 15.1566 21.6561C15.5941 21.2186 16.1253 20.9998 16.7503 20.9998C17.3753 20.9998 17.9066 21.2186 18.3441 21.6561C18.7816 22.0936 19.0003 22.6248 19.0003 23.2498C19.0003 23.8748 18.7816 24.4061 18.3441 24.8436C17.9066 25.2811 17.3753 25.4998 16.7503 25.4998ZM16.7503 18.9998C16.1253 18.9998 15.5941 18.7811 15.1566 18.3436C14.7191 17.9061 14.5003 17.3748 14.5003 16.7498C14.5003 16.1248 14.7191 15.5936 15.1566 15.1561C15.5941 14.7186 16.1253 14.4998 16.7503 14.4998C17.3753 14.4998 17.9066 14.7186 18.3441 15.1561C18.7816 15.5936 19.0003 16.1248 19.0003 16.7498C19.0003 17.3748 18.7816 17.9061 18.3441 18.3436C17.9066 18.7811 17.3753 18.9998 16.7503 18.9998ZM16.7547 31.5832C16.3073 31.5832 15.9309 31.4318 15.6253 31.1292C15.3198 30.8266 15.167 30.4516 15.167 30.0042C15.167 29.5568 15.3183 29.1804 15.6209 28.8748C15.9236 28.5693 16.2986 28.4165 16.7459 28.4165C17.1933 28.4165 17.5698 28.5678 17.8753 28.8705C18.1809 29.1731 18.3337 29.5481 18.3337 29.9955C18.3337 30.4428 18.1823 30.8193 17.8797 31.1248C17.5771 31.4304 17.2021 31.5832 16.7547 31.5832ZM20.417 34.5832V32.0832C23.667 31.9443 26.4239 30.7158 28.6878 28.3978C30.9517 26.0797 32.0837 23.2811 32.0837 20.002C32.0837 16.7228 30.9517 13.9234 28.6878 11.604C26.4239 9.28456 23.667 8.05539 20.417 7.9165V5.4165C22.3892 5.47206 24.2295 5.89567 25.9378 6.68734C27.6462 7.479 29.1462 8.52761 30.4378 9.83317C31.7295 11.1387 32.7434 12.6654 33.4795 14.4131C34.2156 16.1608 34.5837 18.0219 34.5837 19.9964C34.5837 21.9709 34.2156 23.8332 33.4795 25.5832C32.7434 27.3332 31.7295 28.8609 30.4378 30.1665C29.1462 31.4721 27.6462 32.5207 25.9378 33.3123C24.2295 34.104 22.3892 34.5276 20.417 34.5832Z" fill="#6F8463"/>
</svg>
