<svg width="40" height="40" viewBox="0 0 40 40" fill="none" xmlns="http://www.w3.org/2000/svg">
<path d="M20 38.334L15 33.334H7.5C6.83333 33.334 6.25 33.077 5.75 32.5632C5.25 32.0493 5 31.4729 5 30.834V5.83398C5 5.16732 5.25 4.58398 5.75 4.08398C6.25 3.58398 6.83333 3.33398 7.5 3.33398H32.5C33.1389 3.33398 33.7153 3.58398 34.2292 4.08398C34.7431 4.58398 35 5.16732 35 5.83398V30.834C35 31.4729 34.7431 32.0493 34.2292 32.5632C33.7153 33.077 33.1389 33.334 32.5 33.334H25L20 38.334ZM7.5 30.834H16L20 34.834L24 30.834H32.5V5.83398H7.5V30.834ZM22.375 20.7923L27.7083 18.459L22.375 16.1257L20.0417 10.7923L17.6667 16.1257L12.375 18.459L17.6667 20.7923L20.0417 26.1257L22.375 20.7923Z" fill="#252B33"/>
</svg>
