<svg width="56" height="56" viewBox="0 0 56 56" fill="none" xmlns="http://www.w3.org/2000/svg">
<path d="M21.9346 47.8327H34.0096V44.566L36.1096 43.691C38.9874 42.4855 41.3402 40.9105 43.168 38.966C44.9957 37.0216 46.2985 34.9021 47.0763 32.6077H8.86797C9.64575 34.9021 10.968 37.0313 12.8346 38.9952C14.7013 40.9591 17.0346 42.5243 19.8346 43.691L21.9346 44.566V47.8327ZM18.4346 51.3327V46.7827C14.3513 45.1493 11.1041 42.7771 8.69297 39.666C6.28186 36.5549 4.94019 33.0549 4.66797 29.166H8.86797V9.39102L51.3346 4.66602V7.58268L23.4513 10.6743V15.7493H51.3346V18.666H23.4513V29.166H51.2763C51.043 33.0549 49.7013 36.5549 47.2513 39.666C44.8013 42.7771 41.5541 45.1493 37.5096 46.7827V51.3327H18.4346ZM17.618 15.7493H20.5346V10.966L17.618 11.316V15.7493ZM11.7846 15.7493H14.7013V11.6077L11.7846 11.939V15.7493ZM17.618 29.166H20.5346V18.666H17.618V29.166ZM11.7846 29.166H14.7013V18.666H11.7846V29.166Z" fill="#252B33"/>
</svg>
