<svg width="58" height="56" viewBox="0 0 58 56" fill="none" xmlns="http://www.w3.org/2000/svg">
<g clip-path="url(#clip0_319_3296)">
<path fill-rule="evenodd" clip-rule="evenodd" d="M28.4982 0C12.7394 0 0 12.8333 0 28.7099C0 41.4009 8.16258 52.1436 19.4862 55.9458C20.902 56.2316 21.4206 55.328 21.4206 54.5679C21.4206 53.9023 21.3739 51.6209 21.3739 49.2438C13.4464 50.9553 11.7956 45.8214 11.7956 45.8214C10.5216 42.4941 8.63392 41.6389 8.63392 41.6389C6.03925 39.8802 8.82292 39.8802 8.82292 39.8802C11.7011 40.0703 13.2113 42.8272 13.2113 42.8272C15.7587 47.1998 19.8637 45.9643 21.5151 45.2037C21.7507 43.3498 22.5062 42.0665 23.3082 41.3537C16.9855 40.6881 10.3332 38.2165 10.3332 27.1886C10.3332 24.0514 11.4648 21.4848 13.258 19.4886C12.9751 18.7758 11.984 15.8282 13.5415 11.8831C13.5415 11.8831 15.9477 11.1224 21.3733 14.8301C23.6962 14.2016 26.0918 13.8819 28.4982 13.8793C30.9044 13.8793 33.3573 14.2123 35.6224 14.8301C41.0486 11.1224 43.4548 11.8831 43.4548 11.8831C45.0123 15.8282 44.0207 18.7758 43.7377 19.4886C45.5782 21.4848 46.6632 24.0514 46.6632 27.1886C46.6632 38.2165 40.0108 40.6403 33.6408 41.3537C34.6792 42.2567 35.5752 43.9676 35.5752 46.6772C35.5752 50.5272 35.5285 53.6171 35.5285 54.5673C35.5285 55.328 36.0477 56.2316 37.4628 55.9463C48.7865 52.143 56.9491 41.4009 56.9491 28.7099C56.9957 12.8333 44.2097 0 28.4982 0Z" fill="#252B33"/>
</g>
<defs>
<clipPath id="clip0_319_3296">
<rect width="57.1667" height="56" fill="white"/>
</clipPath>
</defs>
</svg>
