<svg width="24" height="24" viewBox="0 0 24 24" fill="none" xmlns="http://www.w3.org/2000/svg">
<path d="M5.15 18.85C4.46667 18.05 3.9375 17.1542 3.5625 16.1625C3.1875 15.1708 3 14.1167 3 13C3 10.5 3.875 8.375 5.625 6.625C7.375 4.875 9.5 4 12 4H12.2L10.6 2.4L12 1L16 5L12 9L10.575 7.575L12.15 6H12C10.0667 6 8.41667 6.68333 7.05 8.05C5.68333 9.41667 5 11.0667 5 13C5 13.85 5.1375 14.65 5.4125 15.4C5.6875 16.15 6.075 16.825 6.575 17.425L5.15 18.85ZM11 18.5C11 18.1167 10.8708 17.7375 10.6125 17.3625C10.3542 16.9875 10.0667 16.5958 9.75 16.1875C9.43333 15.7792 9.14583 15.3542 8.8875 14.9125C8.62917 14.4708 8.5 14 8.5 13.5C8.5 12.5333 8.84167 11.7083 9.525 11.025C10.2083 10.3417 11.0333 10 12 10C12.9667 10 13.7917 10.3417 14.475 11.025C15.1583 11.7083 15.5 12.5333 15.5 13.5C15.5 14 15.3708 14.4708 15.1125 14.9125C14.8542 15.3542 14.5667 15.7792 14.25 16.1875C13.9333 16.5958 13.6458 16.9875 13.3875 17.3625C13.1292 17.7375 13 18.1167 13 18.5H11ZM11 21V19.5H13V21H11ZM18.85 18.85L17.425 17.425C17.925 16.825 18.3125 16.15 18.5875 15.4C18.8625 14.65 19 13.85 19 13C19 11.9 18.7708 10.8792 18.3125 9.9375C17.8542 8.99583 17.225 8.20833 16.425 7.575L17.85 6.15C18.8167 6.98333 19.5833 7.9875 20.15 9.1625C20.7167 10.3375 21 11.6167 21 13C21 14.1167 20.8125 15.1708 20.4375 16.1625C20.0625 17.1542 19.5333 18.05 18.85 18.85Z" fill="#252B33"/>
</svg>
