<svg width="24" height="24" viewBox="0 0 24 24" fill="none" xmlns="http://www.w3.org/2000/svg">
<g clip-path="url(#clip0_839_39115)">
<path d="M0.95 13.3C0.65 12.7 0.416667 12.0917 0.25 11.475C0.0833333 10.8583 0 10.2333 0 9.6C0 7.73333 0.633333 6.16667 1.9 4.9C3.16667 3.63333 4.73333 3 6.6 3C7.65 3 8.65 3.22083 9.6 3.6625C10.55 4.10417 11.35 4.71667 12 5.5C12.65 4.71667 13.45 4.10417 14.4 3.6625C15.35 3.22083 16.35 3 17.4 3C19.2667 3 20.8333 3.63333 22.1 4.9C23.3667 6.16667 24 7.73333 24 9.6C24 10.2333 23.9167 10.8583 23.75 11.475C23.5833 12.0917 23.35 12.7 23.05 13.3C22.8667 12.9833 22.65 12.7 22.4 12.45C22.15 12.2 21.8583 12 21.525 11.85C21.675 11.4667 21.7917 11.0917 21.875 10.725C21.9583 10.3583 22 9.98333 22 9.6C22 8.3 21.5583 7.20833 20.675 6.325C19.7917 5.44167 18.7 5 17.4 5C16.05 5 15.0125 5.37083 14.2875 6.1125C13.5625 6.85417 12.8 7.68333 12 8.6C11.2 7.66667 10.4375 6.83333 9.7125 6.1C8.9875 5.36667 7.95 5 6.6 5C5.3 5 4.20833 5.44167 3.325 6.325C2.44167 7.20833 2 8.3 2 9.6C2 9.98333 2.04167 10.3583 2.125 10.725C2.20833 11.0917 2.325 11.4667 2.475 11.85C2.14167 12 1.85 12.2 1.6 12.45C1.35 12.7 1.13333 12.9833 0.95 13.3ZM0 22V20.425C0 19.6917 0.370833 19.1042 1.1125 18.6625C1.85417 18.2208 2.81667 18 4 18C4.21667 18 4.425 18.0042 4.625 18.0125C4.825 18.0208 5.01667 18.0417 5.2 18.075C4.96667 18.4083 4.79167 18.7667 4.675 19.15C4.55833 19.5333 4.5 19.9417 4.5 20.375V22H0ZM6 22V20.375C6 19.2917 6.55417 18.4167 7.6625 17.75C8.77083 17.0833 10.2167 16.75 12 16.75C13.8 16.75 15.25 17.0833 16.35 17.75C17.45 18.4167 18 19.2917 18 20.375V22H6ZM19.5 22V20.375C19.5 19.9417 19.4458 19.5333 19.3375 19.15C19.2292 18.7667 19.0667 18.4083 18.85 18.075C19.0333 18.0417 19.2208 18.0208 19.4125 18.0125C19.6042 18.0042 19.8 18 20 18C21.2 18 22.1667 18.2208 22.9 18.6625C23.6333 19.1042 24 19.6917 24 20.425V22H19.5ZM12 18.75C11.05 18.75 10.2 18.875 9.45 19.125C8.7 19.375 8.25833 19.6667 8.125 20H15.9C15.75 19.6667 15.3042 19.375 14.5625 19.125C13.8208 18.875 12.9667 18.75 12 18.75ZM4 17C3.45 17 2.97917 16.8042 2.5875 16.4125C2.19583 16.0208 2 15.55 2 15C2 14.4333 2.19583 13.9583 2.5875 13.575C2.97917 13.1917 3.45 13 4 13C4.56667 13 5.04167 13.1917 5.425 13.575C5.80833 13.9583 6 14.4333 6 15C6 15.55 5.80833 16.0208 5.425 16.4125C5.04167 16.8042 4.56667 17 4 17ZM20 17C19.45 17 18.9792 16.8042 18.5875 16.4125C18.1958 16.0208 18 15.55 18 15C18 14.4333 18.1958 13.9583 18.5875 13.575C18.9792 13.1917 19.45 13 20 13C20.5667 13 21.0417 13.1917 21.425 13.575C21.8083 13.9583 22 14.4333 22 15C22 15.55 21.8083 16.0208 21.425 16.4125C21.0417 16.8042 20.5667 17 20 17ZM12 16C11.1667 16 10.4583 15.7083 9.875 15.125C9.29167 14.5417 9 13.8333 9 13C9 12.15 9.29167 11.4375 9.875 10.8625C10.4583 10.2875 11.1667 10 12 10C12.85 10 13.5625 10.2875 14.1375 10.8625C14.7125 11.4375 15 12.15 15 13C15 13.8333 14.7125 14.5417 14.1375 15.125C13.5625 15.7083 12.85 16 12 16ZM12 12C11.7167 12 11.4792 12.0958 11.2875 12.2875C11.0958 12.4792 11 12.7167 11 13C11 13.2833 11.0958 13.5208 11.2875 13.7125C11.4792 13.9042 11.7167 14 12 14C12.2833 14 12.5208 13.9042 12.7125 13.7125C12.9042 13.5208 13 13.2833 13 13C13 12.7167 12.9042 12.4792 12.7125 12.2875C12.5208 12.0958 12.2833 12 12 12Z" fill="#C2C2C2"/>
</g>
<defs>
<clipPath id="clip0_839_39115">
<rect width="24" height="24" fill="white"/>
</clipPath>
</defs>
</svg>
