<svg width="24" height="24" viewBox="0 0 24 24" fill="none" xmlns="http://www.w3.org/2000/svg">
<path d="M13.85 21C12.95 21 12.1917 20.6917 11.575 20.075C10.9583 19.4583 10.65 18.7167 10.65 17.85C10.65 16.5833 11.1625 15.4375 12.1875 14.4125C13.2125 13.3875 14.4917 12.75 16.025 12.5C15.975 11.9 15.825 11.4458 15.575 11.1375C15.325 10.8292 14.9833 10.675 14.55 10.675C14.05 10.675 13.5083 10.8833 12.925 11.3C12.3417 11.7167 11.65 12.4 10.85 13.35C9.55 14.9 8.59583 15.9083 7.9875 16.375C7.37917 16.8417 6.725 17.075 6.025 17.075C5.175 17.075 4.45833 16.7583 3.875 16.125C3.29167 15.4917 3 14.725 3 13.825C3 12.925 3.19583 12.0042 3.5875 11.0625C3.97917 10.1208 4.64167 8.99167 5.575 7.675C5.89167 7.24167 6.125 6.875 6.275 6.575C6.425 6.275 6.5 6.03333 6.5 5.85C6.5 5.73333 6.47917 5.64583 6.4375 5.5875C6.39583 5.52917 6.33333 5.5 6.25 5.5C6.08333 5.5 5.875 5.60417 5.625 5.8125C5.375 6.02083 5.08333 6.34167 4.75 6.775L3 5C3.53333 4.35 4.075 3.85417 4.625 3.5125C5.175 3.17083 5.71667 3 6.25 3C7.01667 3 7.66667 3.26667 8.2 3.8C8.73333 4.33333 9 5 9 5.8C9 6.28333 8.875 6.81667 8.625 7.4C8.375 7.98333 7.95833 8.68333 7.375 9.5C6.74167 10.4 6.27083 11.1917 5.9625 11.875C5.65417 12.5583 5.5 13.1583 5.5 13.675C5.5 13.9583 5.54583 14.1792 5.6375 14.3375C5.72917 14.4958 5.85833 14.575 6.025 14.575C6.19167 14.575 6.3375 14.5292 6.4625 14.4375C6.5875 14.3458 6.81667 14.125 7.15 13.775C7.36667 13.5417 7.625 13.2542 7.925 12.9125C8.225 12.5708 8.59167 12.15 9.025 11.65C10.075 10.4 11.025 9.50833 11.875 8.975C12.725 8.44167 13.6167 8.175 14.55 8.175C15.6667 8.175 16.5833 8.55 17.3 9.3C18.0167 10.05 18.425 11.075 18.525 12.375H21V14.875H18.525C18.3917 16.7417 17.9042 18.2292 17.0625 19.3375C16.2208 20.4458 15.15 21 13.85 21ZM13.9 18.5C14.4333 18.5 14.8833 18.1958 15.25 17.5875C15.6167 16.9792 15.8667 16.1333 16 15.05C15.2333 15.2333 14.5667 15.5958 14 16.1375C13.4333 16.6792 13.15 17.2167 13.15 17.75C13.15 17.9833 13.2167 18.1667 13.35 18.3C13.4833 18.4333 13.6667 18.5 13.9 18.5Z" fill="#252B33"/>
</svg>
