<svg width="48" height="48" viewBox="0 0 48 48" fill="none" xmlns="http://www.w3.org/2000/svg">
<path d="M38 17C38.85 17 39.5625 16.7125 40.1375 16.1375C40.7125 15.5625 41 14.85 41 14C41 13.15 40.7125 12.4375 40.1375 11.8625C39.5625 11.2875 38.85 11 38 11C37.15 11 36.4375 11.2875 35.8625 11.8625C35.2875 12.4375 35 13.15 35 14C35 14.85 35.2875 15.5625 35.8625 16.1375C36.4375 16.7125 37.15 17 38 17ZM38 20C36.3 20 34.875 19.425 33.725 18.275C32.575 17.125 32 15.7 32 14C32 12.3333 32.575 10.9167 33.725 9.75C34.875 8.58333 36.3 8 38 8C39.6667 8 41.0833 8.58333 42.25 9.75C43.4167 10.9167 44 12.3333 44 14C44 15.7 43.4167 17.125 42.25 18.275C41.0833 19.425 39.6667 20 38 20ZM24.0079 15C25.1026 15 26.0417 14.6167 26.825 13.85C27.6083 13.0833 28 12.1307 28 10.9922C28 9.89738 27.6111 8.95833 26.8333 8.175C26.0555 7.39167 25.1111 7 24 7C22.8667 7 21.9167 7.38888 21.15 8.16665C20.3833 8.94445 20 9.8889 20 11C20 12.1333 20.3833 13.0833 21.15 13.85C21.9167 14.6167 22.8693 15 24.0079 15ZM24 18C22.0333 18 20.375 17.325 19.025 15.975C17.675 14.625 17 12.9667 17 11C17 9.06667 17.675 7.41667 19.025 6.05C20.375 4.68333 22.0333 4 24 4C25.9333 4 27.5833 4.68333 28.95 6.05C30.3167 7.41667 31 9.06667 31 11C31 12.9667 30.3167 14.625 28.95 15.975C27.5833 17.325 25.9333 18 24 18ZM15 26.75C15 27.9045 15.6083 29.2515 16.825 30.7909C18.0417 32.3303 20.4333 34.7167 24 37.95C27.525 34.7389 29.9063 32.3778 31.1438 30.8667C32.3813 29.3556 33 27.9833 33 26.75C33 25.6833 32.6539 24.7917 31.9616 24.075C31.2693 23.3583 30.4154 23 29.4 23C28.8137 23 28.2588 23.15 27.7353 23.45C27.2118 23.75 26.7167 24.1 26.25 24.5L24 26.6L21.7 24.5C21.2333 24.1 20.7417 23.75 20.225 23.45C19.7083 23.15 19.1611 23 18.5833 23C17.5611 23 16.7083 23.3636 16.025 24.0909C15.3417 24.8182 15 25.7045 15 26.75ZM12 26.75C12 24.9833 12.6667 23.4167 14 22.05C15.3333 20.6833 16.8667 20 18.6 20C19.6 20 20.5812 20.2333 21.5436 20.7C22.506 21.1667 23.3249 21.8 24.0003 22.6C24.6757 21.8 25.4862 21.1667 26.4317 20.7C27.3772 20.2333 28.3667 20 29.4 20C31.1 20 32.625 20.6833 33.975 22.05C35.325 23.4167 36 24.9833 36 26.75C36 28.5167 35.3583 30.2583 34.075 31.975C32.7917 33.6917 30.1667 36.3667 26.2 40L24 42L21.8 40C17.7667 36.3333 15.125 33.65 13.875 31.95C12.625 30.25 12 28.5167 12 26.75ZM10 17C10.85 17 11.5625 16.7125 12.1375 16.1375C12.7125 15.5625 13 14.85 13 14C13 13.15 12.7125 12.4375 12.1375 11.8625C11.5625 11.2875 10.85 11 10 11C9.15 11 8.4375 11.2875 7.8625 11.8625C7.2875 12.4375 7 13.15 7 14C7 14.85 7.2875 15.5625 7.8625 16.1375C8.4375 16.7125 9.15 17 10 17ZM24.15 44V41H41V25H33.9V22H41C41.825 22 42.5313 22.2938 43.1188 22.8813C43.7063 23.4688 44 24.175 44 25V44H24.15ZM7 41H24.15V44H4V25C4 24.175 4.2875 23.4688 4.8625 22.8813C5.4375 22.2938 6.15 22 7 22H14.05V25H7V41ZM10 20C8.3 20 6.875 19.425 5.725 18.275C4.575 17.125 4 15.7 4 14C4 12.3333 4.575 10.9167 5.725 9.75C6.875 8.58333 8.3 8 10 8C11.6667 8 13.0833 8.58333 14.25 9.75C15.4167 10.9167 16 12.3333 16 14C16 15.7 15.4167 17.125 14.25 18.275C13.0833 19.425 11.6667 20 10 20Z" fill="#C2C2C2"/>
</svg>
