<svg width="48" height="48" viewBox="0 0 48 48" fill="none" xmlns="http://www.w3.org/2000/svg">
<path d="M14.05 16.75L17.8 13L14.05 9.25L10.3 13L14.05 16.75ZM7 28C6.2 28 5.5 27.7 4.9 27.1C4.3 26.5 4 25.8 4 25V5C4 4.2 4.3 3.5 4.9 2.9C5.5 2.3 6.2 2 7 2H41C41.8 2 42.5 2.3 43.1 2.9C43.7 3.5 44 4.2 44 5V25C44 25.8 43.7 26.5 43.1 27.1C42.5 27.7 41.8 28 41 28H33.55C33.7167 27.5333 33.8333 27.05 33.9 26.55C33.9667 26.05 34 25.5333 34 25H41V5H7V25H14C14 25.5333 14.0333 26.05 14.1 26.55C14.1667 27.05 14.2833 27.5333 14.45 28H7ZM33.003 13.75C33.7677 13.75 34.4167 13.4823 34.95 12.947C35.4833 12.4117 35.75 11.7617 35.75 10.997C35.75 10.2323 35.4823 9.58333 34.947 9.05C34.4117 8.51667 33.7617 8.25 32.997 8.25C32.2323 8.25 31.5833 8.51765 31.05 9.05295C30.5167 9.58825 30.25 10.2383 30.25 11.003C30.25 11.7677 30.5177 12.4167 31.053 12.95C31.5883 13.4833 32.2383 13.75 33.003 13.75ZM10 46V41.8C10 40.6333 10.325 39.55 10.975 38.55C11.625 37.55 12.4833 36.8 13.55 36.3C15.1833 35.5333 16.8833 34.9583 18.65 34.575C20.4167 34.1917 22.2 34 24 34C25.8 34 27.5833 34.1917 29.35 34.575C31.1167 34.9583 32.8167 35.5333 34.45 36.3C35.5167 36.8 36.375 37.55 37.025 38.55C37.675 39.55 38 40.6333 38 41.8V46H10ZM13 43H35V41.8C35 41.2125 34.8333 40.674 34.5 40.1844C34.1667 39.6948 33.7167 39.3167 33.15 39.05C31.7167 38.3833 30.2333 37.875 28.7 37.525C27.1667 37.175 25.6 37 24 37C22.4 37 20.8333 37.175 19.3 37.525C17.7667 37.875 16.2833 38.3833 14.85 39.05C14.2833 39.3167 13.8333 39.6948 13.5 40.1844C13.1667 40.674 13 41.2125 13 41.8V43ZM24 32C22.0667 32 20.4167 31.3167 19.05 29.95C17.6833 28.5833 17 26.9333 17 25C17 23.0667 17.6833 21.4167 19.05 20.05C20.4167 18.6833 22.0667 18 24 18C25.9333 18 27.5833 18.6833 28.95 20.05C30.3167 21.4167 31 23.0667 31 25C31 26.9333 30.3167 28.5833 28.95 29.95C27.5833 31.3167 25.9333 32 24 32ZM23.9883 29C25.0961 29 26.0417 28.6122 26.825 27.8367C27.6083 27.0613 28 26.1196 28 25.0117C28 23.9039 27.6122 22.9583 26.8367 22.175C26.0613 21.3917 25.1196 21 24.0117 21C22.9039 21 21.9583 21.3878 21.175 22.1633C20.3917 22.9387 20 23.8804 20 24.9883C20 26.0961 20.3878 27.0417 21.1633 27.825C21.9387 28.6083 22.8804 29 23.9883 29Z" fill="#C2C2C2"/>
</svg>
