<svg width="48" height="48" viewBox="0 0 48 48" fill="none" xmlns="http://www.w3.org/2000/svg">
<path d="M31 40.05L23 32.05L25.15 29.9L31 35.75L42.95 23.8L45.1 25.95L31 40.05ZM42 19.35H39V9H36V13.5H12V9H9V39H21.55V42H9C8.13333 42 7.41667 41.7167 6.85 41.15C6.28333 40.5833 6 39.8667 6 39V9C6 8.13333 6.28333 7.41667 6.85 6.85C7.41667 6.28333 8.13333 6 9 6H19.1C19.3333 4.83333 19.9083 3.875 20.825 3.125C21.7417 2.375 22.8 2 24 2C25.2 2 26.2583 2.375 27.175 3.125C28.0917 3.875 28.6667 4.83333 28.9 6H39C39.8667 6 40.5833 6.28333 41.15 6.85C41.7167 7.41667 42 8.13333 42 9V19.35ZM24 9C24.5667 9 25.0417 8.80833 25.425 8.425C25.8083 8.04167 26 7.56667 26 7C26 6.43333 25.8083 5.95833 25.425 5.575C25.0417 5.19167 24.5667 5 24 5C23.4333 5 22.9583 5.19167 22.575 5.575C22.1917 5.95833 22 6.43333 22 7C22 7.56667 22.1917 8.04167 22.575 8.425C22.9583 8.80833 23.4333 9 24 9Z" fill="#252B33"/>
</svg>
