<svg width="56" height="56" viewBox="0 0 56 56" fill="none" xmlns="http://www.w3.org/2000/svg">
<g clip-path="url(#clip0_318_3286)">
<path fill-rule="evenodd" clip-rule="evenodd" d="M30.3278 25.1502V25.0684C30.3111 25.0958 30.288 25.1233 30.2734 25.1502H30.3278Z" fill="#252B33"/>
<path fill-rule="evenodd" clip-rule="evenodd" d="M0 0V56H56V0H0ZM17.4181 46.5233H9.10966V21.5269H17.4181V46.5233ZM13.2639 18.1152H13.209C10.4219 18.1152 8.61538 16.1951 8.61538 13.7951C8.61538 11.3424 10.4747 9.47668 13.3183 9.47668C16.1625 9.47668 17.9103 11.3424 17.9647 13.7951C17.9647 16.1951 16.1625 18.1152 13.2639 18.1152ZM47.3846 46.5233H39.074V33.1502C39.074 29.7913 37.8732 27.4985 34.8654 27.4985C32.5682 27.4985 31.2032 29.0422 30.6018 30.5376C30.3833 31.0718 30.3262 31.8143 30.3262 32.5633V46.5234H22.0139C22.0139 46.5234 22.1253 23.872 22.0139 21.527H30.3262V25.069C31.4305 23.3697 33.4014 20.9402 37.8161 20.9402C43.2853 20.9402 47.3846 24.5119 47.3846 32.1892V46.5233Z" fill="#252B33"/>
</g>
<defs>
<clipPath id="clip0_318_3286">
<rect width="56" height="56" rx="28" fill="white"/>
</clipPath>
</defs>
</svg>
