<svg width="57" height="56" viewBox="0 0 57 56" fill="none" xmlns="http://www.w3.org/2000/svg">
<g clip-path="url(#clip0_319_3308)">
<path fill-rule="evenodd" clip-rule="evenodd" d="M30.4919 25.1502V25.0684C30.4752 25.0958 30.452 25.1233 30.4375 25.1502H30.4919Z" fill="white"/>
<path fill-rule="evenodd" clip-rule="evenodd" d="M0.164062 0V56H56.1641V0H0.164062ZM17.5822 46.5233H9.27372V21.5269H17.5822V46.5233ZM13.4279 18.1152H13.373C10.586 18.1152 8.77945 16.1951 8.77945 13.7951C8.77945 11.3424 10.6388 9.47668 13.4823 9.47668C16.3265 9.47668 18.0743 11.3424 18.1287 13.7951C18.1287 16.1951 16.3265 18.1152 13.4279 18.1152ZM47.5487 46.5233H39.238V33.1502C39.238 29.7913 38.0373 27.4985 35.0294 27.4985C32.7323 27.4985 31.3673 29.0422 30.7659 30.5376C30.5473 31.0718 30.4902 31.8143 30.4902 32.5633V46.5234H22.178C22.178 46.5234 22.2894 23.872 22.178 21.527H30.4902V25.069C31.5946 23.3697 33.5654 20.9402 37.9802 20.9402C43.4494 20.9402 47.5487 24.5119 47.5487 32.1892V46.5233Z" fill="white"/>
</g>
<defs>
<clipPath id="clip0_319_3308">
<rect x="0.164062" width="56" height="56" rx="28" fill="white"/>
</clipPath>
</defs>
</svg>
