<svg width="48" height="48" viewBox="0 0 48 48" fill="none" xmlns="http://www.w3.org/2000/svg">
<path d="M11 44C10.175 44 9.46875 43.7063 8.88125 43.1188C8.29375 42.5313 8 41.825 8 41V19.3C8 18.475 8.29375 17.7688 8.88125 17.1813C9.46875 16.5938 10.175 16.3 11 16.3H14.5V11.5C14.5 8.87167 15.4268 6.63125 17.2803 4.77875C19.1338 2.92625 21.3755 2 24.0053 2C26.6351 2 28.875 2.92625 30.725 4.77875C32.575 6.63125 33.5 8.87167 33.5 11.5V16.3H37C37.825 16.3 38.5313 16.5938 39.1188 17.1813C39.7063 17.7688 40 18.475 40 19.3V41C40 41.825 39.7063 42.5313 39.1188 43.1188C38.5313 43.7063 37.825 44 37 44H11ZM11 41H37V19.3H11V41ZM24.0084 34C25.0695 34 25.975 33.6328 26.725 32.8985C27.475 32.1641 27.85 31.2813 27.85 30.25C27.85 29.25 27.4722 28.3417 26.7166 27.525C25.961 26.7083 25.0527 26.3 23.9916 26.3C22.9305 26.3 22.025 26.7083 21.275 27.525C20.525 28.3417 20.15 29.2583 20.15 30.275C20.15 31.2917 20.5278 32.1667 21.2834 32.9C22.039 33.6333 22.9473 34 24.0084 34ZM17.5 16.3H30.5V11.5C30.5 9.69443 29.8686 8.15972 28.6059 6.89585C27.3431 5.63195 25.8098 5 24.0059 5C22.202 5 20.6667 5.63195 19.4 6.89585C18.1333 8.15972 17.5 9.69443 17.5 11.5V16.3Z" fill="#C2C2C2"/>
</svg>
