<svg width="64" height="65" viewBox="0 0 64 65" fill="none" xmlns="http://www.w3.org/2000/svg">
<path d="M12 56.084C10.9 56.084 9.95833 55.6923 9.175 54.909C8.39167 54.1257 8 53.184 8 52.084V40.6173H12V52.084H23.4667V56.084H12ZM40.5333 56.084V52.084H52V40.6173H56V52.084C56 53.184 55.6083 54.1257 54.825 54.909C54.0417 55.6923 53.1 56.084 52 56.084H40.5333ZM8 23.5507V12.084C8 10.984 8.39167 10.0423 9.175 9.25898C9.95833 8.47565 10.9 8.08398 12 8.08398H23.4667V12.084H12V23.5507H8ZM52 23.5507V12.084H40.5333V8.08398H52C53.1 8.08398 54.0417 8.47565 54.825 9.25898C55.6083 10.0423 56 10.984 56 12.084V23.5507H52ZM29.9896 36.7507C31.8632 36.7507 33.4444 36.1097 34.7333 34.8277C36.0222 33.5458 36.6667 31.968 36.6667 30.0944C36.6667 28.2208 36.0257 26.6395 34.7437 25.3507C33.4618 24.0618 31.884 23.4173 30.0104 23.4173C28.1368 23.4173 26.5556 24.0583 25.2667 25.3403C23.9778 26.6222 23.3333 28.2 23.3333 30.0736C23.3333 31.9472 23.9743 33.5284 25.2563 34.8173C26.5382 36.1062 28.116 36.7507 29.9896 36.7507ZM42.8667 45.8173L35.9333 38.884C34.9556 39.5062 33.9667 39.9729 32.9667 40.284C31.9667 40.5951 30.9882 40.7507 30.0312 40.7507C27.0771 40.7507 24.5556 39.7062 22.4667 37.6173C20.3778 35.5284 19.3333 33.0173 19.3333 30.084C19.3333 27.1507 20.3778 24.6395 22.4667 22.5507C24.5556 20.4618 27.0667 19.4173 30 19.4173C32.9333 19.4173 35.4444 20.4618 37.5333 22.5507C39.6222 24.6395 40.6667 27.1611 40.6667 30.1152C40.6667 31.0722 40.5 32.0507 40.1667 33.0507C39.8333 34.0507 39.3556 35.0395 38.7333 36.0173L45.7333 43.0173L42.8667 45.8173Z" fill="#252B33"/>
</svg>
