<svg width="40" height="40" viewBox="0 0 40 40" fill="none" xmlns="http://www.w3.org/2000/svg">
<path d="M7.5 35C6.8125 35 6.22396 34.7552 5.73438 34.2656C5.24479 33.776 5 33.1875 5 32.5V25.3333H7.5V32.5H14.6667V35H7.5ZM25.3333 35V32.5H32.5V25.3333H35V32.5C35 33.1875 34.7552 33.776 34.2656 34.2656C33.776 34.7552 33.1875 35 32.5 35H25.3333ZM5 14.6667V7.5C5 6.8125 5.24479 6.22396 5.73438 5.73438C6.22396 5.24479 6.8125 5 7.5 5H14.6667V7.5H7.5V14.6667H5ZM32.5 14.6667V7.5H25.3333V5H32.5C33.1875 5 33.776 5.24479 34.2656 5.73438C34.7552 6.22396 35 6.8125 35 7.5V14.6667H32.5ZM18.7435 22.9167C19.9145 22.9167 20.9028 22.5161 21.7083 21.7148C22.5139 20.9136 22.9167 19.9275 22.9167 18.7565C22.9167 17.5855 22.5161 16.5972 21.7148 15.7917C20.9136 14.9861 19.9275 14.5833 18.7565 14.5833C17.5855 14.5833 16.5972 14.9839 15.7917 15.7852C14.9861 16.5864 14.5833 17.5725 14.5833 18.7435C14.5833 19.9145 14.9839 20.9028 15.7852 21.7083C16.5864 22.5139 17.5725 22.9167 18.7435 22.9167ZM26.7917 28.5833L22.4583 24.25C21.8472 24.6389 21.2292 24.9306 20.6042 25.125C19.9792 25.3194 19.3676 25.4167 18.7695 25.4167C16.9232 25.4167 15.3472 24.7639 14.0417 23.4583C12.7361 22.1528 12.0833 20.5833 12.0833 18.75C12.0833 16.9167 12.7361 15.3472 14.0417 14.0417C15.3472 12.7361 16.9167 12.0833 18.75 12.0833C20.5833 12.0833 22.1528 12.7361 23.4583 14.0417C24.7639 15.3472 25.4167 16.9232 25.4167 18.7695C25.4167 19.3676 25.3125 19.9792 25.1042 20.6042C24.8958 21.2292 24.5972 21.8472 24.2083 22.4583L28.5833 26.8333L26.7917 28.5833Z" fill="#6F8463"/>
</svg>
