<svg width="48" height="48" viewBox="0 0 48 48" fill="none" xmlns="http://www.w3.org/2000/svg">
<path d="M24 16.5492L17.7 10.2492L24 3.94922L30.3 10.2492L24 16.5492ZM2 39.9992V31.9992C2 31.0326 2.34167 30.2076 3.025 29.5242C3.70833 28.8409 4.53333 28.4992 5.5 28.4992H12.55C13.1167 28.4992 13.6583 28.6409 14.175 28.9242C14.6917 29.2076 15.1333 29.5992 15.5 30.0992C16.4667 31.4992 17.7 32.5826 19.2 33.3492C20.7 34.1159 22.3 34.4992 24 34.4992C25.7 34.4992 27.3 34.1159 28.8 33.3492C30.3 32.5826 31.55 31.4992 32.55 30.0992C32.9167 29.5992 33.35 29.2076 33.85 28.9242C34.35 28.6409 34.8833 28.4992 35.45 28.4992H42.5C43.4667 28.4992 44.2917 28.8409 44.975 29.5242C45.6583 30.2076 46 31.0326 46 31.9992V39.9992H33V34.0492C31.8 35.1492 30.425 35.9992 28.875 36.5992C27.325 37.1992 25.7 37.4992 24 37.4992C22.3 37.4992 20.6833 37.1992 19.15 36.5992C17.6167 35.9992 16.2333 35.1492 15 34.0492V39.9992H2ZM8 24.9992C6.5 24.9992 5.20833 24.4576 4.125 23.3742C3.04167 22.2909 2.5 20.9992 2.5 19.4992C2.5 17.9659 3.04167 16.6659 4.125 15.5992C5.20833 14.5326 6.5 13.9992 8 13.9992C9.53333 13.9992 10.8333 14.5326 11.9 15.5992C12.9667 16.6659 13.5 17.9659 13.5 19.4992C13.5 20.9992 12.9667 22.2909 11.9 23.3742C10.8333 24.4576 9.53333 24.9992 8 24.9992ZM40 24.9992C38.5 24.9992 37.2083 24.4576 36.125 23.3742C35.0417 22.2909 34.5 20.9992 34.5 19.4992C34.5 17.9659 35.0417 16.6659 36.125 15.5992C37.2083 14.5326 38.5 13.9992 40 13.9992C41.5333 13.9992 42.8333 14.5326 43.9 15.5992C44.9667 16.6659 45.5 17.9659 45.5 19.4992C45.5 20.9992 44.9667 22.2909 43.9 23.3742C42.8333 24.4576 41.5333 24.9992 40 24.9992Z" fill="#252B33"/>
</svg>
