<svg width="64" height="65" viewBox="0 0 64 65" fill="none" xmlns="http://www.w3.org/2000/svg">
<path d="M51.0663 56.084C49.2441 56.084 47.6552 55.5395 46.2997 54.4507C44.9441 53.3618 44.0886 52.0395 43.733 50.484H29.533C26.5997 50.484 24.1663 49.5173 22.233 47.584C20.2997 45.6507 19.333 43.2173 19.333 40.284C19.333 37.3507 20.2997 34.9173 22.233 32.984C24.1663 31.0507 26.5997 30.084 29.533 30.084H34.6663C36.4886 30.084 37.9775 29.5062 39.133 28.3507C40.2886 27.1951 40.8663 25.7062 40.8663 23.884C40.8663 22.0618 40.2886 20.5729 39.133 19.4173C37.9775 18.2618 36.4886 17.684 34.6663 17.684H20.2663C19.8663 19.2395 18.9997 20.5618 17.6663 21.6507C16.333 22.7395 14.7552 23.284 12.933 23.284C10.7997 23.284 8.99967 22.5507 7.53301 21.084C6.06634 19.6173 5.33301 17.8173 5.33301 15.684C5.33301 13.5507 6.06634 11.7507 7.53301 10.284C8.99967 8.81732 10.7997 8.08398 12.933 8.08398C14.7552 8.08398 16.333 8.62843 17.6663 9.71732C18.9997 10.8062 19.8663 12.1284 20.2663 13.684H34.6663C37.5997 13.684 40.033 14.6507 41.9663 16.584C43.8997 18.5173 44.8663 20.9507 44.8663 23.884C44.8663 26.8173 43.8997 29.2507 41.9663 31.184C40.033 33.1173 37.5997 34.084 34.6663 34.084H29.533C27.7108 34.084 26.2219 34.6618 25.0663 35.8173C23.9108 36.9729 23.333 38.4618 23.333 40.284C23.333 42.1062 23.9108 43.5951 25.0663 44.7507C26.2219 45.9062 27.7108 46.484 29.533 46.484H43.733C44.133 44.9284 44.9997 43.6062 46.333 42.5173C47.6663 41.4284 49.2441 40.884 51.0663 40.884C53.1997 40.884 54.9997 41.6173 56.4663 43.084C57.933 44.5507 58.6663 46.3507 58.6663 48.484C58.6663 50.6173 57.933 52.4173 56.4663 53.884C54.9997 55.3507 53.1997 56.084 51.0663 56.084ZM12.933 19.284C13.9552 19.284 14.8108 18.9395 15.4997 18.2507C16.1886 17.5618 16.533 16.7062 16.533 15.684C16.533 14.6618 16.1886 13.8062 15.4997 13.1173C14.8108 12.4284 13.9552 12.084 12.933 12.084C11.9108 12.084 11.0552 12.4284 10.3663 13.1173C9.67745 13.8062 9.33301 14.6618 9.33301 15.684C9.33301 16.7062 9.67745 17.5618 10.3663 18.2507C11.0552 18.9395 11.9108 19.284 12.933 19.284Z" fill="#252B33"/>
</svg>
