<svg width="24" height="24" viewBox="0 0 24 24" fill="none" xmlns="http://www.w3.org/2000/svg">
<path d="M2.175 10C2.10833 9.75 2.0625 9.5 2.0375 9.25C2.0125 9 2 8.74167 2 8.475C2 6.90833 2.525 5.60417 3.575 4.5625C4.625 3.52083 5.93333 3 7.5 3C8.35 3 9.17083 3.18333 9.9625 3.55C10.7542 3.91667 11.4333 4.43333 12 5.1C12.5667 4.43333 13.2417 3.91667 14.025 3.55C14.8083 3.18333 15.6333 3 16.5 3C18.0667 3 19.375 3.52083 20.425 4.5625C21.475 5.60417 22 6.90833 22 8.475V8.525C21.6833 8.24167 21.3417 7.99583 20.975 7.7875C20.6083 7.57917 20.2167 7.40833 19.8 7.275C19.5667 6.59167 19.15 6.04167 18.55 5.625C17.95 5.20833 17.2667 5 16.5 5C15.7833 5 15.0917 5.2125 14.425 5.6375C13.7583 6.0625 13.1417 6.68333 12.575 7.5H11.425C10.875 6.7 10.2583 6.08333 9.575 5.65C8.89167 5.21667 8.2 5 7.5 5C6.51667 5 5.6875 5.3375 5.0125 6.0125C4.3375 6.6875 4 7.50833 4 8.475C4 8.74167 4.025 8.99583 4.075 9.2375C4.125 9.47917 4.2 9.73333 4.3 10H2.175ZM12 21L8.825 18.15C8.375 17.7333 7.95833 17.35 7.575 17C7.19167 16.65 6.83333 16.3167 6.5 16H9.425C9.80833 16.3333 10.2125 16.6917 10.6375 17.075C11.0625 17.4583 11.5167 17.8667 12 18.3C12.2833 18.0667 12.5458 17.8417 12.7875 17.625C13.0292 17.4083 13.2667 17.1917 13.5 16.975C13.7333 17.225 13.9792 17.4542 14.2375 17.6625C14.4958 17.8708 14.775 18.0583 15.075 18.225L12 21ZM18 17C17.7167 17 17.4792 16.9042 17.2875 16.7125C17.0958 16.5208 17 16.2833 17 16C17 15.7167 17.0958 15.4792 17.2875 15.2875C17.4792 15.0958 17.7167 15 18 15C18.2833 15 18.5208 15.0958 18.7125 15.2875C18.9042 15.4792 19 15.7167 19 16C19 16.2833 18.9042 16.5208 18.7125 16.7125C18.5208 16.9042 18.2833 17 18 17ZM17 14V9H19V14H17ZM1 14V12H5.45L7.2 9.425C7.3 9.275 7.42083 9.16667 7.5625 9.1C7.70417 9.03333 7.85833 9 8.025 9C8.19167 9 8.34583 9.0375 8.4875 9.1125C8.62917 9.1875 8.75 9.3 8.85 9.45L10.55 12H12.1C12.0667 12.1667 12.0417 12.3292 12.025 12.4875C12.0083 12.6458 12 12.8167 12 13C12 13.1833 12.0083 13.3542 12.025 13.5125C12.0417 13.6708 12.0667 13.8333 12.1 14H10C9.83333 14 9.675 13.9583 9.525 13.875C9.375 13.7917 9.25833 13.6833 9.175 13.55L8 11.8L6.825 13.55C6.74167 13.6833 6.625 13.7917 6.475 13.875C6.325 13.9583 6.16667 14 6 14H1Z" fill="#252B33"/>
</svg>
