<svg width="60" height="60" viewBox="0 0 60 60" fill="none" xmlns="http://www.w3.org/2000/svg">
<path d="M39.1875 42.0625L42 39.25L32.0625 29.25V16.6875H28.3125V30.75L39.1875 42.0625ZM30 55C26.5833 55 23.3542 54.3438 20.3125 53.0313C17.2708 51.7188 14.6146 49.9271 12.3438 47.6563C10.0729 45.3854 8.28125 42.7292 6.96875 39.6875C5.65625 36.6458 5 33.4167 5 30C5 26.5833 5.65625 23.3542 6.96875 20.3125C8.28125 17.2708 10.0729 14.6146 12.3438 12.3438C14.6146 10.0729 17.2708 8.28125 20.3125 6.96875C23.3542 5.65625 26.5833 5 30 5C33.4167 5 36.6458 5.65625 39.6875 6.96875C42.7292 8.28125 45.3854 10.0729 47.6563 12.3438C49.9271 14.6146 51.7188 17.2708 53.0313 20.3125C54.3438 23.3542 55 26.5833 55 30C55 33.4167 54.3438 36.6458 53.0313 39.6875C51.7188 42.7292 49.9271 45.3854 47.6563 47.6563C45.3854 49.9271 42.7292 51.7188 39.6875 53.0313C36.6458 54.3438 33.4167 55 30 55ZM30 51.25C35.8333 51.25 40.8333 49.1667 45 45C49.1667 40.8333 51.25 35.8333 51.25 30C51.25 24.1667 49.1667 19.1667 45 15C40.8333 10.8333 35.8333 8.75 30 8.75C24.1667 8.75 19.1667 10.8333 15 15C10.8333 19.1667 8.75 24.1667 8.75 30C8.75 35.8333 10.8333 40.8333 15 45C19.1667 49.1667 24.1667 51.25 30 51.25Z" fill="#545454"/>
</svg>
