<svg width="81" height="80" viewBox="0 0 81 80" fill="none" xmlns="http://www.w3.org/2000/svg">
<path d="M52.5843 56.0834L56.3343 52.3334L43.0843 39.0001V22.2501H38.0843V41.0001L52.5843 56.0834ZM40.3343 73.3334C35.7788 73.3334 31.4732 72.4584 27.4176 70.7084C23.3621 68.9584 19.8204 66.5695 16.7926 63.5417C13.7649 60.514 11.376 56.9723 9.62598 52.9167C7.87598 48.8612 7.00098 44.5556 7.00098 40.0001C7.00098 35.4445 7.87598 31.139 9.62598 27.0834C11.376 23.0279 13.7649 19.4862 16.7926 16.4584C19.8204 13.4306 23.3621 11.0417 27.4176 9.29175C31.4732 7.54175 35.7788 6.66675 40.3343 6.66675C44.8899 6.66675 49.1954 7.54175 53.251 9.29175C57.3065 11.0417 60.8482 13.4306 63.876 16.4584C66.9038 19.4862 69.2926 23.0279 71.0426 27.0834C72.7926 31.139 73.6676 35.4445 73.6676 40.0001C73.6676 44.5556 72.7926 48.8612 71.0426 52.9167C69.2926 56.9723 66.9038 60.514 63.876 63.5417C60.8482 66.5695 57.3065 68.9584 53.251 70.7084C49.1954 72.4584 44.8899 73.3334 40.3343 73.3334ZM40.3343 68.3334C48.1121 68.3334 54.7788 65.5556 60.3343 60.0001C65.8899 54.4445 68.6676 47.7779 68.6676 40.0001C68.6676 32.2223 65.8899 25.5556 60.3343 20.0001C54.7788 14.4445 48.1121 11.6667 40.3343 11.6667C32.5565 11.6667 25.8899 14.4445 20.3343 20.0001C14.7788 25.5556 12.001 32.2223 12.001 40.0001C12.001 47.7779 14.7788 54.4445 20.3343 60.0001C25.8899 65.5556 32.5565 68.3334 40.3343 68.3334Z" fill="#6F8463"/>
</svg>
