<svg width="64" height="65" viewBox="0 0 64 65" fill="none" xmlns="http://www.w3.org/2000/svg">
<path d="M15.333 56.0842C12.533 56.0842 10.1663 55.1176 8.23301 53.1842C6.29967 51.2509 5.33301 48.8842 5.33301 46.0842C5.33301 43.2842 6.29967 40.9176 8.23301 38.9842C10.1663 37.0509 12.533 36.0842 15.333 36.0842C18.133 36.0842 20.4997 37.0509 22.433 38.9842C24.3663 40.9176 25.333 43.2842 25.333 46.0842C25.333 48.8842 24.3663 51.2509 22.433 53.1842C20.4997 55.1176 18.133 56.0842 15.333 56.0842ZM48.733 56.0842C45.933 56.0842 43.5663 55.1176 41.633 53.1842C39.6997 51.2509 38.733 48.8842 38.733 46.0842C38.733 43.2842 39.6997 40.9176 41.633 38.9842C43.5663 37.0509 45.933 36.0842 48.733 36.0842C51.533 36.0842 53.8997 37.0509 55.833 38.9842C57.7663 40.9176 58.733 43.2842 58.733 46.0842C58.733 48.8842 57.7663 51.2509 55.833 53.1842C53.8997 55.1176 51.533 56.0842 48.733 56.0842ZM15.3271 52.0842C16.9755 52.0842 18.3886 51.4973 19.5663 50.3235C20.7441 49.1496 21.333 47.7385 21.333 46.0902C21.333 44.4418 20.7461 43.0287 19.5723 41.8509C18.3984 40.6731 16.9873 40.0842 15.3389 40.0842C13.6905 40.0842 12.2775 40.6712 11.0997 41.845C9.9219 43.0188 9.33301 44.43 9.33301 46.0783C9.33301 47.7267 9.91992 49.1398 11.0937 50.3176C12.2676 51.4954 13.6787 52.0842 15.3271 52.0842ZM48.7271 52.0842C50.3755 52.0842 51.7886 51.4973 52.9663 50.3235C54.1441 49.1496 54.733 47.7385 54.733 46.0902C54.733 44.4418 54.1461 43.0287 52.9723 41.8509C51.7984 40.6731 50.3873 40.0842 48.7389 40.0842C47.0905 40.0842 45.6775 40.6712 44.4997 41.845C43.3219 43.0188 42.733 44.43 42.733 46.0783C42.733 47.7267 43.3199 49.1398 44.4937 50.3176C45.6676 51.4954 47.0787 52.0842 48.7271 52.0842ZM32.0663 28.0176C29.2663 28.0176 26.8997 27.0509 24.9663 25.1176C23.033 23.1842 22.0663 20.8176 22.0663 18.0176C22.0663 15.2176 23.033 12.8509 24.9663 10.9176C26.8997 8.98424 29.2663 8.01758 32.0663 8.01758C34.8663 8.01758 37.233 8.98424 39.1663 10.9176C41.0997 12.8509 42.0663 15.2176 42.0663 18.0176C42.0663 20.8176 41.0997 23.1842 39.1663 25.1176C37.233 27.0509 34.8663 28.0176 32.0663 28.0176ZM32.0604 24.0176C33.7088 24.0176 35.1219 23.4307 36.2997 22.2568C37.4775 21.083 38.0663 19.6719 38.0663 18.0235C38.0663 16.3751 37.4794 14.962 36.3056 13.7842C35.1317 12.6065 33.7206 12.0176 32.0723 12.0176C30.4239 12.0176 29.0108 12.6045 27.833 13.7783C26.6552 14.9522 26.0663 16.3633 26.0663 18.0116C26.0663 19.66 26.6533 21.0731 27.8271 22.2509C29.0009 23.4287 30.4121 24.0176 32.0604 24.0176Z" fill="#6F8463"/>
</svg>
