<svg width="80" height="80" viewBox="0 0 80 80" fill="none" xmlns="http://www.w3.org/2000/svg">
<path d="M9.16634 60C7.55523 60 6.18023 59.4306 5.04134 58.2917C3.90245 57.1528 3.33301 55.7778 3.33301 54.1667C3.33301 52.5556 3.90245 51.1806 5.04134 50.0417C6.18023 48.9028 7.55523 48.3333 9.16634 48.3333C9.44412 48.3333 9.7219 48.3472 9.99967 48.375C10.2775 48.4028 10.6386 48.4722 11.083 48.5833L27.7497 31.9167C27.6386 31.4722 27.5691 31.1111 27.5413 30.8333C27.5136 30.5556 27.4997 30.2778 27.4997 30C27.4997 28.3889 28.0691 27.0139 29.208 25.875C30.3469 24.7361 31.7219 24.1667 33.333 24.1667C34.9441 24.1667 36.3191 24.7361 37.458 25.875C38.5969 27.0139 39.1663 28.3889 39.1663 30C39.1663 30.1111 39.083 30.75 38.9163 31.9167L48.083 41.0833C48.5275 40.9722 48.8886 40.9028 49.1663 40.875C49.4441 40.8472 49.7219 40.8333 49.9997 40.8333C50.2775 40.8333 50.5552 40.8472 50.833 40.875C51.1108 40.9028 51.4719 40.9722 51.9163 41.0833L65.2497 27.75C65.1386 27.3056 65.0691 26.9444 65.0413 26.6667C65.0136 26.3889 64.9997 26.1111 64.9997 25.8333C64.9997 24.2222 65.5691 22.8472 66.708 21.7083C67.8469 20.5694 69.2219 20 70.833 20C72.4441 20 73.8191 20.5694 74.958 21.7083C76.0969 22.8472 76.6663 24.2222 76.6663 25.8333C76.6663 27.4444 76.0969 28.8194 74.958 29.9583C73.8191 31.0972 72.4441 31.6667 70.833 31.6667C70.5552 31.6667 70.2775 31.6528 69.9997 31.625C69.7219 31.5972 69.3608 31.5278 68.9163 31.4167L55.583 44.75C55.6941 45.1944 55.7636 45.5556 55.7913 45.8333C55.8191 46.1111 55.833 46.3889 55.833 46.6667C55.833 48.2778 55.2636 49.6528 54.1247 50.7917C52.9858 51.9306 51.6108 52.5 49.9997 52.5C48.3886 52.5 47.0136 51.9306 45.8747 50.7917C44.7358 49.6528 44.1663 48.2778 44.1663 46.6667C44.1663 46.3889 44.1802 46.1111 44.208 45.8333C44.2358 45.5556 44.3052 45.1944 44.4163 44.75L35.2497 35.5833C34.8052 35.6944 34.4441 35.7639 34.1663 35.7917C33.8886 35.8194 33.6108 35.8333 33.333 35.8333C33.2219 35.8333 32.583 35.75 31.4163 35.5833L14.7497 52.25C14.8608 52.6944 14.9302 53.0556 14.958 53.3333C14.9858 53.6111 14.9997 53.8889 14.9997 54.1667C14.9997 55.7778 14.4302 57.1528 13.2913 58.2917C12.1525 59.4306 10.7775 60 9.16634 60Z" fill="#6F8463"/>
</svg>
