<svg width="60" height="60" viewBox="0 0 60 60" fill="none" xmlns="http://www.w3.org/2000/svg">
<path d="M45.7143 52.5C45.4762 52.5 45.2579 52.4603 45.0595 52.381C44.8611 52.3016 44.6627 52.1627 44.4643 51.9643L30.0595 37.5595C29.8611 37.3611 29.7222 37.1627 29.6429 36.9643C29.5635 36.7659 29.5238 36.5476 29.5238 36.3095C29.5238 36.0714 29.5635 35.8532 29.6429 35.6548C29.7222 35.4563 29.8611 35.2579 30.0595 35.0595L35.119 30C35.3175 29.8016 35.5159 29.6627 35.7143 29.5833C35.9127 29.504 36.131 29.4643 36.369 29.4643C36.6071 29.4643 36.8254 29.504 37.0238 29.5833C37.2222 29.6627 37.4206 29.8016 37.619 30L52.0238 44.4048C52.2222 44.6032 52.3611 44.8016 52.4405 45C52.5198 45.1984 52.5595 45.4167 52.5595 45.6548C52.5595 45.8929 52.5198 46.1111 52.4405 46.3095C52.3611 46.5079 52.2222 46.7063 52.0238 46.9048L46.9643 51.9643C46.7659 52.1627 46.5675 52.3016 46.369 52.381C46.1706 52.4603 45.9524 52.5 45.7143 52.5ZM45.7143 48.2143L48.2738 45.6548L36.369 33.75L33.8095 36.3095L45.7143 48.2143ZM11.8452 52.5C11.6071 52.5 11.379 52.4603 11.1607 52.381C10.9425 52.3016 10.7341 52.1627 10.5357 51.9643L5.53571 46.9643C5.3373 46.7659 5.19841 46.5575 5.11905 46.3393C5.03968 46.121 5 45.8929 5 45.6548C5 45.4167 5.03968 45.1984 5.11905 45C5.19841 44.8016 5.3373 44.6032 5.53571 44.4048L18.9286 31.0119H23.9881L26.25 28.75L15.8333 18.3333H12.4405L5 10.8929L10.8929 5L18.3333 12.4405V15.8333L28.75 26.25L36.4881 18.5119L32.5 14.5238L35.8333 11.1905H29.1071L28.0357 10.119L35.6548 2.5L36.7262 3.57143V10.2976L40.0595 6.96429L50.119 17.0238C50.7143 17.619 51.1806 18.3036 51.5179 19.0774C51.8552 19.8512 52.0238 20.6746 52.0238 21.5476C52.0238 22.3413 51.8948 23.1052 51.6369 23.8393C51.379 24.5734 51.0119 25.2381 50.5357 25.8333L45.4762 20.7738L42.1429 24.1071L39.0476 21.0119L26.4881 33.5714V38.5714L13.0952 51.9643C12.8968 52.1627 12.6984 52.3016 12.5 52.381C12.3016 52.4603 12.0833 52.5 11.8452 52.5ZM11.8452 48.2143L23.75 36.3095V33.75H21.1905L9.28571 45.6548L11.8452 48.2143ZM11.8452 48.2143L9.28571 45.6548L10.5952 46.9048L11.8452 48.2143Z" fill="#FDFDFD"/>
</svg>
