<svg width="130" height="130" viewBox="0 0 130 130" fill="none" xmlns="http://www.w3.org/2000/svg">
<circle cx="65" cy="65" r="65" fill="#111111"/>
<path d="M23.625 44.5H43.45V45.735H39.875V66.275L40.395 66.145L58.725 45.735H53.59V44.5H64.965V45.735H61.065L49.885 58.215L65.485 88.765H68.995V90H48.13V88.765H51.185L40.46 68.03L39.875 68.16V88.765H43.45V90H23.625V88.765H27.2V45.735H23.625V44.5ZM88.6416 89.285C90.8083 89.285 92.7149 88.7 94.3616 87.53C96.0516 86.36 96.8966 84.605 96.8966 82.265C96.8966 79.8817 95.9866 78.0617 94.1666 76.805C92.3899 75.5483 89.8333 74.465 86.4966 73.555C83.2033 72.6017 80.7983 71.7783 79.2816 71.085C77.8083 70.3917 76.3999 69.4817 75.0566 68.355C72.3699 66.1017 71.0266 62.6133 71.0266 57.89C71.0266 54.0333 72.3916 50.7183 75.1216 47.945C77.8949 45.1717 81.6649 43.785 86.4316 43.785C88.7283 43.785 91.1116 44.1317 93.5816 44.825C96.0949 45.475 97.6549 45.8 98.2616 45.8C98.8683 45.8 99.4099 45.3667 99.8866 44.5H100.602L101.057 57.63H100.017C97.9366 53.86 95.7483 50.8483 93.4516 48.595C91.1983 46.2983 88.7283 45.15 86.0416 45.15C83.3983 45.15 81.3399 45.7783 79.8666 47.035C78.3933 48.2483 77.6566 49.895 77.6566 51.975C77.6566 54.0117 78.5233 55.5933 80.2566 56.72C82.0333 57.8033 84.1999 58.6917 86.7566 59.385C89.3133 60.0783 90.9816 60.555 91.7616 60.815C92.5849 61.075 93.5816 61.4433 94.7516 61.92C95.9649 62.3533 96.9399 62.83 97.6766 63.35C98.4566 63.8267 99.2583 64.455 100.082 65.235C100.948 65.9717 101.62 66.795 102.097 67.705C103.267 69.785 103.852 72.255 103.852 75.115C103.852 79.795 102.378 83.565 99.4316 86.425C96.5283 89.2417 92.6933 90.65 87.9266 90.65C85.4566 90.65 82.6183 90.325 79.4116 89.675C76.2483 89.025 74.4933 88.7 74.1466 88.7C73.5399 88.7 72.9549 89.35 72.3916 90.65H71.4816L70.8316 75.18H71.9366C73.8433 78.95 76.2699 82.2433 79.2166 85.06C82.2066 87.8767 85.3483 89.285 88.6416 89.285Z" fill="white"/>
</svg>
