<svg width="64" height="65" viewBox="0 0 64 65" fill="none" xmlns="http://www.w3.org/2000/svg">
<path d="M23.5997 58.7503C21.1108 58.7503 18.7552 58.2948 16.533 57.3837C14.3108 56.4725 12.333 55.1503 10.5997 53.417C8.91079 51.7281 7.61079 49.7837 6.69967 47.5837C5.78856 45.3837 5.33301 43.017 5.33301 40.4837C5.33301 36.9281 6.25523 33.6837 8.09967 30.7503C9.94412 27.817 12.3997 25.6392 15.4663 24.217C16.3552 22.3503 17.533 20.6837 18.9997 19.217C20.4663 17.7503 22.1775 16.5281 24.133 15.5503C25.5552 12.3948 27.7219 9.91699 30.633 8.11699C33.5441 6.31699 36.8219 5.41699 40.4663 5.41699C42.9552 5.41699 45.2997 5.87255 47.4997 6.78366C49.6997 7.69477 51.6441 9.01699 53.333 10.7503C55.0219 12.4837 56.333 14.4392 57.2663 16.617C58.1997 18.7948 58.6663 21.1281 58.6663 23.617C58.6663 27.3503 57.8108 30.6059 56.0997 33.3837C54.3886 36.1614 51.8663 38.3503 48.533 39.9503C47.6441 41.9059 46.4774 43.6059 45.033 45.0503C43.5886 46.4948 41.8663 47.6837 39.8663 48.617C38.4441 51.7725 36.2775 54.2503 33.3663 56.0503C30.4552 57.8503 27.1997 58.7503 23.5997 58.7503ZM23.5997 54.7503C25.5997 54.7503 27.5219 54.317 29.3663 53.4503C31.2108 52.5837 32.7108 51.4392 33.8663 50.017C31.0663 50.3281 28.3886 50.0503 25.833 49.1837C23.2775 48.317 21.0219 46.9281 19.0663 45.017C17.1108 43.1059 15.7108 40.8614 14.8663 38.2837C14.0219 35.7059 13.7552 33.017 14.0663 30.217C12.5997 31.3725 11.4441 32.8725 10.5997 34.717C9.75523 36.5614 9.33301 38.4837 9.33301 40.4837C9.33301 42.4837 9.68856 44.3503 10.3997 46.0837C11.1108 47.817 12.133 49.3281 13.4663 50.617C14.7997 51.9059 16.3219 52.917 18.033 53.6503C19.7441 54.3837 21.5997 54.7503 23.5997 54.7503ZM31.9997 46.2837C33.9997 46.2837 35.9108 45.8614 37.733 45.017C39.5552 44.1725 41.0886 43.017 42.333 41.5503C39.533 41.8614 36.8663 41.5614 34.333 40.6503C31.7997 39.7392 29.5775 38.3059 27.6663 36.3503C25.7108 34.3503 24.2886 32.0725 23.3997 29.517C22.5108 26.9614 22.2441 24.2837 22.5997 21.4837C20.8219 23.1725 19.5775 24.8059 18.8663 26.3837C18.1552 27.9614 17.7997 29.8614 17.7997 32.0837C17.7997 34.0392 18.1552 35.8837 18.8663 37.617C19.5775 39.3503 20.5997 40.8837 21.933 42.217C23.2219 43.5059 24.733 44.5059 26.4663 45.217C28.1997 45.9281 30.0441 46.2837 31.9997 46.2837ZM40.733 37.6837C41.4886 37.6837 42.2552 37.6059 43.033 37.4503C43.8108 37.2948 44.6441 37.0392 45.533 36.6837C46.4663 34.0614 46.6219 31.4725 45.9997 28.917C45.3774 26.3614 44.0663 24.0837 42.0663 22.0837C40.1997 20.217 37.8552 18.9503 35.033 18.2837C32.2108 17.617 29.5997 17.7059 27.1997 18.5503C26.9775 19.3059 26.8108 20.0837 26.6997 20.8837C26.5886 21.6837 26.533 22.5948 26.533 23.617C26.533 25.4837 26.8886 27.2837 27.5997 29.017C28.3108 30.7503 29.333 32.3059 30.6663 33.6837C31.9997 35.1059 33.533 36.1281 35.2663 36.7503C36.9997 37.3725 38.8219 37.6837 40.733 37.6837ZM50.2663 34.0837C51.7774 32.7948 52.8886 31.3059 53.5997 29.617C54.3108 27.9281 54.6663 25.9281 54.6663 23.617C54.6663 21.7059 54.3108 19.8948 53.5997 18.1837C52.8886 16.4725 51.8663 14.9503 50.533 13.617C49.1552 12.2392 47.6108 11.1948 45.8997 10.4837C44.1886 9.77255 42.3775 9.41699 40.4663 9.41699C38.2886 9.41699 36.3108 9.78366 34.533 10.517C32.7552 11.2503 31.1552 12.3948 29.733 13.9503C32.533 13.6392 35.2441 13.9392 37.8663 14.8503C40.4886 15.7614 42.8219 17.217 44.8663 19.217C46.9108 21.217 48.3997 23.4948 49.333 26.0503C50.2663 28.6059 50.5774 31.2837 50.2663 34.0837Z" fill="#6F8463"/>
</svg>
