<svg width="64" height="65" viewBox="0 0 64 65" fill="none" xmlns="http://www.w3.org/2000/svg">
<path d="M23.5997 58.7513C21.1108 58.7513 18.7552 58.2957 16.533 57.3846C14.3108 56.4735 12.333 55.1513 10.5997 53.418C8.91079 51.7291 7.61079 49.7846 6.69967 47.5846C5.78856 45.3846 5.33301 43.018 5.33301 40.4846C5.33301 36.9291 6.25523 33.6846 8.09967 30.7513C9.94412 27.818 12.3997 25.6402 15.4663 24.218C16.3552 22.3513 17.533 20.6846 18.9997 19.218C20.4663 17.7513 22.1775 16.5291 24.133 15.5513C25.5552 12.3957 27.7219 9.91797 30.633 8.11797C33.5441 6.31797 36.8219 5.41797 40.4663 5.41797C42.9552 5.41797 45.2997 5.87352 47.4997 6.78464C49.6997 7.69575 51.6441 9.01797 53.333 10.7513C55.0219 12.4846 56.333 14.4402 57.2663 16.618C58.1997 18.7957 58.6663 21.1291 58.6663 23.618C58.6663 27.3513 57.8108 30.6069 56.0997 33.3846C54.3886 36.1624 51.8663 38.3513 48.533 39.9513C47.6441 41.9069 46.4774 43.6069 45.033 45.0513C43.5886 46.4957 41.8663 47.6846 39.8663 48.618C38.4441 51.7735 36.2775 54.2513 33.3663 56.0513C30.4552 57.8513 27.1997 58.7513 23.5997 58.7513ZM23.5997 54.7513C25.5997 54.7513 27.5219 54.318 29.3663 53.4513C31.2108 52.5846 32.7108 51.4402 33.8663 50.018C31.0663 50.3291 28.3886 50.0513 25.833 49.1846C23.2775 48.318 21.0219 46.9291 19.0663 45.018C17.1108 43.1069 15.7108 40.8624 14.8663 38.2846C14.0219 35.7069 13.7552 33.018 14.0663 30.218C12.5997 31.3735 11.4441 32.8735 10.5997 34.718C9.75523 36.5624 9.33301 38.4846 9.33301 40.4846C9.33301 42.4846 9.68856 44.3513 10.3997 46.0846C11.1108 47.818 12.133 49.3291 13.4663 50.618C14.7997 51.9069 16.3219 52.918 18.033 53.6513C19.7441 54.3846 21.5997 54.7513 23.5997 54.7513ZM31.9997 46.2846C33.9997 46.2846 35.9108 45.8624 37.733 45.018C39.5552 44.1735 41.0886 43.018 42.333 41.5513C39.533 41.8624 36.8663 41.5624 34.333 40.6513C31.7997 39.7402 29.5775 38.3069 27.6663 36.3513C25.7108 34.3513 24.2886 32.0735 23.3997 29.518C22.5108 26.9624 22.2441 24.2846 22.5997 21.4846C20.8219 23.1735 19.5775 24.8069 18.8663 26.3846C18.1552 27.9624 17.7997 29.8624 17.7997 32.0846C17.7997 34.0402 18.1552 35.8846 18.8663 37.618C19.5775 39.3513 20.5997 40.8846 21.933 42.218C23.2219 43.5069 24.733 44.5069 26.4663 45.218C28.1997 45.9291 30.0441 46.2846 31.9997 46.2846ZM40.733 37.6846C41.4886 37.6846 42.2552 37.6069 43.033 37.4513C43.8108 37.2957 44.6441 37.0402 45.533 36.6846C46.4663 34.0624 46.6219 31.4735 45.9997 28.918C45.3774 26.3624 44.0663 24.0846 42.0663 22.0846C40.1997 20.218 37.8552 18.9513 35.033 18.2846C32.2108 17.618 29.5997 17.7069 27.1997 18.5513C26.9775 19.3069 26.8108 20.0846 26.6997 20.8846C26.5886 21.6846 26.533 22.5957 26.533 23.618C26.533 25.4846 26.8886 27.2846 27.5997 29.018C28.3108 30.7513 29.333 32.3069 30.6663 33.6846C31.9997 35.1069 33.533 36.1291 35.2663 36.7513C36.9997 37.3735 38.8219 37.6846 40.733 37.6846ZM50.2663 34.0846C51.7774 32.7957 52.8886 31.3069 53.5997 29.618C54.3108 27.9291 54.6663 25.9291 54.6663 23.618C54.6663 21.7069 54.3108 19.8957 53.5997 18.1846C52.8886 16.4735 51.8663 14.9513 50.533 13.618C49.1552 12.2402 47.6108 11.1957 45.8997 10.4846C44.1886 9.77352 42.3775 9.41797 40.4663 9.41797C38.2886 9.41797 36.3108 9.78464 34.533 10.518C32.7552 11.2513 31.1552 12.3957 29.733 13.9513C32.533 13.6402 35.2441 13.9402 37.8663 14.8513C40.4886 15.7624 42.8219 17.218 44.8663 19.218C46.9108 21.218 48.3997 23.4957 49.333 26.0513C50.2663 28.6069 50.5774 31.2846 50.2663 34.0846Z" fill="#252B33"/>
</svg>
