<svg width="40" height="40" viewBox="0 0 40 40" fill="none" xmlns="http://www.w3.org/2000/svg">
<path d="M10.0047 24.8327C9.55734 24.8327 9.18088 24.6814 8.87533 24.3787C8.56977 24.0761 8.41699 23.7011 8.41699 23.2537C8.41699 22.8064 8.56831 22.4299 8.87095 22.1243C9.17356 21.8188 9.54856 21.666 9.99595 21.666C10.4433 21.666 10.8198 21.8173 11.1253 22.12C11.4309 22.4226 11.5837 22.7976 11.5837 23.245C11.5837 23.6923 11.4323 24.0688 11.1297 24.3743C10.8271 24.6799 10.4521 24.8327 10.0047 24.8327ZM10.0047 31.5827C9.55734 31.5827 9.18088 31.4314 8.87533 31.1287C8.56977 30.8261 8.41699 30.4511 8.41699 30.0037C8.41699 29.5564 8.56831 29.1799 8.87095 28.8743C9.17356 28.5688 9.54856 28.416 9.99595 28.416C10.4433 28.416 10.8198 28.5673 11.1253 28.87C11.4309 29.1726 11.5837 29.5476 11.5837 29.995C11.5837 30.4423 11.4323 30.8188 11.1297 31.1243C10.8271 31.4299 10.4521 31.5827 10.0047 31.5827ZM10.0047 18.3327C9.55734 18.3327 9.18088 18.1814 8.87533 17.8787C8.56977 17.5761 8.41699 17.2011 8.41699 16.7537C8.41699 16.3064 8.56831 15.9299 8.87095 15.6243C9.17356 15.3188 9.54856 15.166 9.99595 15.166C10.4433 15.166 10.8198 15.3173 11.1253 15.62C11.4309 15.9226 11.5837 16.2976 11.5837 16.745C11.5837 17.1923 11.4323 17.5688 11.1297 17.8743C10.8271 18.1799 10.4521 18.3327 10.0047 18.3327ZM5.04199 17.6243C4.79199 17.6243 4.58366 17.541 4.41699 17.3743C4.25033 17.2077 4.16699 16.9993 4.16699 16.7493C4.16699 16.4993 4.25033 16.291 4.41699 16.1243C4.58366 15.9577 4.79199 15.8743 5.04199 15.8743C5.29199 15.8743 5.50033 15.9577 5.66699 16.1243C5.83366 16.291 5.91699 16.4993 5.91699 16.7493C5.91699 16.9993 5.83366 17.2077 5.66699 17.3743C5.50033 17.541 5.29199 17.6243 5.04199 17.6243ZM10.0047 11.5827C9.55734 11.5827 9.18088 11.4314 8.87533 11.1287C8.56977 10.8261 8.41699 10.4511 8.41699 10.0037C8.41699 9.55636 8.56831 9.1799 8.87095 8.87435C9.17356 8.56879 9.54856 8.41602 9.99595 8.41602C10.4433 8.41602 10.8198 8.56733 11.1253 8.86997C11.4309 9.17258 11.5837 9.54758 11.5837 9.99497C11.5837 10.4423 11.4323 10.8188 11.1297 11.1243C10.8271 11.4299 10.4521 11.5827 10.0047 11.5827ZM5.04199 24.1243C4.79199 24.1243 4.58366 24.041 4.41699 23.8743C4.25033 23.7077 4.16699 23.4993 4.16699 23.2493C4.16699 22.9993 4.25033 22.791 4.41699 22.6243C4.58366 22.4577 4.79199 22.3743 5.04199 22.3743C5.29199 22.3743 5.50033 22.4577 5.66699 22.6243C5.83366 22.791 5.91699 22.9993 5.91699 23.2493C5.91699 23.4993 5.83366 23.7077 5.66699 23.8743C5.50033 24.041 5.29199 24.1243 5.04199 24.1243ZM16.7503 35.8327C16.5003 35.8327 16.292 35.7493 16.1253 35.5827C15.9587 35.416 15.8753 35.2077 15.8753 34.9577C15.8753 34.7077 15.9587 34.4993 16.1253 34.3327C16.292 34.166 16.5003 34.0827 16.7503 34.0827C17.0003 34.0827 17.2087 34.166 17.3753 34.3327C17.542 34.4993 17.6253 34.7077 17.6253 34.9577C17.6253 35.2077 17.542 35.416 17.3753 35.5827C17.2087 35.7493 17.0003 35.8327 16.7503 35.8327ZM16.7503 5.91602C16.5003 5.91602 16.292 5.83268 16.1253 5.66602C15.9587 5.49935 15.8753 5.29102 15.8753 5.04102C15.8753 4.79102 15.9587 4.58268 16.1253 4.41602C16.292 4.24935 16.5003 4.16602 16.7503 4.16602C17.0003 4.16602 17.2087 4.24935 17.3753 4.41602C17.542 4.58268 17.6253 4.79102 17.6253 5.04102C17.6253 5.29102 17.542 5.49935 17.3753 5.66602C17.2087 5.83268 17.0003 5.91602 16.7503 5.91602ZM16.7547 11.5827C16.3073 11.5827 15.9309 11.4314 15.6253 11.1287C15.3198 10.8261 15.167 10.4511 15.167 10.0037C15.167 9.55636 15.3183 9.1799 15.6209 8.87435C15.9236 8.56879 16.2986 8.41602 16.7459 8.41602C17.1933 8.41602 17.5698 8.56733 17.8753 8.86997C18.1809 9.17258 18.3337 9.54758 18.3337 9.99497C18.3337 10.4423 18.1823 10.8188 17.8797 11.1243C17.5771 11.4299 17.2021 11.5827 16.7547 11.5827ZM16.7503 25.4993C16.1253 25.4993 15.5941 25.2806 15.1566 24.8431C14.7191 24.4056 14.5003 23.8743 14.5003 23.2493C14.5003 22.6243 14.7191 22.0931 15.1566 21.6556C15.5941 21.2181 16.1253 20.9993 16.7503 20.9993C17.3753 20.9993 17.9066 21.2181 18.3441 21.6556C18.7816 22.0931 19.0003 22.6243 19.0003 23.2493C19.0003 23.8743 18.7816 24.4056 18.3441 24.8431C17.9066 25.2806 17.3753 25.4993 16.7503 25.4993ZM16.7503 18.9993C16.1253 18.9993 15.5941 18.7806 15.1566 18.3431C14.7191 17.9056 14.5003 17.3743 14.5003 16.7493C14.5003 16.1243 14.7191 15.5931 15.1566 15.1556C15.5941 14.7181 16.1253 14.4993 16.7503 14.4993C17.3753 14.4993 17.9066 14.7181 18.3441 15.1556C18.7816 15.5931 19.0003 16.1243 19.0003 16.7493C19.0003 17.3743 18.7816 17.9056 18.3441 18.3431C17.9066 18.7806 17.3753 18.9993 16.7503 18.9993ZM16.7547 31.5827C16.3073 31.5827 15.9309 31.4314 15.6253 31.1287C15.3198 30.8261 15.167 30.4511 15.167 30.0037C15.167 29.5564 15.3183 29.1799 15.6209 28.8743C15.9236 28.5688 16.2986 28.416 16.7459 28.416C17.1933 28.416 17.5698 28.5673 17.8753 28.87C18.1809 29.1726 18.3337 29.5476 18.3337 29.995C18.3337 30.4423 18.1823 30.8188 17.8797 31.1243C17.5771 31.4299 17.2021 31.5827 16.7547 31.5827ZM20.417 34.5827V32.0827C23.667 31.9438 26.4239 30.7153 28.6878 28.3973C30.9517 26.0793 32.0837 23.2806 32.0837 20.0015C32.0837 16.7223 30.9517 13.923 28.6878 11.6035C26.4239 9.28407 23.667 8.0549 20.417 7.91602V5.41602C22.3892 5.47157 24.2295 5.89518 25.9378 6.68685C27.6462 7.47852 29.1462 8.52713 30.4378 9.83268C31.7295 11.1382 32.7434 12.6649 33.4795 14.4126C34.2156 16.1603 34.5837 18.0214 34.5837 19.9959C34.5837 21.9704 34.2156 23.8327 33.4795 25.5827C32.7434 27.3327 31.7295 28.8605 30.4378 30.166C29.1462 31.4716 27.6462 32.5202 25.9378 33.3118C24.2295 34.1035 22.3892 34.5271 20.417 34.5827Z" fill="#252B33"/>
</svg>
