<svg width="61" height="60" viewBox="0 0 61 60" fill="none" xmlns="http://www.w3.org/2000/svg">
<path d="M39.6875 42.0625L42.5 39.25L32.5625 29.25V16.6875H28.8125V30.75L39.6875 42.0625ZM30.5 55C27.0833 55 23.8542 54.3438 20.8125 53.0313C17.7708 51.7188 15.1146 49.9271 12.8438 47.6563C10.5729 45.3854 8.78125 42.7292 7.46875 39.6875C6.15625 36.6458 5.5 33.4167 5.5 30C5.5 26.5833 6.15625 23.3542 7.46875 20.3125C8.78125 17.2708 10.5729 14.6146 12.8438 12.3438C15.1146 10.0729 17.7708 8.28125 20.8125 6.96875C23.8542 5.65625 27.0833 5 30.5 5C33.9167 5 37.1458 5.65625 40.1875 6.96875C43.2292 8.28125 45.8854 10.0729 48.1563 12.3438C50.4271 14.6146 52.2188 17.2708 53.5313 20.3125C54.8438 23.3542 55.5 26.5833 55.5 30C55.5 33.4167 54.8438 36.6458 53.5313 39.6875C52.2188 42.7292 50.4271 45.3854 48.1563 47.6563C45.8854 49.9271 43.2292 51.7188 40.1875 53.0313C37.1458 54.3438 33.9167 55 30.5 55ZM30.5 51.25C36.3333 51.25 41.3333 49.1667 45.5 45C49.6667 40.8333 51.75 35.8333 51.75 30C51.75 24.1667 49.6667 19.1667 45.5 15C41.3333 10.8333 36.3333 8.75 30.5 8.75C24.6667 8.75 19.6667 10.8333 15.5 15C11.3333 19.1667 9.25 24.1667 9.25 30C9.25 35.8333 11.3333 40.8333 15.5 45C19.6667 49.1667 24.6667 51.25 30.5 51.25Z" fill="#252B33"/>
</svg>
