<svg width="48" height="48" viewBox="0 0 48 48" fill="none" xmlns="http://www.w3.org/2000/svg">
<path d="M24 46L18 40H9C8.2 40 7.5 39.6917 6.9 39.075C6.3 38.4583 6 37.7667 6 37V7C6 6.2 6.3 5.5 6.9 4.9C7.5 4.3 8.2 4 9 4H39C39.7667 4 40.4583 4.3 41.075 4.9C41.6917 5.5 42 6.2 42 7V37C42 37.7667 41.6917 38.4583 41.075 39.075C40.4583 39.6917 39.7667 40 39 40H30L24 46ZM9 37H19.2L24 41.8L28.8 37H39V7H9V37ZM26.85 24.95L33.25 22.15L26.85 19.35L24.05 12.95L21.2 19.35L14.85 22.15L21.2 24.95L24.05 31.35L26.85 24.95Z" fill="#6F8463"/>
</svg>
