<svg width="48" height="48" viewBox="0 0 48 48" fill="none" xmlns="http://www.w3.org/2000/svg">
<path d="M22 42V39H39V23.8C39 21.8667 38.5833 20.0083 37.75 18.225C36.9167 16.4417 35.8 14.8667 34.4 13.5C33 12.1333 31.4 11.0417 29.6 10.225C27.8 9.40833 25.9333 9 24 9C22.0667 9 20.2 9.40833 18.4 10.225C16.6 11.0417 15 12.1333 13.6 13.5C12.2 14.8667 11.0833 16.4417 10.25 18.225C9.41667 20.0083 9 21.8667 9 23.8V36H8C6.9 36 5.95833 35.6083 5.175 34.825C4.39167 34.0417 4 33.1 4 32V28C4 27.2333 4.18333 26.5583 4.55 25.975C4.91667 25.3917 5.4 24.9167 6 24.55L6.15 21.9C6.45 19.4667 7.14167 17.2667 8.225 15.3C9.30833 13.3333 10.6583 11.6667 12.275 10.3C13.8917 8.93333 15.7083 7.875 17.725 7.125C19.7417 6.375 21.8333 6 24 6C26.2 6 28.3083 6.375 30.325 7.125C32.3417 7.875 34.15 8.94167 35.75 10.325C37.35 11.7083 38.6917 13.375 39.775 15.325C40.8583 17.275 41.55 19.45 41.85 21.85L42 24.45C42.6 24.75 43.0833 25.1917 43.45 25.775C43.8167 26.3583 44 27 44 27.7V32.3C44 33.0333 43.8167 33.6833 43.45 34.25C43.0833 34.8167 42.6 35.25 42 35.55V39C42 39.825 41.7063 40.5313 41.1188 41.1188C40.5313 41.7063 39.825 42 39 42H22ZM18 27.5C17.6 27.5 17.25 27.35 16.95 27.05C16.65 26.75 16.5 26.3917 16.5 25.975C16.5 25.5583 16.65 25.2083 16.95 24.925C17.25 24.6417 17.6083 24.5 18.025 24.5C18.4417 24.5 18.7917 24.6438 19.075 24.9313C19.3583 25.2188 19.5 25.575 19.5 26C19.5 26.4 19.3563 26.75 19.0688 27.05C18.7813 27.35 18.425 27.5 18 27.5ZM30 27.5C29.6 27.5 29.25 27.35 28.95 27.05C28.65 26.75 28.5 26.3917 28.5 25.975C28.5 25.5583 28.65 25.2083 28.95 24.925C29.25 24.6417 29.6083 24.5 30.025 24.5C30.4417 24.5 30.7917 24.6438 31.075 24.9313C31.3583 25.2188 31.5 25.575 31.5 26C31.5 26.4 31.3563 26.75 31.0688 27.05C30.7813 27.35 30.425 27.5 30 27.5ZM12.05 24.9C11.9167 22.9333 12.1917 21.15 12.875 19.55C13.5583 17.95 14.475 16.5917 15.625 15.475C16.775 14.3583 18.1 13.5 19.6 12.9C21.1 12.3 22.6 12 24.1 12C27.1333 12 29.6833 12.9583 31.75 14.875C33.8167 16.7917 35.0833 19.1833 35.55 22.05C32.4167 22.0167 29.6583 21.175 27.275 19.525C24.8917 17.875 23.05 15.7333 21.75 13.1C21.2167 15.8 20.0917 18.1917 18.375 20.275C16.6583 22.3583 14.55 23.9 12.05 24.9Z" fill="#C2C2C2"/>
</svg>
