<svg width="40" height="40" viewBox="0 0 40 40" fill="none" xmlns="http://www.w3.org/2000/svg">
<path d="M26.2087 22.5418L24.3753 20.7085C25.0975 18.7363 24.7225 17.0974 23.2503 15.7918C21.7781 14.4863 20.1809 14.1529 18.4587 14.7918L16.6253 12.9585C17.0975 12.6529 17.6253 12.4307 18.2087 12.2918C18.792 12.1529 19.3892 12.0835 20.0003 12.0835C21.9725 12.0835 23.6462 12.771 25.0212 14.146C26.3962 15.521 27.0837 17.1946 27.0837 19.1668C27.0837 19.7779 27.0073 20.3821 26.8545 20.9793C26.7017 21.5766 26.4864 22.0974 26.2087 22.5418ZM31.5837 27.9168L29.917 26.2502C31.2781 25.2502 32.4656 24.1321 33.4795 22.896C34.4934 21.6599 35.2364 20.4168 35.7087 19.1668C34.3198 16.0835 32.2364 13.646 29.4587 11.8543C26.6809 10.0627 23.667 9.16683 20.417 9.16683C19.2503 9.16683 18.0559 9.27794 16.8337 9.50016C15.6114 9.72239 14.6531 9.98627 13.9587 10.2918L12.042 8.3335C13.0142 7.88905 14.2573 7.50016 15.7712 7.16683C17.285 6.8335 18.7642 6.66683 20.2087 6.66683C24.1809 6.66683 27.8128 7.79877 31.1045 10.0627C34.3962 12.3266 36.8059 15.3613 38.3337 19.1668C37.6114 20.9446 36.6809 22.5696 35.542 24.0418C34.4031 25.5141 33.0837 26.8057 31.5837 27.9168ZM34.0003 37.3335L27.0003 30.4585C26.0281 30.8474 24.9309 31.146 23.7087 31.3543C22.4864 31.5627 21.2503 31.6668 20.0003 31.6668C15.9448 31.6668 12.2642 30.5349 8.95866 28.271C5.6531 26.0071 3.22255 22.9724 1.66699 19.1668C2.22255 17.7224 2.99338 16.3127 3.97949 14.9377C4.9656 13.5627 6.16699 12.2502 7.58366 11.0002L2.33366 5.75016L4.08366 3.9585L35.6253 35.5002L34.0003 37.3335ZM9.29199 12.7502C8.26421 13.5002 7.27116 14.4863 6.31283 15.7085C5.35449 16.9307 4.66699 18.0835 4.25033 19.1668C5.66699 22.2502 7.79894 24.6877 10.6462 26.4793C13.4934 28.271 16.7225 29.1668 20.3337 29.1668C21.2503 29.1668 22.1531 29.1113 23.042 29.0002C23.9309 28.8891 24.5975 28.7224 25.042 28.5002L22.3753 25.8335C22.0698 25.9724 21.6948 26.0766 21.2503 26.146C20.8059 26.2154 20.3892 26.2502 20.0003 26.2502C18.0559 26.2502 16.3892 25.5696 15.0003 24.2085C13.6114 22.8474 12.917 21.1668 12.917 19.1668C12.917 18.7502 12.9517 18.3335 13.0212 17.9168C13.0906 17.5002 13.1948 17.1252 13.3337 16.7918L9.29199 12.7502Z" fill="#6F8463"/>
</svg>
