<svg width="40" height="40" viewBox="0 0 40 40" fill="none" xmlns="http://www.w3.org/2000/svg">
<path d="M26.2087 22.5423L24.3753 20.709C25.0975 18.7368 24.7225 17.0979 23.2503 15.7923C21.7781 14.4868 20.1809 14.1534 18.4587 14.7923L16.6253 12.959C17.0975 12.6534 17.6253 12.4312 18.2087 12.2923C18.792 12.1534 19.3892 12.084 20.0003 12.084C21.9725 12.084 23.6462 12.7715 25.0212 14.1465C26.3962 15.5215 27.0837 17.1951 27.0837 19.1673C27.0837 19.7784 27.0073 20.3826 26.8545 20.9798C26.7017 21.577 26.4864 22.0979 26.2087 22.5423ZM31.5837 27.9173L29.917 26.2507C31.2781 25.2507 32.4656 24.1326 33.4795 22.8965C34.4934 21.6604 35.2364 20.4173 35.7087 19.1673C34.3198 16.084 32.2364 13.6465 29.4587 11.8548C26.6809 10.0632 23.667 9.16732 20.417 9.16732C19.2503 9.16732 18.0559 9.27843 16.8337 9.50065C15.6114 9.72287 14.6531 9.98676 13.9587 10.2923L12.042 8.33398C13.0142 7.88954 14.2573 7.50065 15.7712 7.16732C17.285 6.83398 18.7642 6.66732 20.2087 6.66732C24.1809 6.66732 27.8128 7.79926 31.1045 10.0632C34.3962 12.327 36.8059 15.3618 38.3337 19.1673C37.6114 20.9451 36.6809 22.5701 35.542 24.0423C34.4031 25.5145 33.0837 26.8062 31.5837 27.9173ZM34.0003 37.334L27.0003 30.459C26.0281 30.8479 24.9309 31.1465 23.7087 31.3548C22.4864 31.5632 21.2503 31.6673 20.0003 31.6673C15.9448 31.6673 12.2642 30.5354 8.95866 28.2715C5.6531 26.0076 3.22255 22.9729 1.66699 19.1673C2.22255 17.7229 2.99338 16.3132 3.97949 14.9382C4.9656 13.5632 6.16699 12.2507 7.58366 11.0007L2.33366 5.75065L4.08366 3.95898L35.6253 35.5007L34.0003 37.334ZM9.29199 12.7507C8.26421 13.5007 7.27116 14.4868 6.31283 15.709C5.35449 16.9312 4.66699 18.084 4.25033 19.1673C5.66699 22.2507 7.79894 24.6882 10.6462 26.4798C13.4934 28.2715 16.7225 29.1673 20.3337 29.1673C21.2503 29.1673 22.1531 29.1118 23.042 29.0007C23.9309 28.8895 24.5975 28.7229 25.042 28.5007L22.3753 25.834C22.0698 25.9729 21.6948 26.077 21.2503 26.1465C20.8059 26.2159 20.3892 26.2507 20.0003 26.2507C18.0559 26.2507 16.3892 25.5701 15.0003 24.209C13.6114 22.8479 12.917 21.1673 12.917 19.1673C12.917 18.7507 12.9517 18.334 13.0212 17.9173C13.0906 17.5007 13.1948 17.1257 13.3337 16.7923L9.29199 12.7507Z" fill="#252B33"/>
</svg>
