<svg width="48" height="48" viewBox="0 0 48 48" fill="none" xmlns="http://www.w3.org/2000/svg">
<path d="M36.7 39.8L34.6 37.7L38.25 34H29.2V31H38.25L34.6 27.3L36.7 25.2L44 32.5L36.7 39.8ZM7 34C6.175 34 5.46875 33.7062 4.88125 33.1187C4.29375 32.5312 4 31.825 4 31V9C4 8.175 4.29375 7.46875 4.88125 6.88125C5.46875 6.29375 6.175 6 7 6H35C35.825 6 36.5313 6.29375 37.1188 6.88125C37.7063 7.46875 38 8.175 38 9V20.6C37.75 20.5667 37.5 20.5417 37.25 20.525C37 20.5083 36.75 20.5 36.5 20.5C36.2333 20.5 35.9833 20.5083 35.75 20.525C35.5167 20.5417 35.2667 20.5667 35 20.6V11.35L20.8 21.4L7 11.4V31H24.55C24.5167 31.2667 24.5 31.4917 24.5 31.675V32.3625C24.5 32.6375 24.5083 32.9125 24.525 33.1875C24.5417 33.4625 24.5833 33.7333 24.65 34H7ZM8.8 9L20.8 17.7L33.1 9H8.8Z" fill="#252B33"/>
</svg>
