<svg width="48" height="48" viewBox="0 0 48 48" fill="none" xmlns="http://www.w3.org/2000/svg">
<path d="M4 40.0004V35.3004C4 34.1671 4.28333 33.1254 4.85 32.1754C5.41667 31.2254 6.26667 30.5004 7.4 30.0004C9.8 28.9337 12 28.1671 14 27.7004C16 27.2337 18 27.0004 20 27.0004C20.9667 27.0004 21.9917 27.0587 23.075 27.1754C24.1583 27.2921 25.2667 27.5004 26.4 27.8004L23.95 30.2504C23.2833 30.1837 22.625 30.1254 21.975 30.0754C21.325 30.0254 20.6667 30.0004 20 30.0004C18.0667 30.0004 16.3083 30.1754 14.725 30.5254C13.1417 30.8754 11.1 31.6004 8.6 32.7004C8.03333 32.9671 7.625 33.3504 7.375 33.8504C7.125 34.3504 7 34.8337 7 35.3004V37.0004H22.95L25.95 40.0004H4ZM31.25 40.8004L24.2 33.7504L26.3 31.6504L31.25 36.6004L41.9 25.9504L44 28.0504L31.25 40.8004ZM20 23.9004C17.8 23.9004 16 23.2004 14.6 21.8004C13.2 20.4004 12.5 18.6004 12.5 16.4004C12.5 14.2004 13.2 12.4004 14.6 11.0004C16 9.60039 17.8 8.90039 20 8.90039C22.2 8.90039 24 9.60039 25.4 11.0004C26.8 12.4004 27.5 14.2004 27.5 16.4004C27.5 18.6004 26.8 20.4004 25.4 21.8004C24 23.2004 22.2 23.9004 20 23.9004ZM20 20.9004C21.3 20.9004 22.375 20.4754 23.225 19.6254C24.075 18.7754 24.5 17.7004 24.5 16.4004C24.5 15.1004 24.075 14.0254 23.225 13.1754C22.375 12.3254 21.3 11.9004 20 11.9004C18.7 11.9004 17.625 12.3254 16.775 13.1754C15.925 14.0254 15.5 15.1004 15.5 16.4004C15.5 17.7004 15.925 18.7754 16.775 19.6254C17.625 20.4754 18.7 20.9004 20 20.9004Z" fill="#252B33"/>
</svg>
