<svg width="48" height="48" viewBox="0 0 48 48" fill="none" xmlns="http://www.w3.org/2000/svg">
<path d="M9.35 20.4494L14.65 22.6994C15.25 21.4994 15.8917 20.3161 16.575 19.1494C17.2583 17.9827 17.9833 16.8661 18.75 15.7994L14.8 14.9994L9.35 20.4494ZM17.05 24.4994L23.7 31.1494C25.6 30.2827 27.3833 29.2994 29.05 28.1994C30.7167 27.0994 32.0667 26.0327 33.1 24.9994C35.8 22.2994 37.7833 19.5327 39.05 16.6994C40.3167 13.8661 41 10.6661 41.1 7.09941C37.5333 7.19941 34.3333 7.88274 31.5 9.14941C28.6667 10.4161 25.9 12.3994 23.2 15.0994C22.1667 16.1327 21.1 17.4827 20 19.1494C18.9 20.8161 17.9167 22.5994 17.05 24.4994ZM28.5 19.6994C27.8333 19.0327 27.5 18.2077 27.5 17.2244C27.5 16.2411 27.8333 15.4161 28.5 14.7494C29.1667 14.0827 29.9917 13.7494 30.975 13.7494C31.9583 13.7494 32.7833 14.0827 33.45 14.7494C34.1167 15.4161 34.45 16.2411 34.45 17.2244C34.45 18.2077 34.1167 19.0327 33.45 19.6994C32.7833 20.3661 31.9583 20.6994 30.975 20.6994C29.9917 20.6994 29.1667 20.3661 28.5 19.6994ZM27.75 38.8494L33.2 33.3994L32.4 29.4494C31.3333 30.2161 30.2167 30.9411 29.05 31.6244C27.8833 32.3077 26.7 32.9494 25.5 33.5494L27.75 38.8494ZM44.05 4.14941C44.35 8.68274 43.7833 12.8161 42.35 16.5494C40.9167 20.2827 38.55 23.7994 35.25 27.0994L35.15 27.1994L35.05 27.2994L36.15 32.7994C36.25 33.2994 36.225 33.7827 36.075 34.2494C35.925 34.7161 35.6667 35.1327 35.3 35.4994L26.75 44.0994L22.5 34.1994L14 25.6994L4.1 21.4494L12.7 12.8994C13.0667 12.5327 13.4833 12.2744 13.95 12.1244C14.4167 11.9744 14.9 11.9494 15.4 12.0494L20.9 13.1494C20.9333 13.1161 20.9667 13.0911 21 13.0744C21.0333 13.0577 21.0667 13.0327 21.1 12.9994C24.4 9.69941 27.9167 7.32441 31.65 5.87441C35.3833 4.42441 39.5167 3.84941 44.05 4.14941ZM7.45 31.7494C8.61667 30.5827 10.0417 29.9911 11.725 29.9744C13.4083 29.9577 14.8333 30.5327 16 31.6994C17.1667 32.8661 17.7417 34.2911 17.725 35.9744C17.7083 37.6577 17.1167 39.0827 15.95 40.2494C15.0833 41.1161 13.7417 41.8327 11.925 42.3994C10.1083 42.9661 7.38333 43.4994 3.75 43.9994C4.25 40.3661 4.775 37.6327 5.325 35.7994C5.875 33.9661 6.58333 32.6161 7.45 31.7494ZM9.55 33.8994C9.08333 34.3994 8.66667 35.1827 8.3 36.2494C7.93333 37.3161 7.61667 38.6827 7.35 40.3494C9.01667 40.0827 10.3833 39.7661 11.45 39.3994C12.5167 39.0327 13.3 38.6161 13.8 38.1494C14.4333 37.5827 14.7583 36.8744 14.775 36.0244C14.7917 35.1744 14.5 34.4327 13.9 33.7994C13.2667 33.1994 12.525 32.9077 11.675 32.9244C10.825 32.9411 10.1167 33.2661 9.55 33.8994Z" fill="#252B33"/>
</svg>
