<svg width="64" height="65" viewBox="0 0 64 65" fill="none" xmlns="http://www.w3.org/2000/svg">
<path d="M41.7997 44.9513L44.7997 41.9513L34.1997 31.2846V17.8846H30.1997V32.8846L41.7997 44.9513ZM31.9997 58.7513C28.3552 58.7513 24.9108 58.0513 21.6663 56.6513C18.4219 55.2513 15.5886 53.3402 13.1663 50.918C10.7441 48.4957 8.83301 45.6624 7.43301 42.418C6.03301 39.1735 5.33301 35.7291 5.33301 32.0846C5.33301 28.4402 6.03301 24.9957 7.43301 21.7513C8.83301 18.5069 10.7441 15.6735 13.1663 13.2513C15.5886 10.8291 18.4219 8.91797 21.6663 7.51797C24.9108 6.11797 28.3552 5.41797 31.9997 5.41797C35.6441 5.41797 39.0886 6.11797 42.333 7.51797C45.5774 8.91797 48.4108 10.8291 50.833 13.2513C53.2552 15.6735 55.1663 18.5069 56.5663 21.7513C57.9663 24.9957 58.6663 28.4402 58.6663 32.0846C58.6663 35.7291 57.9663 39.1735 56.5663 42.418C55.1663 45.6624 53.2552 48.4957 50.833 50.918C48.4108 53.3402 45.5774 55.2513 42.333 56.6513C39.0886 58.0513 35.6441 58.7513 31.9997 58.7513ZM31.9997 54.7513C38.2219 54.7513 43.5552 52.5291 47.9997 48.0846C52.4441 43.6402 54.6663 38.3069 54.6663 32.0846C54.6663 25.8624 52.4441 20.5291 47.9997 16.0846C43.5552 11.6402 38.2219 9.41797 31.9997 9.41797C25.7775 9.41797 20.4441 11.6402 15.9997 16.0846C11.5552 20.5291 9.33301 25.8624 9.33301 32.0846C9.33301 38.3069 11.5552 43.6402 15.9997 48.0846C20.4441 52.5291 25.7775 54.7513 31.9997 54.7513Z" fill="#252B33"/>
</svg>
