<svg width="24" height="24" viewBox="0 0 24 24" fill="none" xmlns="http://www.w3.org/2000/svg">
<path d="M11.3 18H12.7C13.6167 18 14.3958 17.7083 15.0375 17.125C15.6792 16.5417 16 15.8333 16 15C16 14.1667 15.6792 13.4583 15.0375 12.875C14.3958 12.2917 13.6167 12 12.7 12H11.3C10.3833 12 9.60417 12.2917 8.9625 12.875C8.32083 13.4583 8 14.1667 8 15C8 15.8333 8.32083 16.5417 8.9625 17.125C9.60417 17.7083 10.3833 18 11.3 18ZM11.3 16.5C10.8 16.5 10.375 16.3542 10.025 16.0625C9.675 15.7708 9.5 15.4167 9.5 15C9.5 14.5833 9.675 14.2292 10.025 13.9375C10.375 13.6458 10.8 13.5 11.3 13.5H12.7C13.2 13.5 13.625 13.6458 13.975 13.9375C14.325 14.2292 14.5 14.5833 14.5 15C14.5 15.4167 14.325 15.7708 13.975 16.0625C13.625 16.3542 13.2 16.5 12.7 16.5H11.3ZM6 10H8C8.83333 10 9.54167 9.70833 10.125 9.125C10.7083 8.54167 11 7.83333 11 7H9.5C9.5 7.41667 9.35417 7.77083 9.0625 8.0625C8.77083 8.35417 8.41667 8.5 8 8.5H6V10ZM16 10H18V8.5H16C15.5833 8.5 15.2292 8.35417 14.9375 8.0625C14.6458 7.77083 14.5 7.41667 14.5 7H13C13 7.83333 13.2917 8.54167 13.875 9.125C14.4583 9.70833 15.1667 10 16 10ZM12 22C10.6167 22 9.31667 21.7375 8.1 21.2125C6.88333 20.6875 5.825 19.975 4.925 19.075C4.025 18.175 3.3125 17.1167 2.7875 15.9C2.2625 14.6833 2 13.3833 2 12C2 10.6167 2.2625 9.31667 2.7875 8.1C3.3125 6.88333 4.025 5.825 4.925 4.925C5.825 4.025 6.88333 3.3125 8.1 2.7875C9.31667 2.2625 10.6167 2 12 2C13.3833 2 14.6833 2.2625 15.9 2.7875C17.1167 3.3125 18.175 4.025 19.075 4.925C19.975 5.825 20.6875 6.88333 21.2125 8.1C21.7375 9.31667 22 10.6167 22 12C22 13.3833 21.7375 14.6833 21.2125 15.9C20.6875 17.1167 19.975 18.175 19.075 19.075C18.175 19.975 17.1167 20.6875 15.9 21.2125C14.6833 21.7375 13.3833 22 12 22ZM12 20C14.2333 20 16.125 19.225 17.675 17.675C19.225 16.125 20 14.2333 20 12C20 9.76667 19.225 7.875 17.675 6.325C16.125 4.775 14.2333 4 12 4C9.76667 4 7.875 4.775 6.325 6.325C4.775 7.875 4 9.76667 4 12C4 14.2333 4.775 16.125 6.325 17.675C7.875 19.225 9.76667 20 12 20Z" fill="#252B33"/>
</svg>
