<svg width="60" height="60" viewBox="0 0 60 60" fill="none" xmlns="http://www.w3.org/2000/svg">
<path d="M6.875 45C5.66667 45 4.63542 44.5729 3.78125 43.7187C2.92708 42.8646 2.5 41.8333 2.5 40.625C2.5 39.4167 2.92708 38.3854 3.78125 37.5312C4.63542 36.6771 5.66667 36.25 6.875 36.25C7.08333 36.25 7.29167 36.2604 7.5 36.2812C7.70833 36.3021 7.97917 36.3542 8.3125 36.4375L20.8125 23.9375C20.7292 23.6042 20.6771 23.3333 20.6563 23.125C20.6354 22.9167 20.625 22.7083 20.625 22.5C20.625 21.2917 21.0521 20.2604 21.9063 19.4062C22.7604 18.5521 23.7917 18.125 25 18.125C26.2083 18.125 27.2396 18.5521 28.0938 19.4062C28.9479 20.2604 29.375 21.2917 29.375 22.5C29.375 22.5833 29.3125 23.0625 29.1875 23.9375L36.0625 30.8125C36.3958 30.7292 36.6667 30.6771 36.875 30.6562C37.0833 30.6354 37.2917 30.625 37.5 30.625C37.7083 30.625 37.9167 30.6354 38.125 30.6562C38.3333 30.6771 38.6042 30.7292 38.9375 30.8125L48.9375 20.8125C48.8542 20.4792 48.8021 20.2083 48.7813 20C48.7604 19.7917 48.75 19.5833 48.75 19.375C48.75 18.1667 49.1771 17.1354 50.0313 16.2812C50.8854 15.4271 51.9167 15 53.125 15C54.3333 15 55.3646 15.4271 56.2188 16.2812C57.0729 17.1354 57.5 18.1667 57.5 19.375C57.5 20.5833 57.0729 21.6146 56.2188 22.4688C55.3646 23.3229 54.3333 23.75 53.125 23.75C52.9167 23.75 52.7083 23.7396 52.5 23.7188C52.2917 23.6979 52.0208 23.6458 51.6875 23.5625L41.6875 33.5625C41.7708 33.8958 41.8229 34.1667 41.8438 34.375C41.8646 34.5833 41.875 34.7917 41.875 35C41.875 36.2083 41.4479 37.2396 40.5938 38.0938C39.7396 38.9479 38.7083 39.375 37.5 39.375C36.2917 39.375 35.2604 38.9479 34.4063 38.0938C33.5521 37.2396 33.125 36.2083 33.125 35C33.125 34.7917 33.1354 34.5833 33.1563 34.375C33.1771 34.1667 33.2292 33.8958 33.3125 33.5625L26.4375 26.6875C26.1042 26.7708 25.8333 26.8229 25.625 26.8438C25.4167 26.8646 25.2083 26.875 25 26.875C24.9167 26.875 24.4375 26.8125 23.5625 26.6875L11.0625 39.1875C11.1458 39.5208 11.1979 39.7917 11.2188 40C11.2396 40.2083 11.25 40.4167 11.25 40.625C11.25 41.8333 10.8229 42.8646 9.96875 43.7187C9.11458 44.5729 8.08333 45 6.875 45Z" fill="#252B33"/>
</svg>
