<svg width="61" height="60" viewBox="0 0 61 60" fill="none" xmlns="http://www.w3.org/2000/svg">
<path d="M46.2143 52.5C45.9762 52.5 45.7579 52.4603 45.5595 52.381C45.3611 52.3016 45.1627 52.1627 44.9643 51.9643L30.5595 37.5595C30.3611 37.3611 30.2222 37.1627 30.1429 36.9643C30.0635 36.7659 30.0238 36.5476 30.0238 36.3095C30.0238 36.0714 30.0635 35.8532 30.1429 35.6548C30.2222 35.4563 30.3611 35.2579 30.5595 35.0595L35.619 30C35.8175 29.8016 36.0159 29.6627 36.2143 29.5833C36.4127 29.504 36.631 29.4643 36.869 29.4643C37.1071 29.4643 37.3254 29.504 37.5238 29.5833C37.7222 29.6627 37.9206 29.8016 38.119 30L52.5238 44.4048C52.7222 44.6032 52.8611 44.8016 52.9405 45C53.0198 45.1984 53.0595 45.4167 53.0595 45.6548C53.0595 45.8929 53.0198 46.1111 52.9405 46.3095C52.8611 46.5079 52.7222 46.7063 52.5238 46.9048L47.4643 51.9643C47.2659 52.1627 47.0675 52.3016 46.869 52.381C46.6706 52.4603 46.4524 52.5 46.2143 52.5ZM46.2143 48.2143L48.7738 45.6548L36.869 33.75L34.3095 36.3095L46.2143 48.2143ZM12.3452 52.5C12.1071 52.5 11.879 52.4603 11.6607 52.381C11.4425 52.3016 11.2341 52.1627 11.0357 51.9643L6.03571 46.9643C5.8373 46.7659 5.69841 46.5575 5.61905 46.3393C5.53968 46.121 5.5 45.8929 5.5 45.6548C5.5 45.4167 5.53968 45.1984 5.61905 45C5.69841 44.8016 5.8373 44.6032 6.03571 44.4048L19.4286 31.0119H24.4881L26.75 28.75L16.3333 18.3333H12.9405L5.5 10.8929L11.3929 5L18.8333 12.4405V15.8333L29.25 26.25L36.9881 18.5119L33 14.5238L36.3333 11.1905H29.6071L28.5357 10.119L36.1548 2.5L37.2262 3.57143V10.2976L40.5595 6.96429L50.619 17.0238C51.2143 17.619 51.6806 18.3036 52.0179 19.0774C52.3552 19.8512 52.5238 20.6746 52.5238 21.5476C52.5238 22.3413 52.3948 23.1052 52.1369 23.8393C51.879 24.5734 51.5119 25.2381 51.0357 25.8333L45.9762 20.7738L42.6429 24.1071L39.5476 21.0119L26.9881 33.5714V38.5714L13.5952 51.9643C13.3968 52.1627 13.1984 52.3016 13 52.381C12.8016 52.4603 12.5833 52.5 12.3452 52.5ZM12.3452 48.2143L24.25 36.3095V33.75H21.6905L9.78571 45.6548L12.3452 48.2143ZM12.3452 48.2143L9.78571 45.6548L11.0952 46.9048L12.3452 48.2143Z" fill="#545454"/>
</svg>
