<svg width="56" height="56" viewBox="0 0 56 56" fill="none" xmlns="http://www.w3.org/2000/svg">
<path d="M37.682 29.2841C35.8543 27.6508 34.114 26.0563 32.4612 24.5008C30.8084 22.9452 29.3611 21.4296 28.1192 19.9539C26.8773 18.4783 25.8856 17.0499 25.1442 15.6688C24.4027 14.2877 24.032 12.9539 24.032 11.6674C24.032 9.65464 24.7169 7.96532 26.0865 6.5995C27.4562 5.23369 29.1502 4.55078 31.1686 4.55078C32.322 4.55078 33.4723 4.87161 34.6195 5.51328C35.7668 6.15495 36.7876 7.02023 37.682 8.10911C38.5765 7.02023 39.5973 6.15495 40.7445 5.51328C41.8918 4.87161 43.0421 4.55078 44.1955 4.55078C46.2139 4.55078 47.9079 5.23369 49.2776 6.5995C50.6472 7.96532 51.332 9.65464 51.332 11.6674C51.332 12.9539 50.9613 14.2877 50.2199 15.6688C49.4785 17.0499 48.4868 18.4783 47.2449 19.9539C46.003 21.4296 44.5522 22.9486 42.8925 24.5108C41.2329 26.0729 39.4961 27.664 37.682 29.2841ZM37.682 24.4424C40.2487 22.1091 42.582 19.7952 44.682 17.5008C46.782 15.2063 47.832 13.2619 47.832 11.6674C47.832 10.601 47.4946 9.7316 46.8196 9.05925C46.1446 8.38694 45.2719 8.05078 44.2012 8.05078C43.5495 8.05078 42.9029 8.20634 42.2612 8.51745C41.6195 8.82856 40.9681 9.41189 40.307 10.2674L37.682 13.4758L35.057 10.2674C34.3959 9.41189 33.7445 8.82856 33.1029 8.51745C32.4612 8.20634 31.8145 8.05078 31.1628 8.05078C30.0922 8.05078 29.2194 8.38694 28.5445 9.05925C27.8695 9.7316 27.532 10.601 27.532 11.6674C27.532 13.2619 28.582 15.2063 30.682 17.5008C32.782 19.7952 35.1154 22.1091 37.682 24.4424ZM33.0154 52.3841L14.8737 47.1924V50.5174H2.33203V27.5341H20.357L35.232 33.1341C36.282 33.523 37.1668 34.1549 37.8862 35.0299C38.6056 35.9049 38.9654 37.1591 38.9654 38.7924H45.6154C47.2487 38.7924 48.6098 39.3758 49.6987 40.5424C50.7876 41.7091 51.332 43.2841 51.332 45.2674V46.7841L33.0154 52.3841ZM5.83203 47.0174H11.3154V31.0341H5.83203V47.0174ZM32.782 48.7674L47.7154 44.2174C47.482 43.4786 47.1904 42.973 46.8404 42.7008C46.4904 42.4286 46.082 42.2924 45.6154 42.2924H33.5404C32.3737 42.2924 31.2945 42.2147 30.3029 42.0591C29.3112 41.9036 28.3681 41.6897 27.4737 41.4174L22.7487 39.9591L24.032 36.5758L28.2904 37.9758C29.2626 38.2869 30.1862 38.5008 31.0612 38.6174C31.9362 38.7341 33.3265 38.7924 35.232 38.7924C35.232 38.3258 35.1445 37.8688 34.9695 37.4216C34.7945 36.9744 34.4931 36.6536 34.0654 36.4591L19.7737 31.0341H14.8737V43.5174L32.782 48.7674Z" fill="#252B33"/>
</svg>
