<svg width="56" height="56" viewBox="0 0 56 56" fill="none" xmlns="http://www.w3.org/2000/svg">
<path d="M43.8091 21.2339L34.7674 12.1922L38.8508 8.10885C39.5119 7.44774 40.3286 7.11719 41.3008 7.11719C42.273 7.11719 43.0897 7.44774 43.7508 8.10885L47.8924 12.2505C48.5536 12.9116 48.8841 13.7283 48.8841 14.7005C48.8841 15.6727 48.5536 16.4894 47.8924 17.1505L43.8091 21.2339ZM7.00078 49.0005V39.9005L18.3174 28.5839L5.42578 15.6339L15.5758 5.36719L28.5841 18.3755L34.7674 12.1922L43.8091 21.2339L37.6258 27.4172L50.6341 40.4255L40.4258 50.5172L27.4758 37.6255L16.1008 49.0005H7.00078ZM20.8258 26.0755L26.0758 20.8255L21.8174 16.5672L19.0174 19.3672L16.5674 16.9172L19.3674 14.1172L15.6341 10.3839L10.3841 15.6339L20.8258 26.0755ZM40.3091 45.6172L45.5591 40.3672L41.8258 36.6339L39.0258 39.4339L36.5758 36.9839L39.3758 34.1839L35.1174 29.9255L29.8674 35.1755L40.3091 45.6172ZM10.5008 45.5005H14.5841L38.7924 21.2922L34.7091 17.2089L10.5008 41.4172V45.5005Z" fill="#252B33"/>
</svg>
