<svg width="374" height="288" viewBox="0 0 374 288" fill="none" xmlns="http://www.w3.org/2000/svg">
<g clip-path="url(#clip0_326_4530)">
<path d="M22.2594 130.426C13.2594 129.096 10.5894 116.926 10.5894 109.596C10.4194 98.7664 15.0894 89.9264 24.5894 84.7664C33.5894 79.9364 44.5894 78.9364 54.5894 79.7664C73.3994 81.3364 86.2094 103.686 79.2694 121.076C75.8894 129.536 68.1294 133.106 59.4294 133.106C57.0994 133.106 54.9294 132.936 52.7594 132.936C50.2594 132.936 48.0894 133.936 45.7594 134.106L22.2594 130.436V130.426Z" fill="#252B33" stroke="#FDFDFD" stroke-linecap="round" stroke-linejoin="round"/>
<path d="M77.3197 121.926C71.7497 117.876 65.7297 116.806 60.4897 112.896C51.5797 106.256 53.9697 93.3265 53.9697 93.3265L39.0297 93.1465L38.0797 93.3265C38.0797 93.3265 40.4697 106.256 31.5597 112.896C27.0197 116.286 21.8797 117.537 16.9697 120.447C19.8297 122.827 27.5697 127.207 45.8497 127.197C67.7897 127.197 73.7697 125.356 77.3397 121.926H77.3197Z" fill="#252B33" stroke="#FDFDFD" stroke-linecap="round" stroke-linejoin="round"/>
<path d="M82.5398 127.007C80.8698 124.867 79.1198 123.247 77.3098 121.927C73.7398 125.367 67.7598 127.197 45.8198 127.197C27.5498 127.197 19.8098 122.827 16.9398 120.447C14.6298 121.817 12.3698 123.547 10.2398 126.037C8.00984 128.647 5.92984 132.097 4.08984 136.827H87.9198C86.2998 132.647 84.4799 129.477 82.5499 126.997L82.5398 127.007Z" fill="#FDFDFD" stroke="#FDFDFD" stroke-miterlimit="10"/>
<path d="M17.9498 136.838C17.9498 136.838 17.4798 129.438 18.6598 129.228C19.8398 129.028 22.3898 129.228 22.3898 129.228H72.1498C72.1498 129.228 72.8598 129.028 73.3498 130.248C73.8398 131.468 73.3498 136.828 73.3498 136.828H17.9498V136.838Z" fill="#252B33" stroke="#FDFDFD" stroke-linecap="round" stroke-linejoin="round"/>
<path d="M27.9996 115.467C27.9996 115.467 28.3996 131.537 27.9996 131.437C27.5996 131.337 22.3896 131.437 22.3896 131.437V117.747L27.9996 115.457V115.467Z" fill="#252B33" stroke="#FDFDFD" stroke-linecap="round" stroke-linejoin="round"/>
<path d="M26.8797 128.537C26.8797 129.267 26.2897 129.867 25.5497 129.867C24.8097 129.867 24.2197 129.277 24.2197 128.537C24.2197 127.797 24.8097 127.207 25.5497 127.207C26.2897 127.207 26.8797 127.797 26.8797 128.537Z" fill="#252B33" stroke="#FDFDFD" stroke-linecap="round" stroke-linejoin="round"/>
<path d="M64.4502 115.467C64.4502 115.467 64.0502 131.537 64.4502 131.437C64.8502 131.337 70.0602 131.437 70.0602 131.437V117.747L64.4502 115.457V115.467Z" fill="#252B33" stroke="#FDFDFD" stroke-linecap="round" stroke-linejoin="round"/>
<path d="M65.5703 128.537C65.5703 129.267 66.1603 129.867 66.9003 129.867C67.6403 129.867 68.2303 129.277 68.2303 128.537C68.2303 127.797 67.6403 127.207 66.9003 127.207C66.1603 127.207 65.5703 127.797 65.5703 128.537Z" fill="#252B33" stroke="#FDFDFD" stroke-linecap="round" stroke-linejoin="round"/>
<path d="M81.6003 76.8667C86.1603 71.2067 86.7103 64.9467 86.5303 57.7467C86.3303 49.9167 85.5803 42.1767 84.2803 34.4567C83.4703 29.6567 79.7203 21.6867 75.6903 18.4067C72.2703 15.6267 66.6203 12.6667 62.2803 11.7267C59.6403 11.1567 57.4903 10.7367 55.4003 10.4467C51.5803 9.57667 40.9003 9.63667 35.9303 10.4967C33.9603 10.7867 31.9003 11.1867 29.4103 11.7267C25.0803 12.6667 19.4303 15.6267 16.0003 18.4067C11.9703 21.6867 8.22032 29.6567 7.41032 34.4567C4.44032 52.1067 1.69032 72.0967 16.9603 84.9467C23.2603 90.2467 31.2903 93.2967 39.4803 94.1367C54.8903 95.7067 70.8303 89.2267 81.0103 77.5567C81.2103 77.3267 81.4003 77.0967 81.5903 76.8667H81.6003Z" fill="#252B33" stroke="#FDFDFD" stroke-linecap="round" stroke-linejoin="round"/>
<path d="M82.1101 69.5466C81.8901 66.9866 80.8501 64.8366 77.8701 65.5266C77.3101 65.6566 76.6601 66.0266 76.0401 66.4966C76.4201 64.4066 76.7101 62.2766 76.9101 60.1166C78.8301 38.9666 73.5901 17.4766 46.3301 17.4766H45.7001C18.4401 17.4766 13.2001 38.9766 15.1201 60.1166C15.3201 62.2766 15.6101 64.4066 15.9901 66.4966C15.3701 66.0266 14.7201 65.6566 14.1601 65.5266C11.1801 64.8366 10.1301 66.9866 9.92007 69.5466C9.53007 74.1666 12.6001 78.4866 17.0501 80.7366C17.8001 81.1166 19.3601 81.5266 20.9701 81.7066C26.0201 91.5266 34.2701 98.1166 46.0201 97.5166C57.7801 98.1166 66.0201 91.5266 71.0701 81.7066C72.6801 81.5266 74.2501 81.1166 74.9901 80.7366C79.4301 78.4866 82.5101 74.1666 82.1201 69.5466H82.1101Z" fill="#252B33" stroke="#FDFDFD" stroke-linecap="round" stroke-linejoin="round"/>
<path d="M33.75 70.9572C33.75 73.0772 31.07 74.7972 27.75 74.7972C24.43 74.7972 21.75 73.0772 21.75 70.9572C21.75 68.8372 24.43 67.1172 27.75 67.1172C31.07 67.1172 33.75 68.8372 33.75 70.9572Z" fill="#252B33"/>
<path d="M58.2705 70.9572C58.2705 73.0772 60.9605 74.7972 64.2705 74.7972C67.5805 74.7972 70.2705 73.0772 70.2705 70.9572C70.2705 68.8372 67.5905 67.1172 64.2705 67.1172C60.9505 67.1172 58.2705 68.8372 58.2705 70.9572Z" fill="#252B33"/>
<path d="M45.8693 71.0761C47.1993 70.8761 48.2593 70.0061 48.8293 68.9561C49.4193 67.9161 49.4493 66.5861 48.7593 65.7661C48.1393 64.9161 46.5993 65.0061 45.3793 64.0061C44.7693 63.4861 44.5293 62.7061 44.4893 62.0161C44.4693 61.3161 44.5493 60.6461 44.7193 59.9961C44.7793 61.2961 44.9393 62.7561 45.8693 63.3961C46.3193 63.7061 46.9193 63.8561 47.5793 64.0261C48.2193 64.2061 48.9893 64.4761 49.5293 65.1161C50.0393 65.7561 50.2593 66.5361 50.2193 67.2961C50.1793 68.0561 49.9093 68.7761 49.4893 69.3661C48.6793 70.5661 47.2093 71.2761 45.8693 71.0661V71.0761Z" fill="#FDFDFD"/>
<path d="M23.2695 48.4657C23.9895 47.5957 24.7995 46.8057 25.7195 46.1357C26.6295 45.4457 27.7195 44.9357 28.8095 44.6057C29.9395 44.2957 31.0495 44.1357 32.1795 44.0657C33.2995 44.0057 34.4495 44.0157 35.5595 44.2657C34.4495 44.4357 33.3595 44.6457 32.2795 44.8457C31.2095 45.0557 30.1095 45.2657 29.0995 45.5657C28.0595 45.8657 27.0895 46.2757 26.1395 46.7957C25.1895 47.3157 24.2595 47.9257 23.2695 48.4757V48.4657Z" fill="#FDFDFD"/>
<path d="M53.4398 78.666C44.9398 88.076 38.7598 78.666 38.7598 78.666H53.4398Z" fill="#252B33" stroke="#FDFDFD" stroke-linecap="round" stroke-linejoin="round"/>
<path d="M68.75 48.466C67.76 47.916 66.83 47.306 65.88 46.786C64.93 46.266 63.96 45.856 62.92 45.556C61.91 45.266 60.82 45.056 59.74 44.836C58.66 44.636 57.57 44.436 56.46 44.256C57.57 44.016 58.71 43.996 59.84 44.056C60.97 44.116 62.08 44.276 63.21 44.586C64.3 44.916 65.38 45.426 66.3 46.116C67.22 46.796 68.03 47.586 68.75 48.446V48.466Z" fill="#FDFDFD"/>
<path d="M13.3496 70.666C14.1296 70.756 14.8296 71.216 15.4196 71.706C16.0096 72.206 16.5196 72.796 16.9596 73.416C17.1796 73.746 17.3796 74.066 17.5496 74.406C17.7196 74.766 17.8796 75.106 18.0096 75.466C18.2796 76.176 18.4796 76.886 18.6696 77.626C18.1196 77.086 17.6996 76.436 17.3096 75.806L16.7396 74.886C16.5496 74.576 16.3496 74.276 16.1396 73.986C15.7396 73.386 15.2996 72.816 14.8596 72.246C14.3996 71.686 13.9596 71.136 13.3496 70.666Z" fill="#FDFDFD"/>
<path d="M78.6696 70.666C78.0596 71.136 77.6196 71.686 77.1596 72.246C76.7196 72.816 76.2796 73.386 75.8796 73.986C75.6696 74.266 75.4696 74.576 75.2796 74.886L74.7096 75.806C74.3196 76.436 73.8996 77.076 73.3496 77.626C73.5396 76.876 73.7396 76.176 74.0096 75.466C74.1296 75.106 74.2996 74.766 74.4696 74.406C74.6396 74.066 74.8396 73.746 75.0596 73.416C75.5096 72.786 76.0096 72.206 76.5996 71.706C77.1896 71.216 77.8796 70.756 78.6596 70.666H78.6696Z" fill="#FDFDFD"/>
<path d="M32.4699 62.4552C31.4499 63.4752 29.7899 63.4752 28.7699 62.4552C27.7499 61.4352 27.7499 59.7752 28.7699 58.7552C29.7899 57.7352 31.4499 57.7352 32.4699 58.7552C33.4899 59.7752 33.4899 61.4352 32.4699 62.4552Z" fill="#FDFDFD"/>
<path d="M59.5697 62.4552C60.5897 63.4752 62.2497 63.4752 63.2697 62.4552C64.2897 61.4352 64.2897 59.7752 63.2697 58.7552C62.2497 57.7352 60.5897 57.7352 59.5697 58.7552C58.5497 59.7752 58.5497 61.4352 59.5697 62.4552Z" fill="#FDFDFD"/>
<path d="M38.85 51.387C43.59 56.127 43.59 63.817 38.85 68.557C34.11 73.297 26.42 73.297 21.68 68.557C16.94 63.817 16.94 56.127 21.68 51.387C26.42 46.647 34.11 46.647 38.85 51.387Z" stroke="#FDFDFD" stroke-miterlimit="10"/>
<path d="M61.9398 72.1062C68.6445 72.1062 74.0798 66.6709 74.0798 59.9662C74.0798 53.2614 68.6445 47.8262 61.9398 47.8262C55.2351 47.8262 49.7998 53.2614 49.7998 59.9662C49.7998 66.6709 55.2351 72.1062 61.9398 72.1062Z" stroke="#FDFDFD" stroke-miterlimit="10"/>
<path d="M42.4004 60.0254H49.8004" stroke="#FDFDFD" stroke-miterlimit="10"/>
<path d="M80.9198 36.1062C77.8598 23.7662 61.2998 8.69616 46.0098 15.8262C30.8798 9.34616 14.6098 23.9262 11.5898 36.1062C9.44977 44.7362 10.5298 52.7262 12.9098 61.1962C13.4998 63.2862 15.0198 66.7262 19.5898 69.8762C17.7698 65.8862 16.7898 62.1862 16.7798 57.7662C16.7798 55.8162 16.9898 54.0461 17.3698 52.1461C17.8798 49.5761 19.0798 49.7161 21.0298 48.1461C24.2598 45.5561 27.8998 43.9362 31.0498 41.2162C37.5798 35.5762 44.8698 27.9262 46.3098 19.1562C47.8298 27.8662 54.9798 35.6362 61.4498 41.2162C64.5998 43.9362 68.2398 45.5561 71.4698 48.1461C73.4198 49.7061 74.6198 49.5761 75.1298 52.1461C75.5098 54.0461 75.7198 55.8162 75.7198 57.7662C75.7198 62.1862 74.7298 65.8862 72.9098 69.8762C77.4598 67.1062 78.5698 62.8662 79.1598 60.7762C81.5398 52.3062 83.0598 44.7362 80.9198 36.1062Z" fill="#252B33"/>
<path d="M158.639 118.987L154.749 128.077L162.009 130.757L153.989 136.837H165.619V115.787C163.329 116.907 160.969 117.837 158.629 118.987H158.639Z" fill="#252B33" stroke="#FDFDFD" stroke-linecap="round" stroke-linejoin="round"/>
<path d="M211.03 118.848L214.98 128.078L207.72 130.758L215.74 136.838H226.89C222.53 125.638 216.82 121.638 211.04 118.848H211.03Z" fill="#252B33" stroke="#FDFDFD" stroke-linecap="round" stroke-linejoin="round"/>
<path d="M154.749 128.076L158.639 118.986C152.949 121.776 147.349 125.816 143.069 136.846H153.999L162.019 130.766L154.759 128.086L154.749 128.076Z" fill="#252B33" stroke="#FDFDFD" stroke-linecap="round" stroke-linejoin="round"/>
<path d="M196.969 110.577C191.019 103.637 192.919 93.3167 192.919 93.3167L177.979 93.1367L177.029 93.3167C177.029 93.3167 178.979 103.907 172.749 110.837C177.139 113.737 185.799 117.237 196.969 110.567V110.577Z" fill="#252B33" stroke="#FDFDFD" stroke-linecap="round" stroke-linejoin="round"/>
<path d="M214.98 128.076L211.03 118.846C208.7 117.726 206.37 116.796 204.1 115.676V136.836H215.73L207.71 130.756L214.97 128.076H214.98Z" fill="#252B33" stroke="#FDFDFD" stroke-linecap="round" stroke-linejoin="round"/>
<path d="M198.859 112.426C198.159 111.846 197.529 111.226 196.969 110.576C185.799 117.246 177.139 113.746 172.749 110.846C172.209 111.446 171.589 112.026 170.919 112.566C174.479 115.506 184.869 122.006 198.859 112.436V112.426Z" fill="#252B33" stroke="#FDFDFD" stroke-linecap="round" stroke-linejoin="round"/>
<path d="M201.039 113.986C200.499 113.646 199.969 113.286 199.449 112.896C199.249 112.746 199.059 112.586 198.869 112.426C184.879 121.996 174.489 115.496 170.929 112.556C170.789 112.666 170.659 112.776 170.509 112.886C169.869 113.356 169.219 113.786 168.569 114.186C167.609 114.776 166.629 115.286 165.629 115.776V136.826H204.099V115.666C203.059 115.156 202.039 114.606 201.039 113.966V113.986Z" fill="#252B33" stroke="#FDFDFD" stroke-linecap="round" stroke-linejoin="round"/>
<path d="M219.479 124.666V136.836" stroke="#FDFDFD" stroke-miterlimit="10"/>
<path d="M149.659 125.557V136.837" stroke="#FDFDFD" stroke-miterlimit="10"/>
<path d="M221.03 69.5466C220.81 66.9866 219.77 64.8366 216.79 65.5266C216.23 65.6566 215.58 66.0266 214.96 66.4966C215.34 64.4066 215.64 62.2666 215.83 60.1166C217.75 38.9666 212.51 17.4766 185.25 17.4766H184.62C157.36 17.4766 152.12 38.9766 154.04 60.1166C154.24 62.2766 154.53 64.4066 154.91 66.4966C154.28 66.0266 153.64 65.6566 153.08 65.5266C150.1 64.8366 149.05 66.9866 148.84 69.5466C148.45 74.1666 151.52 78.4866 155.97 80.7366C156.72 81.1166 158.28 81.5266 159.89 81.7066C164.94 91.5266 173.19 98.1166 184.94 97.5166C196.69 98.1166 204.94 91.5266 209.99 81.7066C211.6 81.5266 213.17 81.1166 213.91 80.7366C218.35 78.4866 221.43 74.1666 221.04 69.5466H221.03Z" fill="#252B33" stroke="#FDFDFD" stroke-linecap="round" stroke-linejoin="round"/>
<path d="M181.46 69.7266C181.9 70.7366 182.96 71.2366 183.96 71.2966C184.98 71.3866 186.06 71.2466 186.92 70.7966C187.34 70.5766 187.69 70.2766 187.83 69.9066C187.98 69.5466 187.91 69.1166 187.74 68.6866C187.66 68.4566 187.53 68.3066 187.39 67.9566C187.28 67.6766 187.2 67.4066 187.13 67.1466C186.98 66.6166 186.85 66.0866 186.73 65.5566C186.26 63.4366 185.86 61.3166 185.55 59.1766C185.24 57.0366 184.92 54.8966 184.86 52.7266C185.07 53.7866 185.31 54.8366 185.56 55.8866L186.27 59.0466L187.69 65.3366L188.08 66.8866C188.15 67.1366 188.22 67.3966 188.3 67.6166C188.34 67.7666 188.53 68.0666 188.63 68.3466C188.85 68.9066 188.95 69.6366 188.65 70.2766C188.36 70.9166 187.8 71.3166 187.25 71.5466C186.13 71.9866 184.97 72.0066 183.87 71.8166C182.77 71.6066 181.66 70.8366 181.45 69.7266H181.46Z" fill="#FDFDFD"/>
<path d="M162.189 48.466C162.649 47.276 163.339 46.316 164.219 45.466C165.109 44.626 166.289 43.976 167.439 43.646C168.689 43.286 169.819 43.216 171.009 43.286C172.179 43.376 173.379 43.606 174.479 44.266C173.359 44.856 172.339 45.266 171.299 45.626C170.279 45.976 169.209 46.266 168.319 46.516C167.339 46.806 166.469 47.086 165.489 47.456C164.499 47.816 163.449 48.236 162.189 48.476V48.466Z" fill="#FDFDFD"/>
<path d="M192.369 76.666C191.439 77.676 190.349 78.556 189.089 79.196C187.839 79.836 186.429 80.226 184.999 80.266C182.119 80.336 179.299 78.896 177.689 76.666C178.769 77.506 179.959 78.146 181.179 78.616C182.409 79.066 183.689 79.316 184.979 79.276C187.579 79.236 190.039 78.086 192.369 76.676V76.666Z" fill="#FDFDFD"/>
<path d="M207.68 48.4662C206.43 48.2362 205.37 47.8062 204.38 47.4462C203.4 47.0762 202.53 46.7962 201.55 46.5062C200.66 46.2562 199.59 45.9662 198.57 45.6162C197.53 45.2562 196.51 44.8462 195.39 44.2562C196.5 43.5962 197.7 43.3662 198.86 43.2762C200.05 43.2062 201.18 43.2762 202.43 43.6362C203.58 43.9762 204.76 44.6162 205.65 45.4562C206.53 46.2962 207.22 47.2662 207.68 48.4562V48.4662Z" fill="#FDFDFD"/>
<path d="M152.27 70.666C153.05 70.756 153.75 71.216 154.33 71.706C154.92 72.206 155.43 72.796 155.87 73.416C156.09 73.746 156.29 74.066 156.46 74.406C156.63 74.766 156.79 75.106 156.92 75.466C157.19 76.176 157.39 76.886 157.58 77.626C157.03 77.086 156.61 76.436 156.22 75.806L155.65 74.886C155.46 74.576 155.26 74.266 155.05 73.986C154.65 73.386 154.21 72.816 153.77 72.246C153.31 71.686 152.87 71.136 152.26 70.666H152.27Z" fill="#FDFDFD"/>
<path d="M217.6 70.666C216.99 71.136 216.55 71.686 216.09 72.246C215.65 72.816 215.21 73.386 214.81 73.986C214.6 74.266 214.4 74.576 214.21 74.886L213.63 75.806C213.24 76.436 212.82 77.076 212.27 77.626C212.46 76.876 212.66 76.166 212.93 75.466C213.05 75.106 213.22 74.766 213.39 74.406C213.56 74.066 213.76 73.746 213.98 73.416C214.43 72.786 214.93 72.206 215.52 71.706C216.11 71.216 216.8 70.756 217.59 70.666H217.6Z" fill="#FDFDFD"/>
<path d="M171.39 62.4572C170.37 63.4772 168.71 63.4772 167.69 62.4572C166.67 61.4372 166.67 59.7772 167.69 58.7572C168.71 57.7372 170.37 57.7372 171.39 58.7572C172.41 59.7772 172.41 61.4372 171.39 62.4572Z" fill="#FDFDFD"/>
<path d="M198.499 62.4572C199.519 63.4772 201.179 63.4772 202.199 62.4572C203.219 61.4372 203.219 59.7772 202.199 58.7572C201.179 57.7372 199.519 57.7372 198.499 58.7572C197.479 59.7772 197.479 61.4372 198.499 62.4572Z" fill="#FDFDFD"/>
<path d="M154.58 66.7962C155.83 67.7962 156.58 66.0462 156.83 64.7962C157.33 62.5462 156.83 59.5462 156.58 57.2962C156.33 56.2962 155.58 54.7962 155.83 53.7962C156.08 52.7962 157.58 51.7962 158.08 50.5462C159.33 47.5462 160.58 37.2962 158.58 34.2962C155.08 28.5462 148.08 37.0462 147.83 41.0462C147.08 48.0462 148.58 55.2962 151.58 61.2962L154.58 66.7962Z" fill="#FDFDFD" stroke="#FDFDFD" stroke-linecap="round" stroke-linejoin="round"/>
<path d="M215.69 66.7962C214.44 67.7962 213.69 66.0462 213.44 64.7962C212.94 62.5462 213.44 59.5462 213.69 57.2962C213.94 56.2962 214.69 54.7962 214.44 53.7962C214.19 52.7962 212.69 51.7962 212.19 50.5462C210.94 47.5462 209.69 37.2962 211.69 34.2962C215.19 28.5462 222.19 37.0462 222.44 41.0462C223.19 48.0462 221.69 55.2962 218.69 61.2962L215.69 66.7962Z" fill="#FDFDFD" stroke="#FDFDFD" stroke-linecap="round" stroke-linejoin="round"/>
<path d="M158.02 33.3366C155.33 32.1966 153.47 30.0866 153.78 25.9566C154.19 20.3466 158.78 13.0466 163.58 10.0466C173.58 3.79657 185.58 10.0466 195.08 13.7966C199.58 15.2966 204.58 16.5466 209.33 15.2966C213.33 14.0466 220.58 9.79657 216.33 17.2966C221.33 15.0466 229.83 16.2966 226.08 23.2966C223.08 28.7966 216.54 31.6466 210.83 33.2966C201.1 36.1066 190.55 36.3566 180.5 35.9166C176.1 35.7166 171.77 35.3466 167.4 34.9466C164.36 34.6666 160.76 34.5066 158.02 33.3466V33.3366Z" fill="#FDFDFD" stroke="#FDFDFD" stroke-linecap="round" stroke-linejoin="round"/>
<path d="M87.7996 286.826C80.6596 268.466 69.8896 269.457 61.0996 263.417C60.5996 263.707 60.0996 263.986 59.5896 264.246C56.3796 265.896 52.8496 267.046 49.2496 267.466C40.0796 268.526 34.1196 266.146 30.7196 263.396C30.5996 263.476 30.4696 263.557 30.3496 263.637L30.7196 286.836H87.7996V286.826Z" fill="#252B33" stroke="#FDFDFD" stroke-miterlimit="10"/>
<mask id="mask0_326_4530" style="mask-type:luminance" maskUnits="userSpaceOnUse" x="30" y="263" width="58" height="24">
<path d="M87.7996 286.826C80.6596 268.466 69.8896 269.457 61.0996 263.417C60.5996 263.707 60.0996 263.986 59.5896 264.246C56.3796 265.896 52.8496 267.046 49.2496 267.466C40.0796 268.526 34.1196 266.146 30.7196 263.396C30.5996 263.476 30.4696 263.557 30.3496 263.637L30.7196 286.836H87.7996V286.826Z" fill="white"/>
</mask>
<g mask="url(#mask0_326_4530)">
<path d="M36.9894 263.387H33.1094V290.207H36.9894V263.387Z" fill="#FDFDFD"/>
<path d="M43.9894 263.387H40.1094V290.207H43.9894V263.387Z" fill="#FDFDFD"/>
<path d="M50.9894 263.387H47.1094V290.207H50.9894V263.387Z" fill="#FDFDFD"/>
<path d="M57.9894 263.387H54.1094V290.207H57.9894V263.387Z" fill="#FDFDFD"/>
</g>
<path d="M19.9298 268.787C19.2498 273.417 21.6298 286.827 21.6298 286.827H30.7098L30.7798 263.307L39.2198 256.797C33.2298 256.877 23.1598 259.887 19.9298 268.787Z" fill="#252B33" stroke="#FDFDFD" stroke-miterlimit="10"/>
<path d="M19.9295 268.787C14.1095 271.577 8.35949 275.557 3.97949 286.827H21.6295C21.6295 286.827 19.2495 273.417 19.9295 268.787Z" fill="#252B33" stroke="#FDFDFD" stroke-miterlimit="10"/>
<path d="M10.8799 275.396C13.4799 279.326 13.0099 284.276 13.4799 286.826" stroke="#FDFDFD" stroke-linecap="round" stroke-linejoin="round"/>
<path d="M71.8496 268.787C72.5296 273.417 70.1496 286.827 70.1496 286.827H61.0696L60.9996 263.307L52.5596 256.797C58.5496 256.877 68.6196 259.887 71.8496 268.787Z" fill="#252B33" stroke="#FDFDFD" stroke-miterlimit="10"/>
<path d="M71.8494 268.787C77.6694 271.577 83.4194 275.557 87.7994 286.827H70.1494C70.1494 286.827 72.5294 273.417 71.8494 268.787Z" fill="#252B33" stroke="#FDFDFD" stroke-miterlimit="10"/>
<path d="M80.8998 275.396C78.2998 279.326 78.7698 284.276 78.2998 286.826" stroke="#FDFDFD" stroke-linecap="round" stroke-linejoin="round"/>
<path d="M49.2495 267.457C52.8495 267.037 56.3895 265.887 59.5895 264.237C60.0895 263.977 60.5995 263.697 61.0995 263.407C60.8495 263.237 60.5995 263.067 60.3595 262.877C51.4495 256.237 53.8395 243.307 53.8395 243.307L38.8995 243.127L37.9495 243.307C37.9495 243.307 40.3395 256.237 31.4295 262.877C31.1995 263.047 30.9595 263.217 30.7295 263.377C34.1295 266.127 40.0995 268.507 49.2595 267.447L49.2495 267.457Z" fill="#252B33"/>
<path d="M49.4695 267.668C53.7295 267.158 57.7895 265.708 61.5095 263.578C61.6495 263.498 61.5695 263.398 61.4695 263.328C58.0895 260.988 55.8695 257.598 54.8195 253.638C54.0895 250.868 53.8895 247.948 54.1195 245.088C54.1695 244.518 54.2195 243.948 54.3195 243.388C54.3595 243.178 53.8295 243.098 53.7295 243.098L39.8295 242.928C39.0495 242.928 38.3995 242.968 37.6195 243.108C37.5195 243.128 37.4395 243.178 37.4595 243.278C37.7395 244.788 37.7795 246.588 37.7195 248.188C37.5895 251.628 36.8195 255.138 35.0695 258.128C33.8595 260.188 32.2095 261.878 30.2495 263.238C30.1895 263.278 30.2395 263.368 30.2795 263.398C35.5995 267.668 42.9195 268.388 49.4795 267.648C50.1195 267.578 49.3395 267.188 49.0395 267.228C42.9295 267.918 36.1395 267.328 31.1695 263.338L31.1995 263.498C34.5795 261.148 36.8395 257.778 37.9095 253.818C38.6795 250.988 38.8895 247.998 38.6495 245.078C38.5995 244.488 38.5395 243.898 38.4395 243.318L38.2795 243.488C38.5395 243.438 38.8195 243.408 39.0795 243.338C39.3895 243.248 38.8495 243.298 39.0795 243.328C39.3395 243.358 39.6095 243.328 39.8695 243.328L43.2595 243.368L51.8695 243.468L53.9295 243.498L53.3395 243.208C53.0395 244.868 52.9995 246.608 53.0695 248.288C53.2195 251.788 54.0195 255.328 55.8295 258.358C57.0695 260.428 58.7395 262.108 60.7195 263.468L60.6795 263.218C57.0795 265.278 53.1495 266.718 49.0195 267.218C48.3795 267.298 49.1495 267.678 49.4595 267.638L49.4695 267.668Z" fill="#FDFDFD"/>
<path d="M81.989 219.537C81.769 216.977 80.729 214.827 77.749 215.517C77.189 215.647 76.539 216.017 75.919 216.487C76.299 214.397 76.599 212.267 76.789 210.107C78.709 188.957 73.469 167.467 46.209 167.467H45.579C18.319 167.467 13.079 188.967 14.999 210.107C15.199 212.267 15.489 214.397 15.869 216.487C15.249 216.017 14.599 215.647 14.039 215.517C11.059 214.827 10.009 216.977 9.79898 219.537C9.40898 224.157 12.479 228.477 16.929 230.727C17.679 231.107 19.239 231.517 20.849 231.697C25.899 241.517 34.149 248.107 45.899 247.507C57.659 248.107 65.899 241.517 70.949 231.697C72.559 231.517 74.129 231.107 74.869 230.727C79.309 228.477 82.389 224.157 81.999 219.537H81.989Z" fill="#252B33"/>
<path d="M82.4692 219.607C82.3292 218.117 81.9192 216.437 80.5192 215.647C78.8392 214.697 76.9192 215.257 75.4592 216.327L76.3992 216.627C77.3392 211.437 77.7392 206.127 77.5992 200.857C77.4892 196.607 76.9992 192.347 75.8592 188.247C74.8192 184.487 73.1992 180.857 70.8292 177.747C68.4592 174.637 65.2192 172.027 61.5992 170.337C57.2092 168.287 52.3592 167.417 47.5392 167.267C42.7192 167.117 37.7892 167.487 33.1592 169.007C29.2592 170.287 25.6592 172.417 22.7992 175.377C19.9392 178.337 18.1092 181.647 16.7692 185.307C13.7892 193.507 13.6892 202.657 14.6192 211.247C14.8092 212.987 15.0592 214.717 15.3692 216.437L16.2292 216.457C14.8492 215.447 12.8492 214.647 11.1992 215.527C9.81923 216.257 9.41923 217.997 9.29923 219.427C8.96923 223.387 11.1792 227.037 14.2592 229.367C15.1292 230.027 16.0992 230.657 17.1192 231.067C18.3192 231.547 19.6392 231.777 20.9092 231.927L20.3492 231.637C24.1492 238.987 30.2392 245.137 38.4892 247.087C40.5992 247.587 42.7692 247.807 44.9392 247.787C47.1092 247.767 49.4192 247.827 51.6592 247.487C55.6792 246.867 59.4792 245.227 62.6992 242.737C66.4192 239.857 69.2592 235.997 71.4192 231.837L71.2392 231.937C72.8292 231.747 74.4192 231.427 75.8192 230.637C77.2192 229.847 78.4992 228.857 79.5692 227.647C81.5392 225.427 82.6792 222.597 82.4592 219.607C82.4392 219.347 81.4792 219.147 81.4992 219.467C81.7792 223.147 79.8492 226.567 77.0492 228.837C75.5092 230.087 73.8792 230.907 71.9292 231.267C71.5992 231.327 70.7692 231.307 70.5092 231.497C70.2492 231.687 70.0992 232.237 69.9392 232.507C69.5192 233.277 69.0692 234.047 68.5892 234.787C65.0392 240.327 59.8592 244.817 53.3992 246.517C51.7092 246.957 49.9592 247.207 48.2092 247.277C47.3292 247.307 46.4492 247.247 45.5692 247.267C44.6092 247.287 43.6492 247.317 42.6892 247.267C39.3292 247.077 36.0392 246.187 33.0892 244.587C30.1392 242.987 27.7092 240.847 25.6092 238.337C24.5192 237.027 23.5292 235.627 22.6492 234.177C22.1992 233.437 21.8092 232.677 21.3892 231.927C21.2292 231.647 21.0692 231.547 20.7492 231.477C20.0992 231.347 19.4492 231.297 18.7992 231.147C15.2892 230.317 12.1892 227.277 10.8992 223.957C10.2692 222.317 10.0692 220.537 10.3692 218.807C10.5992 217.507 11.1792 216.007 12.6192 215.687C13.6992 215.447 14.6292 215.927 15.4792 216.547C15.5892 216.627 16.3992 216.907 16.3392 216.567C15.4192 211.467 15.0192 206.257 15.1292 201.087C15.2192 196.927 15.6792 192.737 16.7592 188.707C17.7492 184.977 19.2992 181.347 21.5992 178.217C23.8992 175.087 26.9492 172.537 30.4592 170.827C34.7292 168.737 39.5092 167.867 44.2292 167.727C48.9492 167.587 53.8592 167.927 58.3992 169.487C62.2092 170.797 65.6892 172.947 68.4292 175.917C71.1692 178.887 72.9192 182.177 74.1892 185.817C77.0192 193.947 77.0992 202.957 76.1592 211.427C75.9792 213.087 75.7292 214.737 75.4292 216.377C75.3692 216.687 76.1892 216.807 76.3692 216.677C77.4692 215.877 79.2392 215.017 80.3792 216.217C81.1892 217.067 81.4092 218.357 81.5092 219.477C81.5292 219.747 82.4992 219.937 82.4692 219.617V219.607Z" fill="#FDFDFD"/>
<path d="M46.5901 239.238H44.8701C43.7655 239.238 42.8701 240.134 42.8701 241.238V249.258C42.8701 250.363 43.7655 251.258 44.8701 251.258H46.5901C47.6947 251.258 48.5901 250.363 48.5901 249.258V241.238C48.5901 240.134 47.6947 239.238 46.5901 239.238Z" fill="#FDFDFD"/>
<path d="M25.6796 198.478C24.6896 198.908 23.5596 199.178 23.5596 197.708C23.5596 196.818 24.2396 196.208 24.9296 195.728C27.3196 194.228 31.2796 192.518 34.0796 193.478C34.8396 193.738 36.1096 194.698 35.4396 195.608C34.9996 196.208 25.8196 198.418 25.6796 198.478Z" fill="#FDFDFD"/>
<path d="M66.5094 198.478C67.4994 198.908 68.6294 199.178 68.6294 197.708C68.6294 196.818 67.9494 196.208 67.2594 195.728C64.8694 194.228 60.9094 192.518 58.1094 193.478C57.3494 193.738 56.0794 194.698 56.7494 195.608C57.1894 196.208 66.3694 198.418 66.5094 198.478Z" fill="#FDFDFD"/>
<path d="M53.3196 226.658C52.3896 227.668 51.2996 228.548 50.0396 229.188C48.7896 229.828 47.3796 230.218 45.9496 230.258C43.0696 230.328 40.2496 228.888 38.6396 226.658C39.7196 227.498 40.9097 228.138 42.1297 228.608C43.3597 229.058 44.6396 229.308 45.9296 229.268C48.5296 229.228 50.9896 228.078 53.3196 226.668V226.658Z" fill="#FDFDFD"/>
<path d="M13.2295 220.668C14.0095 220.748 14.7095 221.218 15.2995 221.708C15.8895 222.208 16.3995 222.798 16.8395 223.418C17.0595 223.748 17.2595 224.068 17.4295 224.408C17.5995 224.768 17.7595 225.108 17.8895 225.468C18.1595 226.178 18.3595 226.888 18.5495 227.628C17.9995 227.088 17.5795 226.438 17.1895 225.808L16.6195 224.888C16.4295 224.578 16.2295 224.268 16.0195 223.988C15.6195 223.388 15.1795 222.818 14.7395 222.248C14.2795 221.688 13.8395 221.138 13.2295 220.668Z" fill="#FDFDFD"/>
<path d="M78.5495 220.668C77.9395 221.138 77.4995 221.688 77.0395 222.248C76.5995 222.818 76.1595 223.388 75.7595 223.988C75.5495 224.268 75.3495 224.578 75.1595 224.888C74.9695 225.178 74.7895 225.498 74.5895 225.808C74.1995 226.438 73.7795 227.078 73.2295 227.628C73.4195 226.878 73.6195 226.168 73.8895 225.468C74.0095 225.108 74.1795 224.768 74.3495 224.408C74.5195 224.068 74.7195 223.748 74.9395 223.418C75.3895 222.798 75.8895 222.208 76.4795 221.708C77.0695 221.218 77.7595 220.758 78.5495 220.668Z" fill="#FDFDFD"/>
<path d="M32.3498 212.447C31.3298 213.467 29.6698 213.467 28.6498 212.447C27.6298 211.427 27.6298 209.767 28.6498 208.747C29.6698 207.727 31.3298 207.727 32.3498 208.747C33.3698 209.767 33.3698 211.427 32.3498 212.447Z" fill="#FDFDFD"/>
<path d="M59.4496 212.447C60.4696 213.467 62.1296 213.467 63.1496 212.447C64.1696 211.427 64.1696 209.767 63.1496 208.747C62.1296 207.727 60.4696 207.727 59.4496 208.747C58.4296 209.767 58.4296 211.427 59.4496 212.447Z" fill="#FDFDFD"/>
<path d="M47.3294 206.457C47.8094 208.467 48.4494 210.427 48.9294 212.437C49.1894 213.437 49.4094 214.447 49.6194 215.477C49.7194 215.977 49.7894 216.547 49.8194 217.057L49.9094 218.607C49.9394 219.647 49.9794 220.667 49.9094 221.757C49.8994 221.897 49.8794 222.027 49.8494 222.197C49.8194 222.297 49.8394 222.347 49.7094 222.557C49.6194 222.677 49.6494 222.627 49.6094 222.677C49.5894 222.707 49.5194 222.757 49.4694 222.797C49.1094 223.037 48.7894 223.067 48.4894 223.087C47.8994 223.117 47.3694 223.007 46.8494 222.887C45.7994 222.637 44.8294 222.247 43.9094 221.707C43.0094 221.157 42.1794 220.527 41.3994 219.847C43.1894 220.907 45.0194 221.827 47.0094 222.127C47.4994 222.207 47.9994 222.257 48.4394 222.217C48.6494 222.197 48.8594 222.127 48.9194 222.077C48.9194 222.077 48.9994 221.987 48.9394 222.047C48.8894 222.147 48.9194 222.067 48.9194 222.037C48.9294 221.947 48.9394 221.827 48.9494 221.707C48.9894 220.727 48.9494 219.687 48.8994 218.667L48.8394 217.127C48.8294 216.607 48.7594 216.157 48.6894 215.637C48.5494 214.637 48.3394 213.627 48.1794 212.607C47.8294 210.577 47.4294 208.537 47.3394 206.467L47.3294 206.457Z" fill="#FDFDFD"/>
<path d="M91.8797 186.787C91.4797 184.837 90.0397 183.147 88.7697 181.717C88.8197 181.767 87.0897 180.177 87.0297 180.027C86.3597 178.097 87.6297 175.967 86.7497 173.737C86.1097 172.097 83.8897 170.537 83.5797 169.037C83.4897 168.597 84.1797 167.487 84.2097 166.997C84.2997 165.437 83.4897 164.257 82.5597 163.097C81.0997 161.287 78.9297 161.047 77.5097 159.637C76.2797 158.407 76.8897 157.127 74.9097 155.917C73.5297 155.077 69.7997 153.727 68.2297 154.857C66.4497 153.057 64.2897 151.647 61.7797 151.017C60.1597 150.617 57.8097 150.357 56.1297 150.787C55.7997 150.867 54.2897 151.817 53.9497 151.807C52.3497 151.767 51.1697 150.047 49.0297 150.167C47.1697 150.267 45.2597 151.227 44.1997 152.787C44.4797 152.377 40.2297 150.517 39.7897 150.407C38.0797 149.987 36.3297 150.087 34.6897 150.757C33.9797 151.047 32.8897 152.187 32.2197 152.267C31.4597 152.367 31.2697 151.767 30.4697 151.557C28.2197 150.987 26.2297 150.117 23.8397 150.437C21.1697 150.797 18.5397 152.987 18.6997 155.677C17.4797 155.767 16.2197 155.877 15.0397 156.197C14.1197 156.447 13.2597 156.837 12.5297 157.437C10.8497 158.817 10.3497 161.807 12.1397 163.057C8.37969 164.257 5.90969 168.547 6.75969 172.397C2.97969 173.847 1.05969 178.847 2.89969 182.447C1.04969 183.727 -0.0703059 185.977 0.0196941 188.217C0.109694 190.457 1.40969 192.617 3.35969 193.747C1.79969 194.407 0.719694 196.067 0.749694 197.757C0.779694 199.447 1.91969 201.067 3.49969 201.677C2.49969 201.297 3.66969 206.987 3.96969 207.467C5.00969 209.097 7.02969 210.407 8.40969 211.717C9.76969 213.007 11.2497 213.017 13.0397 212.967C9.30969 213.787 16.7197 218.937 17.9797 219.587C18.5297 217.697 18.3297 214.757 17.9997 212.857C17.7897 211.657 16.4197 209.377 16.7897 208.287C16.8697 208.067 18.4897 207.157 18.7697 206.817C19.5497 205.847 19.9197 204.317 20.0797 203.137C20.4197 200.647 19.7197 198.677 18.4197 196.677C20.4597 195.207 23.4597 189.997 21.1897 187.697C24.1397 185.827 26.4097 184.377 28.4597 181.367C28.7997 180.867 29.2497 180.297 29.5697 179.717C31.6497 182.157 35.0797 181.937 37.8197 180.717C37.3497 184.077 40.6997 185.597 43.4697 184.407C41.2197 189.417 44.0197 190.567 48.6997 190.067C48.1997 193.557 52.2997 191.137 53.1197 189.637C54.1097 187.807 53.5997 186.977 52.0997 185.477C53.7297 185.917 54.4097 183.797 54.0697 182.517C55.3697 182.267 56.5397 181.717 57.4697 180.707C56.1797 184.917 61.0397 188.377 64.2697 184.997C63.4597 186.887 65.0097 187.607 66.7997 187.917C67.7897 189.347 69.9497 189.617 71.9097 190.497C71.1997 194.027 70.3397 194.817 72.3097 198.337C72.8497 199.297 73.0497 198.827 73.0797 199.827C73.0897 200.197 72.2297 201.547 72.0897 201.947C71.7097 203.047 71.3497 204.437 71.4097 205.597C71.5597 208.127 73.6997 209.067 74.1597 211.057C74.5497 212.767 71.8597 218.117 74.6597 219.057C76.0597 217.237 77.7497 215.027 78.6397 212.917C79.8097 210.127 78.9497 210.977 81.4597 209.627C83.4097 208.577 83.4097 206.407 84.3197 204.987C85.6897 202.857 87.8697 201.597 88.3297 198.757C88.6197 197.017 87.9697 195.747 87.3397 194.207C90.1597 192.567 92.6897 190.587 91.8997 186.737L91.8797 186.787Z" fill="#FDFDFD"/>
<path d="M213.919 263.798C214.519 262.888 214.519 263.798 214.219 265.008C213.309 267.728 210.89 270.148 208.77 271.668C202.72 277.118 193.64 279.538 185.77 280.448C164.89 282.268 149.46 258.058 154.6 238.998C160.05 219.628 186.37 214.488 203.32 218.728C223.59 223.868 224.799 249.898 216.939 265.928C216.639 266.538 216.639 267.138 216.029 268.048L213.91 263.808L213.919 263.798Z" fill="#252B33"/>
<path d="M209.76 267.988L185.04 277.918C185.04 277.918 171.38 270.848 163.52 267.008C156.43 270.148 149 273.018 143.63 286.828H227.44C222.62 274.448 216.16 270.868 209.76 267.988Z" fill="#FDFDFD"/>
<path d="M209.42 267.838L201.05 271.198L187.77 276.528L184.699 277.758L185.41 277.778C179.95 274.958 174.48 272.158 168.99 269.398C168.06 268.928 167.12 268.458 166.19 267.998C165.77 267.788 165.36 267.588 164.94 267.378C164.56 267.188 164.139 266.908 163.729 266.818C163.059 266.668 162.2 267.278 161.6 267.538C160.88 267.858 160.159 268.178 159.449 268.518C156.509 269.918 153.72 271.588 151.33 273.828C147.56 277.358 145.03 281.968 143.16 286.738C143.07 286.958 143.51 287.008 143.63 287.008H227.44C227.55 287.008 228.019 286.998 227.929 286.768C226.379 282.818 224.4 278.978 221.59 275.758C219.54 273.408 217.09 271.478 214.38 269.948C213 269.168 211.569 268.488 210.119 267.838C209.889 267.738 208.929 267.888 209.399 268.098C211.989 269.258 214.519 270.548 216.789 272.258C219.549 274.348 221.8 276.988 223.6 279.938C224.94 282.128 226.02 284.458 226.96 286.848L227.45 286.608H143.64L144.11 286.878C145.78 282.618 147.959 278.488 151.119 275.128C153.429 272.678 156.199 270.788 159.199 269.288C160.729 268.518 162.309 267.838 163.869 267.148L163.16 267.128C168.11 269.548 173.01 272.048 177.91 274.558C179.72 275.488 181.529 276.418 183.339 277.348C183.949 277.668 184.72 278.268 185.44 278.038C186.16 277.808 186.879 277.458 187.589 277.168L191.929 275.428L203.139 270.928L210.11 268.128C210.59 267.938 209.65 267.728 209.41 267.818L209.42 267.838Z" fill="#FDFDFD"/>
<path d="M202.65 264.609C201.75 264.099 200.87 263.529 200.01 262.889C198.44 261.719 197.23 260.349 196.29 258.899C195.66 257.929 195.15 256.919 194.74 255.899C192.3 249.769 193.49 243.319 193.49 243.319L178.55 243.139L177.6 243.319C177.6 243.319 178.79 249.769 176.35 255.899C175.94 256.919 175.43 257.929 174.8 258.899C173.86 260.349 172.65 261.719 171.08 262.889C170.22 263.529 169.34 264.089 168.44 264.609C166.84 265.519 165.2 266.279 163.53 267.019C171.38 270.859 185.05 277.929 185.05 277.929L209.77 267.999C207.36 266.919 204.95 265.929 202.65 264.609Z" fill="#252B33"/>
<path d="M202.93 264.508C201.2 263.508 199.55 262.358 198.21 260.868C196.87 259.378 195.93 257.768 195.21 255.978C193.91 252.708 193.5 249.098 193.72 245.588C193.77 244.878 193.83 244.148 193.95 243.448C194 243.198 193.43 243.078 193.27 243.078L179.4 242.908C178.64 242.908 178.03 242.938 177.27 243.078C177.18 243.098 177.07 243.118 177.09 243.228C177.57 245.838 177.47 248.648 177.05 251.258C176.32 255.818 174.19 260.078 170.41 262.838C168.16 264.478 165.64 265.668 163.11 266.798C162.92 266.888 163.08 267.048 163.21 267.108C168.16 269.528 173.06 272.028 177.96 274.538C179.77 275.468 181.58 276.398 183.39 277.328C183.92 277.598 184.83 278.288 185.46 278.108C186.19 277.898 186.91 277.528 187.61 277.238L191.95 275.498L203.16 270.998L210.13 268.198C210.4 268.088 210.02 267.878 209.92 267.838C207.56 266.778 205.17 265.778 202.91 264.498C202.64 264.348 201.77 264.378 202.33 264.698C204.65 266.018 207.12 267.048 209.56 268.138L209.35 267.778L200.98 271.138L187.7 276.468L184.63 277.698L185.31 277.818C180.11 275.128 174.89 272.458 169.66 269.828C167.71 268.848 165.76 267.868 163.79 266.908L163.89 267.218C168.15 265.328 172.48 263.198 175.14 259.188C177.63 255.438 178.48 250.808 178.32 246.368C178.29 245.368 178.22 244.358 178.04 243.378L177.86 243.528C178.13 243.478 178.4 243.438 178.66 243.378C178.91 243.318 178.6 243.358 178.79 243.358C179.05 243.348 179.32 243.358 179.58 243.358L182.97 243.398L191.59 243.498L193.65 243.518L192.97 243.148C192.59 245.268 192.6 247.498 192.8 249.628C193.17 253.578 194.47 257.508 197.09 260.558C198.55 262.258 200.39 263.558 202.32 264.668C202.59 264.818 203.46 264.798 202.9 264.468L202.93 264.508Z" fill="#FDFDFD"/>
<path d="M221.64 219.539C221.42 216.979 220.38 214.829 217.4 215.519C216.84 215.649 216.2 216.019 215.57 216.489C215.95 214.399 216.24 212.269 216.44 210.109C218.36 188.969 213.12 167.469 185.86 167.469H185.23C157.97 167.469 152.73 188.969 154.65 210.109C154.85 212.269 155.14 214.399 155.52 216.489C154.9 216.019 154.25 215.649 153.69 215.519C150.71 214.829 149.66 216.979 149.45 219.539C149.06 224.159 152.13 228.479 156.58 230.729C157.33 231.109 158.89 231.519 160.5 231.699C165.55 241.519 173.8 248.109 185.55 247.509C197.3 248.109 205.55 241.519 210.6 231.699C212.21 231.519 213.78 231.109 214.52 230.729C218.96 228.479 222.04 224.159 221.65 219.539H221.64Z" fill="#252B33"/>
<path d="M222.14 219.579C222.01 218.119 221.62 216.419 220.25 215.639C218.59 214.689 216.57 215.309 215.15 216.359L216.07 216.539C217.01 211.349 217.41 206.039 217.27 200.769C217.16 196.549 216.67 192.309 215.54 188.229C214.49 184.429 212.86 180.749 210.45 177.609C208.04 174.469 204.83 171.929 201.21 170.259C196.86 168.249 192.05 167.429 187.29 167.289C182.53 167.149 177.46 167.519 172.81 169.059C168.93 170.349 165.35 172.459 162.49 175.399C159.63 178.339 157.81 181.619 156.47 185.259C153.45 193.469 153.34 202.659 154.27 211.269C154.46 213.009 154.71 214.739 155.02 216.459L155.96 216.439C154.57 215.419 152.62 214.709 150.95 215.529C149.55 216.219 149.11 217.919 148.96 219.339C148.56 223.319 150.76 227.029 153.86 229.379C154.72 230.039 155.68 230.669 156.7 231.059C157.9 231.529 159.21 231.749 160.49 231.909L160.02 231.719C162.45 236.409 165.78 240.729 170.21 243.669C174.64 246.609 179.83 247.909 185.1 247.739C186.53 247.689 187.95 247.779 189.38 247.659C190.68 247.549 191.97 247.349 193.23 247.059C195.74 246.469 198.14 245.459 200.33 244.099C204.78 241.319 208.18 237.169 210.66 232.589C210.74 232.429 210.82 232.269 210.91 232.119C211.09 231.819 211.21 231.859 211.56 231.799C211.98 231.729 212.39 231.659 212.81 231.559C213.54 231.399 214.28 231.199 214.95 230.869C216.38 230.169 217.71 229.179 218.83 228.039C221.03 225.789 222.4 222.759 222.15 219.579C222.13 219.269 221.13 219.239 221.15 219.489C221.43 223.139 219.59 226.499 216.84 228.799C215.3 230.079 213.63 230.939 211.67 231.309C211.4 231.359 211.12 231.409 210.85 231.449C210.66 231.479 210.39 231.449 210.22 231.549C209.94 231.729 209.78 232.269 209.62 232.559C209.2 233.329 208.75 234.099 208.27 234.839C204.72 240.379 199.58 244.879 193.13 246.569C191.44 247.009 189.71 247.259 187.97 247.319C187.06 247.349 186.15 247.279 185.25 247.319C184.35 247.359 183.35 247.359 182.41 247.299C179.06 247.089 175.8 246.189 172.85 244.589C169.9 242.989 167.44 240.839 165.34 238.319C164.27 237.039 163.31 235.669 162.44 234.249C161.99 233.519 161.57 232.769 161.17 232.009C160.99 231.669 160.91 231.569 160.54 231.499C159.89 231.389 159.24 231.309 158.59 231.159C155.1 230.329 151.99 227.319 150.66 224.039C150 222.399 149.78 220.619 150.05 218.879C150.25 217.589 150.8 215.979 152.24 215.659C153.3 215.419 154.27 215.959 155.1 216.569C155.21 216.649 156.09 216.839 156.04 216.549C155.12 211.459 154.72 206.259 154.83 201.079C154.92 196.939 155.37 192.779 156.42 188.759C157.4 185.019 158.94 181.389 161.22 178.249C163.5 175.109 166.54 172.559 170.03 170.829C174.36 168.689 179.21 167.829 184.01 167.699C188.77 167.569 193.6 167.959 198.13 169.539C201.92 170.859 205.38 173.039 208.12 175.999C210.72 178.809 212.58 182.239 213.85 185.839C216.7 193.979 216.78 203.029 215.83 211.519C215.65 213.179 215.4 214.829 215.1 216.469C215.05 216.749 215.88 216.749 216.02 216.649C217.15 215.819 218.79 215.049 219.98 216.209C220.84 217.049 221.07 218.369 221.18 219.509C221.21 219.819 222.2 219.839 222.18 219.599L222.14 219.579Z" fill="#FDFDFD"/>
<path d="M185.45 206.6C185.58 208.17 185.66 209.74 185.89 211.27C186.12 212.77 186.44 214.37 187.31 215.44C187.75 215.96 188.32 216.23 188.99 216.2C189.13 216.22 189.36 216.07 189.86 216.32C190.1 216.47 190.22 216.78 190.21 216.97C190.21 217.16 190.17 217.3 190.14 217.43C189.97 217.91 189.73 218.25 189.47 218.58C188.95 219.23 188.35 219.78 187.68 220.25C187.34 220.48 186.99 220.69 186.61 220.84C186.23 220.99 185.82 221.13 185.42 221.06C186.19 220.85 186.72 220.27 187.27 219.75C187.8 219.21 188.3 218.63 188.72 218.02C188.92 217.72 189.13 217.4 189.21 217.13C189.23 217.07 189.23 217.01 189.23 217.01C189.23 216.99 189.25 217.12 189.33 217.15C189.48 217.2 189.29 217.15 189.05 217.18C188.13 217.24 187.14 216.76 186.62 216.03C185.56 214.58 185.4 212.9 185.29 211.33C185.2 209.74 185.33 208.16 185.49 206.6H185.45Z" fill="#FDFDFD"/>
<path d="M162.8 198.46C163.39 197.43 164.14 196.56 165.04 195.79C165.94 195.03 167.07 194.44 168.19 194.12C169.38 193.78 170.5 193.67 171.66 193.67C172.81 193.69 173.98 193.8 175.08 194.26C173.96 194.65 172.91 194.95 171.85 195.23L168.77 196.03C167.76 196.33 166.84 196.66 165.87 197.11C164.9 197.55 163.91 198.07 162.79 198.46H162.8Z" fill="#FDFDFD"/>
<path d="M178.29 227.92C178.29 227.92 184.46 237.02 192.97 227.92H178.29Z" fill="#252B33" stroke="#FDFDFD" stroke-linecap="round" stroke-linejoin="round"/>
<path d="M208.28 198.46C207.16 198.07 206.17 197.55 205.2 197.11C204.24 196.66 203.32 196.32 202.3 196.03L199.22 195.23C198.16 194.94 197.11 194.64 195.99 194.26C197.1 193.81 198.27 193.69 199.41 193.67C200.57 193.67 201.69 193.78 202.88 194.12C204 194.45 205.13 195.03 206.03 195.79C206.93 196.56 207.68 197.43 208.27 198.46H208.28Z" fill="#FDFDFD"/>
<path d="M152.88 220.66C153.66 220.75 154.36 221.21 154.95 221.7C155.54 222.2 156.05 222.79 156.49 223.41C156.71 223.74 156.91 224.06 157.08 224.4C157.25 224.76 157.41 225.1 157.54 225.46C157.81 226.17 158.01 226.88 158.2 227.62C157.65 227.08 157.23 226.43 156.84 225.8C156.64 225.49 156.46 225.17 156.26 224.88C156.07 224.57 155.87 224.27 155.66 223.98C155.26 223.38 154.82 222.81 154.38 222.24C153.92 221.68 153.48 221.13 152.87 220.66H152.88Z" fill="#FDFDFD"/>
<path d="M218.2 220.66C217.59 221.13 217.15 221.68 216.69 222.24C216.25 222.81 215.81 223.38 215.41 223.98C215.2 224.26 215 224.57 214.81 224.88C214.62 225.17 214.44 225.49 214.24 225.8C213.85 226.43 213.43 227.07 212.88 227.62C213.07 226.87 213.27 226.16 213.54 225.46C213.66 225.1 213.83 224.76 214 224.4C214.17 224.06 214.37 223.74 214.59 223.41C215.04 222.78 215.54 222.2 216.13 221.7C216.72 221.21 217.41 220.75 218.2 220.66Z" fill="#FDFDFD"/>
<path d="M172 212.449C170.98 213.469 169.32 213.469 168.3 212.449C167.28 211.429 167.28 209.769 168.3 208.749C169.32 207.729 170.98 207.729 172 208.749C173.02 209.769 173.02 211.429 172 212.449Z" fill="#FDFDFD"/>
<path d="M199.1 212.449C200.12 213.469 201.78 213.469 202.8 212.449C203.82 211.429 203.82 209.769 202.8 208.749C201.78 207.729 200.12 207.729 199.1 208.749C198.08 209.769 198.08 211.429 199.1 212.449Z" fill="#FDFDFD"/>
<path d="M237.61 234.608C235.32 228.658 232.38 222.748 232.07 216.248C231.92 213.168 233.19 209.488 232.67 206.408C233.42 195.898 231.29 185.198 226.58 175.768C221.08 164.758 212.05 156.158 200.2 153.158C197.3 152.428 188.82 154.848 184.82 155.108C182.94 154.848 175.88 152.288 170.15 153.468C158.18 155.938 149 164.758 143.5 175.768C138.79 185.188 136.66 195.898 137.41 206.408C136.89 209.478 138.16 213.168 138.01 216.248C137.69 222.748 134.75 228.658 132.46 234.608C130.12 240.708 130.3 245.918 133.87 251.158C137.47 256.448 135.23 260.568 134.29 266.298C133.25 272.668 138.18 276.638 143.71 278.758C142.09 276.798 141.24 274.288 140.84 271.778C142.73 277.428 151.3 281.038 156.76 280.818C156.62 279.858 156.34 278.908 156.01 277.948C156.05 277.948 156.09 277.968 156.13 277.968C155.4 276.198 155.38 274.528 155.49 272.648C157.08 276.278 159.37 278.388 161.96 281.338C160.786 279.405 160.053 277.815 159.76 276.568C158.97 273.198 168.88 259.088 163.91 256.568C165.95 257.608 168.45 257.708 170.57 256.848C166.2 254.968 163.68 250.148 163.18 245.418C162.81 241.918 164.48 238.338 164.18 235.068C163.95 232.488 162.01 229.858 161.14 227.348C159.17 221.658 158.45 215.528 159.09 209.538C160.23 198.958 162.35 188.838 170.91 181.718C174.24 178.958 182.65 174.058 185.03 167.578C187.42 174.058 195.83 178.948 199.16 181.718C202.96 184.878 207.37 186.848 209.65 191.598C210.95 194.318 211.18 197.548 210.25 200.418C210.92 199.418 211.6 198.428 212.27 197.428C212.87 200.928 212.52 201.938 212.52 203.278C212.52 206.708 212.08 209.828 210.91 213.088C208.96 218.498 207.03 223.838 207.21 229.678C207.4 235.588 210.51 240.698 210.93 246.608C211.23 250.798 208.03 252.968 206.33 256.578C203.97 261.598 206.72 266.218 208.63 270.808C209.23 272.248 210.66 274.988 210.29 276.568C209.996 277.815 209.263 279.405 208.09 281.338C210.68 278.388 212.96 276.278 214.56 272.648C214.67 274.528 214.65 276.198 213.92 277.968C213.96 277.968 214 277.948 214.04 277.948C213.71 278.908 213.43 279.868 213.29 280.818C218.76 281.038 227.33 277.428 229.21 271.778C228.81 274.288 227.96 276.798 226.34 278.758C231.86 276.638 236.8 272.658 235.75 266.298C234.81 260.568 232.58 256.438 236.17 251.158C239.73 245.918 239.92 240.698 237.58 234.608H237.61Z" fill="#252B33" stroke="#FDFDFD" stroke-linejoin="round"/>
<path d="M370.02 80.9672C368.03 71.8972 366.09 63.1972 366.66 53.6672C368.27 27.0172 339.53 -10.0228 310.81 5.20722C304.74 8.42722 297.74 6.75722 291.7 10.0672C287.24 12.5072 283.58 16.4672 281.28 20.9872C277.17 29.0472 276.69 38.4272 276.74 47.4772C276.78 55.4072 276.23 63.7672 275.43 71.8272C275.02 75.9572 274.79 80.2372 274.04 84.3172C272.17 94.5072 270.94 103.427 274.89 113.427C276.24 116.847 278.21 120.257 281.46 121.977C280.99 119.667 280.87 117.567 280.85 115.217C283.24 120.167 287.65 124.107 292.85 125.917C294.85 126.617 296.73 126.637 298.72 126.487C349.66 133.907 359.5 122.077 364.17 117.007C365.91 115.117 368.72 109.447 368.79 106.887C369.28 108.477 369.78 110.067 370.27 111.657C374.41 104.657 372.21 90.8572 370.04 80.9672H370.02Z" fill="#252B33" stroke="#FDFDFD" stroke-linecap="round" stroke-linejoin="round"/>
<path d="M318.91 116.136C318.98 116.136 319.05 116.126 319.11 116.116C319.07 116.046 319.04 115.986 319 115.916C318.97 115.996 318.93 116.056 318.9 116.136H318.91Z" stroke="#FDFDFD" stroke-linecap="round" stroke-linejoin="round"/>
<path d="M317.041 116.137C317.641 116.167 318.261 116.167 318.911 116.137C318.941 116.057 318.981 115.997 319.011 115.917C319.041 115.987 319.081 116.047 319.121 116.117C323.541 115.917 328.791 114.487 332.861 111.827C325.461 104.967 327.601 93.3167 327.601 93.3167L312.661 93.1367L311.711 93.3167C311.711 93.3167 313.751 104.427 306.961 111.337C309.411 114.367 312.691 115.917 317.041 116.127V116.137Z" fill="#252B33" stroke="#FDFDFD" stroke-linecap="round" stroke-linejoin="round"/>
<path d="M327.081 129.926C333.181 132.046 340.921 122.436 344.021 118.066C340.611 116.526 337.231 115.216 334.111 112.896C333.661 112.556 333.241 112.196 332.841 111.836C328.771 114.506 323.521 115.926 319.101 116.126C320.821 119.506 323.571 128.706 327.071 129.926H327.081Z" fill="#252B33" stroke="#FDFDFD" stroke-linecap="round" stroke-linejoin="round"/>
<path d="M309.201 130.497C314.611 130.057 317.041 120.907 318.901 116.147C318.261 116.167 317.631 116.167 317.031 116.147C312.681 115.937 309.391 114.387 306.951 111.357C306.411 111.907 305.831 112.427 305.181 112.907C301.931 115.337 298.371 116.667 294.811 118.297C295.351 123.047 303.901 130.937 309.201 130.507V130.497Z" fill="#252B33" stroke="#FDFDFD" stroke-linecap="round" stroke-linejoin="round"/>
<path d="M344.031 118.067C340.931 122.427 333.191 132.037 327.091 129.927C323.591 128.707 320.831 119.507 319.121 116.127C319.051 116.127 318.981 116.137 318.921 116.147C317.051 120.907 314.621 130.057 309.221 130.497C303.921 130.927 295.371 123.037 294.831 118.287C288.641 121.117 282.431 124.857 277.771 136.837H361.581C356.801 124.557 350.401 120.927 344.051 118.067H344.031Z" fill="#FDFDFD" stroke="#FDFDFD" stroke-miterlimit="10"/>
<path d="M348.8 67.8363C349.66 62.1263 347.45 48.0663 346.26 45.3863C346.26 45.3863 332.73 42.3663 328.78 40.6063C323.88 38.4263 320.27 35.1163 317 31.0363C315.64 29.3363 312.68 24.4963 310.46 19.4863C309.86 21.0763 302.75 41.6763 290.01 45.2563C289.18 45.4863 289.4 47.0063 289.31 48.3763C289.11 51.5463 289.63 66.4963 291.22 67.6763C290.12 67.5163 289.09 66.6963 288.17 65.6463C288.05 65.5963 287.92 65.5563 287.81 65.5263C284.83 64.8363 283.78 66.9863 283.57 69.5463C283.18 74.1663 286.25 78.4863 290.7 80.7363C291.45 81.1163 293.01 81.5263 294.62 81.7063C299.67 91.5263 307.92 98.1163 319.67 97.5163C331.42 98.1163 339.67 91.5263 344.72 81.7063C346.33 81.5263 347.9 81.1163 348.64 80.7363C353.08 78.4863 356.16 74.1663 355.77 69.5463C355.55 66.9863 354.51 64.8363 351.53 65.5263C351.49 65.5263 351.45 65.5563 351.41 65.5663C350.6 66.7563 349.72 67.6563 348.82 67.8363H348.8Z" fill="#252B33" stroke="#FDFDFD" stroke-miterlimit="10"/>
<path d="M296.91 48.4658C297.5 47.4358 298.25 46.5658 299.15 45.7958C300.05 45.0358 301.18 44.4458 302.31 44.1258C303.5 43.7858 304.62 43.6758 305.78 43.6758C306.93 43.6958 308.1 43.8158 309.2 44.2658C308.08 44.6558 307.03 44.9558 305.97 45.2358L302.89 46.0358C301.88 46.3358 300.96 46.6658 299.99 47.1158C299.01 47.5558 298.03 48.0758 296.9 48.4658H296.91Z" fill="#FDFDFD"/>
<path d="M312.4 76.6465C313.48 77.4865 314.67 78.1265 315.89 78.5965C317.12 79.0465 318.4 79.2965 319.69 79.2465C322.28 79.2065 324.74 78.0565 327.08 76.6465C326.15 77.6565 325.06 78.5365 323.8 79.1765C322.55 79.8165 321.14 80.2065 319.71 80.2465C316.83 80.3165 314.01 78.8765 312.4 76.6465Z" fill="#FDFDFD"/>
<path d="M306.11 62.4455C305.09 63.4655 303.431 63.4655 302.411 62.4455C301.391 61.4255 301.391 59.7655 302.411 58.7455C303.431 57.7255 305.09 57.7255 306.11 58.7455C307.13 59.7655 307.13 61.4255 306.11 62.4455Z" fill="#FDFDFD"/>
<path d="M307.391 70.9357C307.391 73.0557 304.701 74.7757 301.391 74.7757C298.081 74.7757 295.391 73.0557 295.391 70.9357C295.391 68.8157 298.081 67.0957 301.391 67.0957C304.701 67.0957 307.391 68.8157 307.391 70.9357Z" fill="#252B33"/>
<path d="M342.391 48.4658C341.271 48.0758 340.281 47.5558 339.311 47.1158C338.351 46.6658 337.421 46.3258 336.411 46.0358L333.331 45.2358C332.271 44.9458 331.221 44.6458 330.101 44.2658C331.211 43.8158 332.381 43.6958 333.521 43.6758C334.681 43.6758 335.801 43.7858 336.991 44.1258C338.111 44.4558 339.241 45.0358 340.151 45.7958C341.051 46.5658 341.801 47.4358 342.391 48.4658Z" fill="#FDFDFD"/>
<path d="M331.91 70.9357C331.91 73.0557 334.59 74.7757 337.91 74.7757C341.23 74.7757 343.91 73.0557 343.91 70.9357C343.91 68.8157 341.22 67.0957 337.91 67.0957C334.6 67.0957 331.91 68.8157 331.91 70.9357Z" fill="#252B33"/>
<path d="M313.07 63.0566H297.17V69.6466H313.07V63.0566Z" stroke="#FDFDFD" stroke-miterlimit="10"/>
<path d="M341.44 63.0566H325.54V69.6466H341.44V63.0566Z" stroke="#FDFDFD" stroke-miterlimit="10"/>
<path d="M313.07 65.2561C313.07 65.2561 322.69 61.9662 325.53 66.3462" stroke="#FDFDFD" stroke-miterlimit="10"/>
<path d="M297.17 66.3457H289.65" stroke="#FDFDFD" stroke-miterlimit="10"/>
<path d="M348.84 66.3457H341.32" stroke="#FDFDFD" stroke-miterlimit="10"/>
<path d="M286.99 70.6565C287.77 70.7365 288.47 71.2065 289.06 71.6965C289.65 72.1965 290.16 72.7765 290.6 73.4065C290.82 73.7365 291.02 74.0565 291.19 74.3965C291.36 74.7565 291.52 75.0965 291.65 75.4465C291.92 76.1565 292.12 76.8565 292.31 77.6065C291.76 77.0665 291.34 76.4165 290.95 75.7865L290.38 74.8665C290.19 74.5565 289.99 74.2565 289.78 73.9665C289.38 73.3665 288.94 72.7965 288.5 72.2265C288.04 71.6665 287.6 71.1165 286.99 70.6465V70.6565Z" fill="#FDFDFD"/>
<path d="M333.22 62.4455C334.24 63.4655 335.9 63.4655 336.92 62.4455C337.94 61.4255 337.94 59.7655 336.92 58.7455C335.9 57.7255 334.24 57.7255 333.22 58.7455C332.2 59.7655 332.2 61.4255 333.22 62.4455Z" fill="#FDFDFD"/>
<path d="M352.31 70.6562C351.7 71.1262 351.26 71.6763 350.8 72.2363C350.36 72.8063 349.92 73.3762 349.52 73.9762C349.31 74.2562 349.11 74.5663 348.92 74.8763L348.34 75.7962C347.95 76.4262 347.53 77.0662 346.98 77.6162C347.17 76.8662 347.37 76.1663 347.64 75.4563C347.76 75.0963 347.93 74.7562 348.1 74.3962C348.27 74.0562 348.47 73.7363 348.69 73.4062C349.14 72.7862 349.64 72.1962 350.23 71.6962C350.82 71.2062 351.51 70.7463 352.3 70.6562H352.31Z" fill="#FDFDFD"/>
<path d="M319.72 60.3457C319.8 61.5357 320.54 62.3457 321.28 63.2057C321.66 63.6357 322.03 64.1057 322.34 64.6657C322.64 65.2357 322.78 65.8457 322.86 66.4757C322.98 67.7257 322.65 69.0257 321.88 70.0057C321.13 71.0057 319.96 71.6257 318.8 71.6957C319.86 71.2157 320.71 70.4857 321.23 69.5657C321.75 68.6557 321.97 67.5957 321.87 66.5657C321.81 65.5157 321.33 64.6257 320.67 63.6757C320.35 63.1957 320.03 62.6857 319.82 62.1157C319.61 61.5457 319.56 60.9057 319.73 60.3457H319.72Z" fill="#FDFDFD"/>
<path d="M338.49 263.977C337.95 263.637 337.42 263.277 336.9 262.887C327.99 256.247 330.38 243.317 330.38 243.317L315.44 243.137L314.49 243.317C314.49 243.317 316.88 256.247 307.96 262.887C307.32 263.357 306.67 263.787 306.02 264.187L321.93 275.597L338.49 263.977Z" fill="#252B33" stroke="#FDFDFD" stroke-linecap="round" stroke-linejoin="round"/>
<path d="M338.84 264.187C338.89 264.217 338.94 264.247 338.99 264.277C338.82 264.177 338.65 264.077 338.49 263.967L321.93 275.587L306.02 264.177L311.98 274.457V286.807H332.88V274.457L338.84 264.177V264.187Z" fill="#FDFDFD" stroke="#FDFDFD" stroke-linejoin="round"/>
<path d="M306.02 264.186C297.47 269.396 287.34 269.296 280.53 286.826H311.99V274.476L306.03 264.196L306.02 264.186Z" fill="#252B33"/>
<path d="M305.58 263.996C302.26 266.006 298.58 267.296 295.12 269.046C291.11 271.066 287.64 273.816 284.97 277.446C282.89 280.266 281.33 283.426 280.06 286.686C279.95 286.956 280.69 287.076 280.83 287.076H312.29C312.29 287.076 312.47 287.046 312.47 286.986V276.316C312.47 275.796 312.55 275.206 312.47 274.686C312.43 274.416 312.23 274.156 312.09 273.916L309.02 268.626L306.48 264.236C306.35 264.006 305.4 263.836 305.6 264.166L310.9 273.316C311.11 273.676 311.41 274.056 311.56 274.446C311.47 274.216 311.53 274.526 311.53 274.636V286.686L311.71 286.596H280.25L281.02 286.986C283.07 281.746 285.93 276.726 290.31 273.096C293.43 270.516 297.09 268.886 300.76 267.266C302.71 266.396 304.65 265.506 306.48 264.396C306.68 264.276 305.85 263.846 305.59 264.006L305.58 263.996Z" fill="#FDFDFD"/>
<path d="M313.08 256.266C313.08 256.266 312.98 259.926 307.96 262.886L311.98 274.476L302.85 265.896C302.85 265.896 300.73 262.126 313.08 256.266Z" fill="#252B33"/>
<path d="M312.59 256.337C312.57 257.057 312.26 257.797 311.95 258.437C311.01 260.317 309.38 261.737 307.59 262.807C307.55 262.827 307.44 262.907 307.46 262.967L310.97 273.087L311.48 274.557L312.45 274.367L304.2 266.617C303.93 266.357 303.54 266.097 303.32 265.787C303.37 265.857 303.32 265.757 303.29 265.717C303.25 265.627 303.24 265.517 303.22 265.417C303.07 264.347 303.73 263.277 304.37 262.487C306.65 259.677 310.25 257.897 313.44 256.377C313.65 256.277 313.54 256.167 313.4 256.097C313.21 255.997 312.87 256.117 312.7 256.197C309.63 257.657 306.37 259.337 303.99 261.837C303.13 262.747 302.22 263.927 302.2 265.247C302.2 265.797 302.34 266.017 302.72 266.377L307.38 270.757L311.49 274.627C311.63 274.757 312.55 274.717 312.46 274.437L308.95 264.317L308.44 262.847L308.31 263.007C310.15 261.907 311.85 260.457 312.84 258.527C313.2 257.837 313.53 257.017 313.56 256.217C313.56 255.977 312.58 256.047 312.57 256.357L312.59 256.337Z" fill="#FDFDFD"/>
<path d="M309.66 276.787H307.04C306.78 276.787 306.53 277.017 306.54 277.287C306.55 277.557 306.76 277.787 307.04 277.787H309.66C309.92 277.787 310.17 277.557 310.16 277.287C310.15 277.017 309.94 276.787 309.66 276.787Z" fill="#FDFDFD"/>
<path d="M309.66 283.287H307.04C306.78 283.287 306.53 283.517 306.54 283.787C306.55 284.057 306.76 284.287 307.04 284.287H309.66C309.92 284.287 310.17 284.057 310.16 283.787C310.15 283.517 309.94 283.287 309.66 283.287Z" fill="#FDFDFD"/>
<path d="M363.69 285.228C363.62 285.058 363.54 284.897 363.47 284.737C363.32 284.397 363.17 284.058 363.02 283.728C362.93 283.528 362.83 283.348 362.74 283.158C362.6 282.878 362.47 282.588 362.33 282.318C362.23 282.128 362.13 281.948 362.03 281.758C361.89 281.508 361.76 281.248 361.62 281.008C361.52 280.828 361.41 280.647 361.3 280.467C361.16 280.237 361.03 279.997 360.89 279.777C360.78 279.607 360.67 279.437 360.56 279.267C360.42 279.057 360.29 278.838 360.15 278.628C360.04 278.468 359.93 278.307 359.82 278.147C359.68 277.947 359.54 277.747 359.4 277.557C359.29 277.407 359.17 277.257 359.06 277.117C358.92 276.937 358.78 276.748 358.64 276.568C358.53 276.428 358.41 276.298 358.3 276.158C358.16 275.988 358.01 275.807 357.86 275.647C357.74 275.517 357.63 275.397 357.51 275.267C357.36 275.107 357.22 274.947 357.07 274.797C356.95 274.677 356.84 274.568 356.72 274.448C356.57 274.298 356.42 274.148 356.27 274.008C356.16 273.898 356.04 273.798 355.93 273.698C355.77 273.558 355.62 273.407 355.46 273.277C355.35 273.177 355.23 273.087 355.12 272.997C354.96 272.867 354.8 272.728 354.64 272.598C354.53 272.508 354.42 272.427 354.3 272.337C354.14 272.207 353.97 272.087 353.81 271.957C353.7 271.877 353.59 271.798 353.48 271.728C353.31 271.608 353.14 271.488 352.97 271.378C352.86 271.308 352.76 271.238 352.65 271.168C352.47 271.058 352.3 270.937 352.12 270.827C352.02 270.767 351.92 270.707 351.82 270.647C351.64 270.537 351.45 270.428 351.27 270.318C351.18 270.268 351.08 270.208 350.99 270.158C350.8 270.048 350.61 269.937 350.41 269.837C350.33 269.787 350.24 269.747 350.16 269.707C349.96 269.597 349.75 269.488 349.55 269.388C349.48 269.348 349.41 269.317 349.34 269.277C349.12 269.167 348.9 269.058 348.68 268.948L348.52 268.867C348.28 268.747 348.03 268.637 347.79 268.517C347.77 268.517 347.75 268.497 347.74 268.487C345.88 267.617 344.01 266.848 342.18 265.978C342.15 265.958 342.12 265.947 342.08 265.927C341.85 265.817 341.62 265.707 341.39 265.587C341.34 265.557 341.28 265.538 341.23 265.508C341.02 265.398 340.81 265.287 340.6 265.177C340.53 265.137 340.46 265.108 340.39 265.068C340.19 264.958 340 264.857 339.8 264.747C339.72 264.707 339.64 264.658 339.56 264.608C339.37 264.498 339.19 264.387 339 264.277C338.95 264.247 338.9 264.217 338.85 264.188L332.89 274.467V286.818H364.35C364.14 286.268 363.92 285.727 363.7 285.217L363.69 285.228Z" fill="#252B33"/>
<path d="M364.169 285.287C362.439 281.357 360.289 277.567 357.219 274.517C354.149 271.467 350.249 269.347 346.239 267.567C343.819 266.497 341.419 265.427 339.139 264.087C338.969 263.987 338.499 263.857 338.369 264.077L333.039 273.267C332.849 273.587 332.499 273.997 332.399 274.367C332.309 274.697 332.399 275.177 332.399 275.517C332.399 277.627 332.399 279.737 332.399 281.847V286.727C332.399 286.987 332.899 287.077 333.089 287.077H364.549C364.629 287.077 364.879 287.057 364.829 286.917C364.619 286.377 364.399 285.847 364.179 285.317C364.059 285.047 363.119 284.947 363.219 285.187C363.449 285.717 363.659 286.257 363.869 286.787L364.149 286.627H332.689L333.379 286.977V276.347C333.379 275.827 333.279 275.197 333.379 274.687C333.429 274.437 333.629 274.187 333.759 273.967L336.829 268.677L339.339 264.337H338.569C342.409 266.577 346.649 267.987 350.519 270.177C354.389 272.367 357.329 275.137 359.719 278.657C361.109 280.707 362.219 282.927 363.209 285.197C363.329 285.467 364.269 285.557 364.169 285.327V285.287Z" fill="#FDFDFD"/>
<path d="M331.78 256.268C331.78 256.268 331.88 259.928 336.9 262.888L332.88 274.478L342.01 265.898C342.01 265.898 344.13 262.128 331.77 256.268H331.78Z" fill="#252B33"/>
<path d="M331.28 256.247C331.31 257.237 331.8 258.267 332.3 259.087C332.9 260.057 333.68 260.907 334.56 261.637C334.82 261.847 335.08 262.057 335.35 262.247C335.62 262.437 336.05 262.607 336.26 262.847C336.56 263.177 336.36 262.757 336.38 262.897C336.38 262.937 336.33 263.017 336.32 263.057C336.26 263.477 336.02 263.937 335.88 264.327L335.14 266.467L333.4 271.477L332.37 274.447C332.27 274.727 333.22 274.657 333.35 274.537L341.76 266.627C342.19 266.217 342.56 266.007 342.63 265.407C342.75 264.267 342.03 263.147 341.34 262.317C338.98 259.487 335.38 257.677 332.13 256.127C331.9 256.017 330.95 256.157 331.41 256.387C334.45 257.837 337.71 259.487 340.03 261.997C340.82 262.847 341.68 263.997 341.64 265.227C341.62 265.807 341.46 265.877 341.02 266.287L336.32 270.697L332.39 274.397L333.37 274.487L336.88 264.367L337.39 262.897C337.39 262.897 337.36 262.817 337.33 262.797C335.54 261.727 333.89 260.317 332.93 258.427C332.6 257.777 332.29 257.017 332.27 256.277C332.26 255.987 331.26 255.967 331.27 256.237L331.28 256.247Z" fill="#FDFDFD"/>
<path d="M336.7 277.287C336.7 277.697 336.37 278.027 335.96 278.027C335.55 278.027 335.22 277.697 335.22 277.287C335.22 276.877 335.55 276.547 335.96 276.547C336.37 276.547 336.7 276.877 336.7 277.287Z" fill="#FDFDFD"/>
<path d="M336.7 283.787C336.7 284.197 336.37 284.527 335.96 284.527C335.55 284.527 335.22 284.197 335.22 283.787C335.22 283.377 335.55 283.047 335.96 283.047C336.37 283.047 336.7 283.377 336.7 283.787Z" fill="#FDFDFD"/>
<path d="M358.53 219.537C358.31 216.977 357.27 214.827 354.29 215.517C353.73 215.647 353.08 216.017 352.46 216.487C352.84 214.397 353.13 212.267 353.33 210.107C355.25 188.967 350.01 167.467 322.75 167.467H322.12C294.86 167.467 289.62 188.967 291.54 210.107C291.74 212.267 292.03 214.397 292.41 216.487C291.79 216.017 291.14 215.647 290.58 215.517C287.6 214.827 286.55 216.977 286.34 219.537C285.95 224.157 289.02 228.477 293.47 230.727C294.22 231.107 295.78 231.517 297.39 231.697C302.44 241.517 310.69 248.107 322.44 247.507C334.2 248.107 342.44 241.517 347.49 231.697C349.1 231.517 350.67 231.107 351.41 230.727C355.85 228.477 358.93 224.157 358.54 219.537H358.53Z" fill="#252B33" stroke="#FDFDFD" stroke-linecap="round" stroke-linejoin="round"/>
<path d="M322.959 208.857C323.149 209.967 323.439 211.037 323.769 212.107L324.659 215.337C325.289 217.467 326.059 219.597 326.229 221.957C326.279 222.627 326.039 223.327 325.659 223.847C325.279 224.377 324.769 224.787 324.189 225.057C323.609 225.317 322.939 225.457 322.269 225.327C321.589 225.207 320.999 224.727 320.689 224.157C319.709 221.927 319.619 219.687 319.569 217.437C319.779 218.537 319.979 219.647 320.269 220.717C320.529 221.777 320.839 222.897 321.349 223.757C321.619 224.147 321.999 224.397 322.429 224.467C322.869 224.537 323.349 224.427 323.769 224.207C324.629 223.787 325.299 222.897 325.219 222.017C325.089 219.877 324.369 217.747 323.899 215.537C323.529 213.317 322.929 211.147 322.939 208.867L322.959 208.857Z" fill="#FDFDFD"/>
<path d="M299.689 198.456C300.149 197.276 300.839 196.306 301.719 195.456C302.609 194.616 303.789 193.966 304.939 193.636C306.189 193.276 307.319 193.206 308.509 193.276C309.679 193.366 310.879 193.596 311.979 194.256C310.859 194.846 309.839 195.256 308.799 195.616C307.779 195.966 306.709 196.256 305.819 196.506C304.839 196.796 303.969 197.066 302.989 197.436C301.999 197.796 300.949 198.216 299.689 198.456Z" fill="#FDFDFD"/>
<path d="M329.86 229.656C321.36 236.646 315.18 229.656 315.18 229.656H329.86Z" fill="#252B33" stroke="#FDFDFD" stroke-linecap="round" stroke-linejoin="round"/>
<path d="M345.17 198.456C343.92 198.216 342.86 197.796 341.87 197.436C340.89 197.066 340.02 196.796 339.04 196.496C338.15 196.246 337.08 195.956 336.06 195.606C335.02 195.246 334 194.836 332.88 194.246C333.99 193.586 335.19 193.356 336.35 193.266C337.54 193.196 338.67 193.266 339.92 193.626C341.07 193.956 342.25 194.606 343.14 195.446C344.02 196.286 344.71 197.256 345.17 198.446V198.456Z" fill="#FDFDFD"/>
<path d="M289.77 220.656C290.55 220.746 291.25 221.206 291.84 221.696C292.43 222.196 292.94 222.786 293.38 223.406C293.6 223.736 293.8 224.056 293.97 224.396C294.14 224.756 294.3 225.096 294.43 225.456C294.7 226.166 294.9 226.876 295.09 227.616C294.54 227.076 294.12 226.426 293.73 225.796L293.15 224.876C292.96 224.566 292.76 224.266 292.55 223.976C292.15 223.376 291.71 222.806 291.27 222.236C290.81 221.676 290.37 221.126 289.76 220.656H289.77Z" fill="#FDFDFD"/>
<path d="M355.09 220.656C354.48 221.126 354.04 221.676 353.58 222.236C353.14 222.806 352.7 223.376 352.3 223.976C352.09 224.256 351.89 224.566 351.7 224.876C351.5 225.166 351.33 225.486 351.12 225.796C350.73 226.426 350.31 227.066 349.76 227.616C349.95 226.866 350.15 226.156 350.42 225.456C350.54 225.096 350.71 224.756 350.88 224.396C351.05 224.056 351.25 223.736 351.47 223.406C351.92 222.776 352.42 222.196 353.01 221.696C353.6 221.206 354.29 220.746 355.08 220.656H355.09Z" fill="#FDFDFD"/>
<path d="M308.89 212.447C307.87 213.467 306.21 213.467 305.19 212.447C304.17 211.427 304.17 209.767 305.19 208.747C306.21 207.727 307.87 207.727 308.89 208.747C309.91 209.767 309.91 211.427 308.89 212.447Z" fill="#FDFDFD"/>
<path d="M335.999 212.447C337.019 213.467 338.679 213.467 339.699 212.447C340.719 211.427 340.719 209.767 339.699 208.747C338.679 207.727 337.019 207.727 335.999 208.747C334.979 209.767 334.979 211.427 335.999 212.447Z" fill="#FDFDFD"/>
<path d="M302.72 221.178C303.36 221.178 303.36 220.178 302.72 220.178C302.08 220.178 302.08 221.178 302.72 221.178Z" fill="#FDFDFD"/>
<path d="M302.85 223.557C303.49 223.557 303.49 222.557 302.85 222.557C302.21 222.557 302.21 223.557 302.85 223.557Z" fill="#FDFDFD"/>
<path d="M307.48 221.498H307.35C307.28 221.498 307.22 221.508 307.16 221.538C307.1 221.558 307.04 221.588 307 221.638C306.95 221.688 306.92 221.738 306.9 221.798C306.87 221.858 306.85 221.918 306.86 221.988L306.88 222.118C306.9 222.198 306.95 222.278 307.01 222.338L307.11 222.418C307.19 222.468 307.27 222.488 307.36 222.488H307.49C307.56 222.488 307.62 222.478 307.68 222.448C307.74 222.428 307.8 222.398 307.84 222.348C307.89 222.298 307.92 222.248 307.94 222.188C307.97 222.128 307.99 222.068 307.98 221.998L307.96 221.868C307.94 221.788 307.89 221.708 307.83 221.648L307.73 221.568C307.65 221.518 307.57 221.498 307.48 221.498Z" fill="#FDFDFD"/>
<path d="M305.49 220.387C306.13 220.387 306.13 219.387 305.49 219.387C304.85 219.387 304.85 220.387 305.49 220.387Z" fill="#FDFDFD"/>
<path d="M300.73 218.268C301.37 218.268 301.37 217.268 300.73 217.268C300.09 217.268 300.09 218.268 300.73 218.268Z" fill="#FDFDFD"/>
<path d="M298.61 221.307C299.25 221.307 299.25 220.307 298.61 220.307C297.97 220.307 297.97 221.307 298.61 221.307Z" fill="#FDFDFD"/>
<path d="M337.98 219.986C338.62 219.986 338.62 218.986 337.98 218.986C337.34 218.986 337.34 219.986 337.98 219.986Z" fill="#FDFDFD"/>
<path d="M340.76 217.477C341.4 217.477 341.4 216.477 340.76 216.477C340.12 216.477 340.12 217.477 340.76 217.477Z" fill="#FDFDFD"/>
<path d="M342.08 221.576C342.72 221.576 342.72 220.576 342.08 220.576C341.44 220.576 341.44 221.576 342.08 221.576Z" fill="#FDFDFD"/>
<path d="M345.92 220.256C346.56 220.256 346.56 219.256 345.92 219.256C345.28 219.256 345.28 220.256 345.92 220.256Z" fill="#FDFDFD"/>
<path d="M344.47 218.006C345.11 218.006 345.11 217.006 344.47 217.006C343.83 217.006 343.83 218.006 344.47 218.006Z" fill="#FDFDFD"/>
<path d="M340.2 222.267V222.137C340.2 222.067 340.19 222.007 340.16 221.947C340.14 221.887 340.11 221.827 340.06 221.787C340.01 221.737 339.96 221.707 339.9 221.687C339.84 221.657 339.78 221.637 339.71 221.647L339.58 221.667C339.5 221.687 339.42 221.737 339.36 221.797L339.28 221.897C339.23 221.977 339.21 222.057 339.21 222.147V222.277C339.21 222.347 339.22 222.407 339.25 222.467C339.27 222.527 339.3 222.587 339.35 222.627C339.4 222.677 339.45 222.707 339.51 222.727C339.57 222.757 339.63 222.777 339.7 222.767L339.83 222.747C339.91 222.727 339.99 222.677 340.05 222.617L340.13 222.517C340.18 222.437 340.2 222.357 340.2 222.267Z" fill="#FDFDFD"/>
<path d="M344.2 223.297C344.84 223.297 344.84 222.297 344.2 222.297C343.56 222.297 343.56 223.297 344.2 223.297Z" fill="#FDFDFD"/>
<path d="M351.51 170.397C347.57 167.847 343.51 167.037 339.2 165.467C338.56 165.177 333.69 161.417 328.7 160.467C315.08 157.887 300.04 160.037 292.09 172.637C288.37 178.527 286.86 184.287 286.31 191.157C285.93 195.927 286.6 202.227 288.18 206.767C288.9 208.827 289.55 213.657 290.59 215.517C291.15 216.507 294.3 219.677 295.11 218.147C294.7 215.237 294.56 197.887 295.86 193.317C296.86 189.787 298.82 187.437 301.31 184.607C303.23 182.427 305.7 181.107 308.26 179.857C308.9 181.377 307.64 182.967 306.48 183.867C310.55 184.887 316.86 182.677 320.69 181.027C323.2 179.957 327.88 176.817 329.9 172.737C329.69 174.367 326.81 178.607 325.76 179.737C328.14 179.777 332.78 176.957 334.29 175.147C332.92 179.757 331.23 180.527 330.44 182.517C334.71 181.317 337.4 178.737 339.79 174.627C341.52 178.387 344.2 181.907 345.9 185.647C347.21 188.517 350.88 193.107 351.18 206.377C351.27 210.327 351.72 213.267 351.7 217.077C352.33 214.717 350.87 221.077 354.32 215.537C355.57 213.527 358.57 206.747 359 204.447C361.21 192.547 363.37 178.067 351.54 170.417L351.51 170.397Z" fill="#FDFDFD"/>
</g>
<defs>
<clipPath id="clip0_326_4530">
<rect width="374" height="287" fill="white" transform="translate(0 0.966797)"/>
</clipPath>
</defs>
</svg>
